<svg width="166" height="101" viewBox="0 0 166 101" fill="none" xmlns="http://www.w3.org/2000/svg">
<path d="M70.0391 66.0834V69.3395H73.5618V69.8086H70.0391V73.3682H69.4795V65.6235H74.1031V66.0926H70.0391V66.0834Z" fill="#ADB4A4"/>
<path d="M81.1672 72.8806V73.3589H76.9473V65.6143H77.5069V72.8806H81.1672Z" fill="#ADB4A4"/>
<path d="M90.1758 69.4866C90.1758 70.0845 90.084 70.6272 89.9097 71.1146C89.7262 71.6021 89.4785 72.016 89.1575 72.3656C88.8364 72.7059 88.4419 72.9726 87.9924 73.1658C87.5429 73.3497 87.0383 73.4509 86.4971 73.4509C85.9558 73.4509 85.4512 73.3589 85.0017 73.1658C84.5522 72.9818 84.1669 72.7151 83.8367 72.3656C83.5156 72.016 83.2587 71.6021 83.0844 71.1146C82.9101 70.6272 82.8184 70.0845 82.8184 69.4866C82.8184 68.8887 82.9101 68.3553 83.0844 67.8678C83.2679 67.3803 83.5156 66.9664 83.8367 66.6169C84.1577 66.2673 84.5522 66.0006 85.0017 65.8166C85.4512 65.6327 85.9558 65.5315 86.4971 65.5315C87.0383 65.5315 87.5429 65.6235 87.9924 65.8166C88.4419 66.0098 88.8364 66.2673 89.1575 66.6169C89.4785 66.9664 89.7354 67.3803 89.9097 67.8678C90.084 68.3553 90.1758 68.8979 90.1758 69.4866ZM89.5978 69.4866C89.5978 68.9439 89.5244 68.4656 89.3776 68.0333C89.2309 67.601 89.0199 67.2423 88.7446 66.9388C88.4694 66.6352 88.1483 66.4145 87.763 66.2489C87.3777 66.0926 86.9557 66.0098 86.4971 66.0098C86.0384 66.0098 85.6164 66.0926 85.2402 66.2489C84.8549 66.4053 84.5339 66.6352 84.2586 66.9388C83.9834 67.2423 83.7724 67.601 83.6165 68.0333C83.4697 68.4656 83.3871 68.9531 83.3871 69.4866C83.3871 70.0201 83.4605 70.5168 83.6165 70.9491C83.7724 71.3814 83.9834 71.7401 84.2586 72.0436C84.5339 72.3472 84.8641 72.5679 85.2402 72.7243C85.6255 72.8806 86.0384 72.9634 86.4971 72.9634C86.9557 72.9634 87.3777 72.8898 87.763 72.7243C88.1483 72.5679 88.4694 72.338 88.7446 72.0436C89.0199 71.7493 89.2309 71.3814 89.3776 70.9491C89.5244 70.5168 89.5978 70.0385 89.5978 69.4866Z" fill="#ADB4A4"/>
<path d="M102.908 65.6143L100.477 73.3589H99.9728L97.6886 66.6352C97.661 66.5433 97.6335 66.4513 97.6152 66.3501C97.5968 66.4513 97.5693 66.5433 97.5418 66.6352L95.2575 73.3589H94.7621L92.3311 65.6143H92.7989C92.909 65.6143 92.9732 65.6602 93.0007 65.7614L94.9456 72.1264C94.9823 72.2736 95.019 72.4391 95.0557 72.6231C95.074 72.5311 95.0924 72.4391 95.1107 72.3563C95.1291 72.2736 95.1474 72.2 95.1749 72.1264L97.3583 65.7614C97.3583 65.7614 97.395 65.6878 97.4317 65.6602C97.4684 65.6326 97.5143 65.6143 97.5601 65.6143H97.7161C97.7711 65.6143 97.8078 65.6326 97.8445 65.651C97.8812 65.6694 97.8996 65.7154 97.9179 65.7614L100.101 72.1264C100.129 72.2 100.147 72.2736 100.165 72.3563C100.184 72.4391 100.202 72.5311 100.221 72.6231C100.239 72.5311 100.257 72.4483 100.276 72.3655C100.294 72.2828 100.312 72.2092 100.331 72.1356L102.275 65.7706C102.275 65.7706 102.312 65.697 102.349 65.6694C102.386 65.6418 102.431 65.6235 102.486 65.6235H102.908V65.6143Z" fill="#ADB4A4"/>
<path d="M110.257 72.8898V73.3589H105.615V65.6143H110.239V66.0833H106.175V69.2106H109.56V69.6613H106.175V72.8898H110.248H110.257Z" fill="#ADB4A4"/>
<path d="M118.586 73.3588H118.109C118.045 73.3588 117.999 73.3496 117.953 73.3312C117.908 73.3129 117.871 73.2761 117.834 73.2209L115.357 70.0844C115.357 70.0844 115.302 70.0108 115.266 69.9832C115.238 69.9556 115.201 69.928 115.165 69.9188C115.128 69.9004 115.082 69.8912 115.027 69.882C114.972 69.8728 114.908 69.8728 114.834 69.8728H113.825V73.3772H113.266V65.6326H115.238C116.128 65.6326 116.788 65.8073 117.229 66.1477C117.669 66.488 117.889 66.9939 117.889 67.6653C117.889 67.9596 117.834 68.2264 117.733 68.4747C117.632 68.7231 117.486 68.9346 117.293 69.1186C117.1 69.3025 116.871 69.4497 116.596 69.5693C116.33 69.6889 116.018 69.7624 115.678 69.8084C115.77 69.8636 115.843 69.9372 115.917 70.0292L118.577 73.3772L118.586 73.3588ZM115.155 69.4405C115.495 69.4405 115.807 69.4037 116.073 69.3209C116.339 69.2382 116.568 69.1186 116.761 68.9714C116.944 68.8151 117.091 68.6311 117.192 68.4195C117.293 68.208 117.339 67.9596 117.339 67.6929C117.339 67.141 117.155 66.7363 116.798 66.4696C116.44 66.2028 115.917 66.0741 115.229 66.0741H113.816V69.4589H115.155V69.4405Z" fill="#ADB4A4"/>
<path d="M131.43 65.6143V73.3589H130.871V69.6522H126.036V73.3589H125.477V65.6143H126.036V69.229H130.871V65.6143H131.43Z" fill="#ADB4A4"/>
<path d="M141.879 69.4866C141.879 70.0845 141.787 70.6272 141.613 71.1146C141.439 71.6021 141.182 72.016 140.861 72.3656C140.54 72.7059 140.145 72.9726 139.696 73.1658C139.246 73.3497 138.741 73.4509 138.2 73.4509C137.659 73.4509 137.154 73.3589 136.705 73.1658C136.255 72.9818 135.87 72.7151 135.54 72.3656C135.219 72.016 134.962 71.6021 134.788 71.1146C134.613 70.6272 134.521 70.0845 134.521 69.4866C134.521 68.8887 134.613 68.3553 134.788 67.8678C134.962 67.3803 135.219 66.9664 135.54 66.6169C135.861 66.2673 136.255 66.0006 136.705 65.8166C137.154 65.6235 137.659 65.5315 138.2 65.5315C138.741 65.5315 139.246 65.6235 139.696 65.8166C140.145 66.0006 140.54 66.2673 140.861 66.6169C141.182 66.9664 141.439 67.3803 141.613 67.8678C141.787 68.3553 141.879 68.8979 141.879 69.4866ZM141.301 69.4866C141.301 68.9439 141.228 68.4656 141.081 68.0333C140.934 67.601 140.723 67.2423 140.448 66.9388C140.173 66.6352 139.851 66.4145 139.466 66.2489C139.081 66.0926 138.659 66.0098 138.2 66.0098C137.741 66.0098 137.319 66.0926 136.934 66.2489C136.549 66.4053 136.228 66.6352 135.953 66.9388C135.677 67.2423 135.466 67.601 135.31 68.0333C135.164 68.4656 135.081 68.9531 135.081 69.4866C135.081 70.0201 135.154 70.5168 135.31 70.9491C135.466 71.3814 135.677 71.7401 135.953 72.0436C136.228 72.3472 136.558 72.5679 136.934 72.7243C137.319 72.8806 137.741 72.9634 138.2 72.9634C138.659 72.9634 139.081 72.8898 139.466 72.7243C139.851 72.5679 140.173 72.338 140.448 72.0436C140.723 71.7401 140.934 71.3814 141.081 70.9491C141.228 70.5168 141.301 70.0385 141.301 69.4866Z" fill="#ADB4A4"/>
<path d="M147.796 72.9541C148.163 72.9541 148.503 72.8897 148.787 72.761C149.081 72.6322 149.328 72.4482 149.53 72.2183C149.732 71.9884 149.888 71.7216 149.998 71.4089C150.108 71.0961 150.163 70.7558 150.163 70.3971V65.605H150.723V70.3971C150.723 70.8202 150.658 71.2249 150.521 71.5928C150.383 71.9608 150.191 72.2827 149.943 72.5586C149.686 72.8346 149.383 73.0461 149.016 73.2117C148.649 73.3772 148.246 73.4508 147.796 73.4508C147.347 73.4508 146.934 73.368 146.576 73.2117C146.218 73.0553 145.906 72.8346 145.659 72.5586C145.402 72.2827 145.209 71.9608 145.081 71.5928C144.952 71.2249 144.879 70.8202 144.879 70.3971V65.605H145.439V70.3879C145.439 70.7466 145.494 71.0869 145.604 71.3997C145.714 71.7124 145.87 71.9792 146.062 72.2091C146.264 72.439 146.512 72.623 146.805 72.7518C147.099 72.8805 147.429 72.9449 147.805 72.9449L147.796 72.9541Z" fill="#ADB4A4"/>
<path d="M157.961 66.5525C157.924 66.6169 157.878 66.6445 157.823 66.6445C157.777 66.6445 157.713 66.6077 157.64 66.5433C157.566 66.479 157.465 66.4054 157.337 66.3226C157.209 66.2398 157.053 66.1662 156.86 66.0926C156.667 66.0191 156.429 65.9915 156.154 65.9915C155.878 65.9915 155.631 66.0283 155.411 66.111C155.2 66.1938 155.016 66.3042 154.878 66.4422C154.732 66.5801 154.622 66.7457 154.548 66.9205C154.475 67.0952 154.438 67.2976 154.438 67.4907C154.438 67.7575 154.493 67.969 154.603 68.1438C154.713 68.3185 154.86 68.4657 155.044 68.5853C155.227 68.7049 155.429 68.806 155.667 68.8888C155.897 68.9716 156.135 69.0544 156.383 69.128C156.631 69.2107 156.86 69.2935 157.099 69.3947C157.328 69.4959 157.539 69.6155 157.722 69.7626C157.906 69.9098 158.053 70.0845 158.163 70.3053C158.273 70.5169 158.328 70.7836 158.328 71.1055C158.328 71.4274 158.273 71.7402 158.163 72.0253C158.053 72.3104 157.887 72.5588 157.676 72.7703C157.465 72.9819 157.209 73.1475 156.906 73.267C156.603 73.3866 156.255 73.451 155.86 73.451C155.346 73.451 154.915 73.359 154.548 73.1843C154.181 73.0003 153.86 72.7611 153.585 72.4392L153.741 72.2001C153.787 72.1449 153.833 72.1173 153.897 72.1173C153.934 72.1173 153.97 72.1357 154.025 72.1817C154.08 72.2277 154.135 72.2829 154.209 72.3472C154.282 72.4116 154.365 72.476 154.475 72.5588C154.576 72.6324 154.695 72.706 154.833 72.7703C154.97 72.8347 155.126 72.8899 155.3 72.9359C155.475 72.9819 155.677 73.0003 155.897 73.0003C156.199 73.0003 156.475 72.9543 156.713 72.8623C156.952 72.7703 157.154 72.6416 157.319 72.4852C157.484 72.3288 157.612 72.1357 157.695 71.9149C157.787 71.6942 157.823 71.455 157.823 71.2067C157.823 70.9308 157.768 70.71 157.658 70.5352C157.548 70.3605 157.401 70.2133 157.218 70.0937C157.034 69.9742 156.832 69.873 156.603 69.7994C156.374 69.7166 156.135 69.643 155.888 69.5603C155.64 69.4867 155.411 69.3947 155.172 69.3027C154.934 69.2107 154.732 69.0912 154.548 68.9348C154.365 68.7784 154.218 68.6037 154.108 68.3829C153.998 68.1622 153.943 67.8862 153.943 67.5551C153.943 67.2976 153.989 67.0492 154.09 66.8101C154.19 66.5709 154.328 66.3594 154.521 66.1754C154.713 65.9915 154.943 65.8443 155.218 65.7339C155.493 65.6235 155.814 65.5684 156.172 65.5684C156.576 65.5684 156.933 65.6327 157.245 65.7615C157.566 65.8903 157.851 66.0834 158.117 66.3502L157.988 66.5985L157.961 66.5525Z" fill="#ADB4A4"/>
<path d="M165.997 72.8898V73.3589H161.355V65.6143H165.979V66.0833H161.915V69.2106H165.3V69.6613H161.915V72.8898H165.988H165.997Z" fill="#ADB4A4"/>
<path d="M58.7637 70.5445C58.305 70.8664 57.8372 71.1883 57.3234 71.501C55.0024 72.7888 52.6815 74.1685 50.1954 75.1434C48.9202 75.7229 47.6084 76.2104 46.2873 76.6887C45.6543 76.8542 45.0489 77.0106 44.4159 77.1762C43.3334 77.5073 42.3701 77.7005 41.3151 78.0408C40.1776 78.4363 38.8841 78.5375 37.7006 78.7582L35.2788 79.0617C34.0495 79.2457 32.8018 79.3101 31.5634 79.3929C30.8478 79.4021 30.1506 79.3745 29.4442 79.3745C29.0956 79.3745 28.747 79.3745 28.3892 79.3745C28.0406 79.3653 27.6829 79.3469 27.3251 79.3377C26.793 79.3285 26.2517 79.3377 25.7105 79.2917C24.9766 79.2365 24.2885 79.0434 23.5546 78.9514C23.0501 78.8778 22.5455 78.8686 22.041 78.7858C21.1328 78.657 20.2154 78.5099 19.3255 78.3167C18.7567 78.1696 18.1696 78.004 17.6742 77.8108C17.1788 77.6177 16.766 77.3877 16.6743 77.1946C16.4908 76.7991 17.1972 76.5507 18.4357 76.7347C18.7751 76.7899 19.1329 76.8818 19.4815 76.9554C19.9677 77.0566 20.4539 77.0658 20.9401 77.1394C21.7291 77.2314 22.4997 77.4613 23.2794 77.5625C24.1601 77.6913 24.9399 77.7464 25.8022 77.8016C26.793 77.8384 27.8113 77.958 28.8112 77.9764C29.4993 77.9764 30.1873 77.9856 30.8753 77.9764C31.4992 77.9764 32.0129 77.8568 32.6184 77.8016C33.2514 77.7281 33.8935 77.7005 34.5265 77.6361C35.1595 77.5717 35.8017 77.5073 36.4347 77.4429C38.407 77.2222 40.4069 76.8266 42.3426 76.33C42.893 76.2104 43.4434 76.054 43.9664 75.8517C44.5076 75.6493 45.0489 75.447 45.6085 75.2538C46.3974 74.9595 47.2873 74.7019 48.1037 74.426C49.0395 74.1041 49.9385 73.6718 50.8467 73.2946C51.599 72.9727 52.3053 72.568 53.0301 72.2001C53.6447 71.8966 54.3511 71.4367 54.9291 71.1699C55.1767 71.0595 55.4703 70.8848 55.7272 70.7468C56.3235 70.4341 56.8831 70.0662 57.4427 69.6799C57.8922 69.3763 58.3692 69.0728 58.8554 68.7877C59.3233 68.4841 59.782 68.1898 60.2315 67.9414C60.9654 67.5275 61.7544 67.2884 61.7635 67.6471C61.7635 67.8955 61.5801 68.2818 61.0755 68.7601C60.9379 68.8796 60.8003 69.0084 60.6627 69.128C60.3599 69.3855 60.0572 69.6339 59.7545 69.873C59.4426 70.0938 59.1215 70.3145 58.8004 70.5445H58.7637Z" fill="#ADB4A4"/>
<path d="M38.0677 76.6795C37.8751 76.56 37.6916 76.4312 37.499 76.2748C36.655 75.5942 35.6092 75.1067 34.6276 74.4812C34.1138 74.1501 33.5359 73.8834 33.0497 73.4602C32.8203 73.2671 32.6277 73.0555 32.4167 72.844C32.0314 72.5037 31.7378 72.1725 31.3342 71.869C30.903 71.5287 30.5819 71.032 30.2608 70.5905C30.0682 70.2778 29.848 69.9834 29.6554 69.6707C29.3526 69.2016 29.0407 68.7233 28.8114 68.2082C28.5545 67.6104 28.3894 67.0125 28.1417 66.4146C28.0591 66.1847 27.9399 65.9639 27.894 65.7248C27.8298 65.3937 27.8206 65.0717 27.7839 64.7406C27.7564 64.5107 27.6922 64.2899 27.6371 64.0692C27.5637 63.6644 27.4995 63.2505 27.5087 62.8366C27.5087 62.5699 27.5087 62.294 27.6004 62.064C27.6738 61.8249 27.8114 61.6225 27.9766 61.5673C28.3252 61.4569 28.7196 61.7329 28.8205 62.248C28.8481 62.3951 28.8481 62.5423 28.8664 62.6895C28.8939 62.8918 28.9398 63.0942 28.9948 63.2965C29.0682 63.6185 29.0407 63.9588 29.0682 64.2899C29.0866 64.667 29.2242 64.9706 29.3159 65.3201C29.4352 65.7156 29.5178 66.1479 29.6554 66.5342C29.7471 66.8101 29.8388 67.0861 29.9764 67.3436C30.0865 67.5828 30.2333 67.7575 30.3801 67.9599C30.6737 68.4014 30.903 68.8889 31.1874 69.3396C31.6186 70.057 32.1598 70.7193 32.7653 71.2987C32.9304 71.4735 33.1047 71.6391 33.2974 71.7586C33.4992 71.8966 33.7102 72.0162 33.9212 72.1449C34.2147 72.3381 34.4716 72.6232 34.7743 72.8348C35.1138 73.0831 35.4807 73.3039 35.8477 73.5246L36.7834 74.0489C37.0494 74.1961 37.4072 74.3432 37.609 74.5548C37.7008 74.6468 37.8292 74.7296 37.9393 74.8031L38.7007 75.3366C39.1136 75.631 39.5172 76.0265 39.7557 76.4588C39.9575 76.8175 39.9667 77.2682 39.6823 77.3786C39.4805 77.4613 39.2328 77.4705 38.9851 77.3326C38.9209 77.2958 38.8567 77.259 38.7925 77.213C38.5264 77.0382 38.3063 76.8451 38.0402 76.6703L38.0677 76.6795Z" fill="#ADB4A4"/>
<path d="M29.729 62.4319C29.9033 62.5699 30.0592 62.7263 30.2244 62.8918C30.9583 63.6553 31.9215 64.2163 32.8573 64.8418C33.3435 65.1729 33.8939 65.4213 34.3801 65.78C34.6095 65.9456 34.8021 66.1479 35.0314 66.3135C35.4259 66.617 35.7654 66.8838 36.1965 67.1413C36.6644 67.4356 37.0497 67.8863 37.3891 68.3094C37.6276 68.5946 37.8478 68.8889 38.0772 69.1832C38.4074 69.6339 38.756 70.0938 38.9945 70.5997C39.2881 71.1792 39.4532 71.7771 39.7193 72.3749C39.811 72.5957 39.9119 72.8256 39.967 73.0556C40.0312 73.3867 40.0403 73.7086 40.077 74.0397C40.1046 74.2697 40.1688 74.4813 40.2055 74.7112C40.288 75.1159 40.3156 75.5298 40.3156 75.9437C40.2972 76.2105 40.288 76.4772 40.1963 76.7164C40.1046 76.9555 39.967 77.1395 39.8018 77.1854C39.4532 77.2774 39.0679 76.9831 38.9945 76.4772C38.967 76.3392 38.9762 76.1829 38.967 76.0449C38.967 75.8425 38.8844 75.6494 38.8569 75.447C38.8019 75.1251 38.8202 74.8032 38.8019 74.4813C38.7835 74.1133 38.6459 73.819 38.5542 73.4787C38.4349 73.0924 38.3432 72.6785 38.2056 72.2921C38.1047 72.0254 38.0038 71.7587 37.8662 71.5103C37.7377 71.2896 37.6001 71.124 37.4442 70.9216C37.1414 70.4985 36.8662 70.057 36.5726 69.6247C36.0956 68.9625 35.4993 68.383 34.848 67.8771C34.6553 67.7392 34.4718 67.5828 34.2608 67.4724C34.0407 67.362 33.8205 67.2609 33.6003 67.1321C33.2884 66.9573 32.9949 66.6722 32.683 66.4606C32.3344 66.2123 31.9674 65.9732 31.6004 65.7432L30.6831 65.1545C30.4262 64.9798 30.0868 64.805 29.9033 64.5659C29.8207 64.4647 29.7015 64.3727 29.6006 64.2807L28.9125 63.6461C28.5272 63.3058 28.2061 62.8367 28.0318 62.3768C27.8942 61.9812 27.9676 61.5489 28.2612 61.4846C28.4722 61.4386 28.7199 61.4662 28.9309 61.6409L29.096 61.7881C29.3162 62.0088 29.518 62.2112 29.7382 62.4228L29.729 62.4319Z" fill="#ADB4A4"/>
<path d="M41.031 82.042C41.086 82.6123 41.0401 83.1918 41.0218 83.808C40.7649 86.4938 40.1961 89.2072 39.0127 91.6631C38.4256 92.96 37.71 94.2109 36.8477 95.3606C36.4074 95.8665 35.9945 96.354 35.5083 96.8139C35.1047 97.237 34.7194 97.6141 34.3066 97.9545C34.1047 98.1384 33.9029 98.3224 33.6919 98.5063C33.3341 98.7823 32.9672 99.0582 32.6002 99.3525L31.9672 99.84L31.8021 99.9596C31.7471 99.9872 31.6828 100.088 31.6737 99.9688L31.5269 99.5549C31.3434 99.003 31.1232 98.3868 30.9856 97.8625C30.8205 97.237 30.7196 96.5932 30.6462 95.9677C30.5728 95.1307 30.5086 94.2845 30.5545 93.4383C30.6003 92.1598 30.7746 90.8628 31.1691 89.6395C31.6278 88.2322 32.2975 86.9629 33.0864 85.7028C33.3708 85.2245 33.7103 84.7738 34.068 84.3507C34.5909 83.7804 35.1689 83.3297 35.7285 82.8606C36.1138 82.5295 36.4808 82.1892 36.8294 81.8581C37.4623 81.2418 38.0495 80.6347 38.5082 79.9633C38.8017 79.5218 39.0494 79.0619 39.2329 78.6296C39.4347 78.2065 39.5723 77.8018 39.7283 77.6638C39.9026 77.5258 40.0861 77.5902 40.242 77.9029C40.3888 78.2065 40.4438 78.7859 40.242 79.485C40.1227 79.8713 39.9301 80.2392 39.7283 80.5795C39.4439 81.0578 39.1595 81.5085 38.8109 81.9224C38.2513 82.5847 37.5816 83.0906 36.9578 83.5781C36.2422 84.1391 35.7468 84.691 35.2056 85.3073C34.5909 86.0339 34.0038 86.8157 33.536 87.6528C33.224 88.2322 32.9397 88.8393 32.7287 89.474C32.536 90.0442 32.4534 90.5409 32.3525 91.1112C32.1415 92.3161 31.9948 93.5394 32.0223 94.7628C32.0498 95.2411 32.0681 95.7194 32.1507 96.1884C32.1966 96.4276 32.2149 96.6667 32.2791 96.8967L32.4259 97.513C32.4626 97.5681 32.4259 97.7613 32.6094 97.5773L32.8204 97.421L32.8754 97.3842L33.0131 97.2646L33.2883 97.0255L33.9121 96.4828C34.1047 96.2896 34.2882 96.0873 34.4625 95.8757C34.8386 95.4618 35.1414 94.9927 35.49 94.542C35.967 93.8798 36.5358 93.1899 36.9578 92.4633C37.2238 92.0586 37.4348 91.6263 37.6458 91.194C37.8752 90.7709 38.0495 90.311 38.2238 89.8695C38.3797 89.5015 38.5082 89.1244 38.6182 88.7473C38.7283 88.3702 38.8659 87.9931 38.9393 87.6068C39.0127 87.2848 39.0861 86.9169 39.1595 86.5582C39.2145 86.1995 39.2788 85.8408 39.3613 85.5372C39.4439 85.2797 39.4714 84.9486 39.4989 84.6634C39.5907 84.0104 39.6182 83.3573 39.6182 82.7043C39.6365 82.1708 39.5815 81.6189 39.5907 81.0762C39.5723 80.5336 39.5356 80.0001 39.5356 79.4942C39.4714 78.6756 39.5907 77.8661 39.9118 78.0041C40.1411 78.1053 40.4071 78.4364 40.6365 79.1079C40.7007 79.2826 40.7374 79.4666 40.7741 79.6597C40.8567 80.0553 40.9209 80.4416 40.9759 80.8371C41.0034 81.2326 41.0401 81.6189 41.0677 82.0236L41.031 82.042Z" fill="#ADB4A4"/>
<path d="M26.6377 77.2037C26.4909 77.0566 26.3533 76.9002 26.1974 76.7254C25.5552 75.9344 24.6195 75.3641 23.7296 74.7387C23.2526 74.4076 22.7297 74.1592 22.2526 73.7913C22.0325 73.6165 21.8398 73.4326 21.6196 73.2486C21.2343 72.9451 20.9041 72.6692 20.4913 72.4116C20.0418 72.1265 19.6748 71.6942 19.3354 71.2895L18.6382 70.48C18.2896 70.0661 17.9318 69.643 17.6474 69.1831C17.3263 68.6405 17.0786 68.0978 16.7667 67.5551C16.6474 67.3527 16.519 67.1596 16.4364 66.9388C16.308 66.6445 16.2805 66.3226 16.1796 66.019C16.1062 65.8075 16.0236 65.6051 15.9411 65.4028C15.7943 65.0349 15.675 64.6393 15.6016 64.253C15.5558 63.9955 15.5191 63.7379 15.5466 63.4988C15.5741 63.2597 15.6658 63.0389 15.8218 62.9561C16.1429 62.7814 16.5832 62.9745 16.7759 63.4436C16.8401 63.5724 16.8584 63.7196 16.8951 63.8575C16.9502 64.0507 17.0511 64.2254 17.1245 64.4186C17.2346 64.7221 17.2896 65.0441 17.3538 65.366C17.4456 65.7247 17.6107 66.0006 17.7667 66.3134C17.9318 66.6813 18.0877 67.0768 18.2712 67.4447C18.3996 67.6931 18.5281 67.9506 18.6932 68.1806C18.8308 68.3921 18.9959 68.5393 19.1611 68.7232C19.5005 69.1187 19.7941 69.551 20.106 69.965C20.6105 70.6088 21.2068 71.1883 21.8398 71.7034C22.0141 71.8505 22.1976 71.9977 22.3994 72.1081C22.6104 72.2276 22.8306 72.3196 23.0416 72.4484C23.3535 72.6232 23.6287 72.9083 23.9314 73.1198L24.9864 73.8557L25.8763 74.4719C26.124 74.6467 26.4542 74.8491 26.6285 75.0882C26.7019 75.1894 26.8212 75.2998 26.9129 75.3917C27.1331 75.6033 27.3441 75.8424 27.5551 76.0724C27.9037 76.4495 28.1789 76.9462 28.2982 77.4245C28.3899 77.8292 28.2523 78.2523 27.9496 78.2707C27.7386 78.2891 27.4909 78.2339 27.3166 78.0407C27.2615 77.9948 27.2157 77.9396 27.1698 77.8844C26.9772 77.6544 26.8212 77.4337 26.6102 77.2129L26.6377 77.2037Z" fill="#ADB4A4"/>
<path d="M17.9312 62.7907C18.1789 62.8643 18.4083 62.9654 18.656 63.0942C19.7109 63.6737 20.7751 64.2439 21.7292 64.9614C22.2246 65.3477 22.7658 65.6788 23.2153 66.1295C23.4263 66.3319 23.5915 66.571 23.7933 66.7826C24.1419 67.1597 24.4355 67.4816 24.8208 67.8128C25.2336 68.1807 25.5547 68.6682 25.8391 69.1373L26.4262 70.0754C26.7197 70.5537 27.0316 71.032 27.2426 71.5563C27.4995 72.1542 27.6646 72.752 27.9032 73.3591C27.9949 73.5799 28.0958 73.8098 28.1509 74.049C28.2334 74.3709 28.2151 74.702 28.2701 75.0331C28.2976 75.2631 28.371 75.4746 28.4261 75.7046C28.5178 76.1093 28.5728 76.5232 28.6004 76.9371C28.6004 77.2039 28.6004 77.4798 28.5453 77.7189C28.4811 77.9581 28.3527 78.1696 28.1967 78.234C27.8573 78.3628 27.4536 78.1052 27.3252 77.581C27.2885 77.4338 27.2885 77.2774 27.2702 77.1303C27.2426 76.9187 27.1601 76.7256 27.1142 76.5232C27.0316 76.1921 27.0408 75.8518 27.0133 75.5206C26.9858 75.1343 26.839 74.8308 26.7381 74.4813C26.6188 74.0766 26.5271 73.6534 26.3895 73.2487C26.2977 72.9728 26.1968 72.6969 26.0684 72.4301C25.9583 72.191 25.8024 72.0162 25.6739 71.7955C25.3712 71.3448 25.151 70.8481 24.885 70.379C24.463 69.6431 23.9309 68.9625 23.3621 68.3278C23.197 68.1531 23.0319 67.9691 22.8484 67.8219C22.6466 67.6748 22.4447 67.5368 22.2429 67.3805C21.9585 67.1597 21.7108 66.847 21.4356 66.5986C21.1145 66.3227 20.7751 66.0651 20.4265 65.826C20.1329 65.6328 19.8486 65.4489 19.5458 65.2833C19.2981 65.1362 18.9587 65.0166 18.7477 64.8234C18.6651 64.7406 18.5275 64.6855 18.4174 64.6211C18.1697 64.4831 17.9129 64.3635 17.6468 64.2532C17.2157 64.0784 16.7753 63.8668 16.4084 63.6093C16.1056 63.4069 15.858 63.039 16.0139 62.7907C16.1332 62.6159 16.3442 62.4688 16.6652 62.4779C16.7478 62.4779 16.8304 62.4963 16.9221 62.5055C17.2799 62.5607 17.601 62.6803 17.9404 62.7907H17.9312Z" fill="#ADB4A4"/>
<path d="M26.7571 80.0275C26.5645 80.1931 26.3718 80.3403 26.1425 80.469C25.1701 81.0761 24.1885 81.6832 23.2161 82.2902C22.7023 82.5938 22.2436 82.9709 21.7482 83.2652C21.5189 83.4032 21.2712 83.5043 21.0419 83.6515C20.6474 83.9091 20.3171 84.1482 20.0144 84.4885C19.6841 84.8564 19.2621 85.16 18.9044 85.4911C18.6658 85.7119 18.4457 85.951 18.2347 86.1993C17.9228 86.5765 17.6659 87.0088 17.4182 87.4135C17.1246 87.8734 16.8403 88.3425 16.7118 88.8851C16.6751 89.0875 16.6384 89.2899 16.5926 89.4922C16.5192 89.7681 16.3907 90.0165 16.3449 90.3016C16.3174 90.4948 16.3265 90.6971 16.3449 90.8903C16.3632 91.2398 16.4183 91.5893 16.4641 91.9297C16.5008 92.1504 16.5375 92.3712 16.5467 92.5919C16.5467 92.8127 16.51 93.0242 16.3816 93.153C16.1339 93.4197 15.6293 93.3645 15.3266 92.8035C15.2348 92.6471 15.2165 92.4723 15.1615 92.2976C15.0972 92.0584 14.9963 91.8285 14.9596 91.5893C14.8771 91.1938 14.9321 90.7983 14.9963 90.412C15.0697 89.9797 15.0514 89.6026 15.1431 89.1979C15.2348 88.7288 15.4275 88.2689 15.6201 87.8366C15.7486 87.533 15.9045 87.2479 16.0513 86.9536C16.1797 86.6868 16.2715 86.4477 16.3999 86.1993C16.6843 85.6659 17.1063 85.2152 17.5283 84.8013C18.1888 84.1574 18.8952 83.5503 19.6199 83.0077C19.8217 82.8513 20.0419 82.7133 20.2254 82.5386C20.418 82.3638 20.6107 82.1798 20.8217 82.0143C21.1244 81.7843 21.5097 81.6188 21.84 81.4348C22.2253 81.2141 22.5922 80.9933 22.9684 80.7634L23.8582 80.1839C24.1059 80.0183 24.3811 79.7792 24.6472 79.6872C24.7573 79.6504 24.8857 79.5676 24.9866 79.5032C25.2343 79.3561 25.4728 79.1905 25.7022 79.0158C26.0783 78.7398 26.4911 78.4823 26.9039 78.3075C27.2434 78.1695 27.6745 78.1603 27.7938 78.4363C27.8763 78.6294 27.8763 78.8962 27.702 79.1537C27.6562 79.2181 27.6011 79.2825 27.5461 79.3469C27.3076 79.6136 27.0415 79.816 26.7755 80.0367L26.7571 80.0275Z" fill="#ADB4A4"/>
<path d="M28.6282 80.4048C28.6191 80.6623 28.5915 80.929 28.509 81.1958C28.1604 82.3547 27.6558 83.4217 26.9953 84.3415C26.6559 84.8198 26.3348 85.344 25.9495 85.758C25.766 85.9511 25.5642 86.1167 25.3899 86.3098C25.078 86.6502 24.8119 86.9445 24.5642 87.3308C24.2982 87.7539 23.9037 88.1034 23.5459 88.4438L22.8396 89.152C22.4818 89.5199 22.1423 89.9062 21.757 90.2374C21.3075 90.6237 20.8305 90.9364 20.3993 91.3503C20.2342 91.4975 20.0874 91.6722 19.8948 91.7918C19.6379 91.9666 19.3627 92.0769 19.0966 92.2333C18.9132 92.3437 18.7572 92.4817 18.5921 92.6104C18.2893 92.8404 17.9683 93.0519 17.6197 93.2175C17.3995 93.3279 17.1701 93.4382 16.9408 93.475C16.7115 93.5118 16.4821 93.4842 16.3537 93.3647C16.0968 93.1163 16.1335 92.638 16.5188 92.3161C16.6289 92.2241 16.7573 92.1597 16.8766 92.0861C17.0417 91.9758 17.1793 91.8378 17.3353 91.709C17.583 91.5159 17.8857 91.3963 18.1701 91.2399C18.4912 91.0744 18.7022 90.8352 18.9774 90.6237C19.2893 90.3753 19.6379 90.1546 19.959 89.897C20.1792 89.7223 20.3993 89.5567 20.6011 89.3544C20.7846 89.1796 20.9039 88.9956 21.0598 88.8117C21.3993 88.4162 21.7937 88.085 22.179 87.7263C22.7753 87.1836 23.3349 86.5674 23.8762 85.9511C24.0322 85.7764 24.1881 85.6108 24.3074 85.4084C24.4358 85.2061 24.5551 84.9945 24.6927 84.8014C24.8945 84.5162 25.1972 84.2771 25.4082 84.0195C25.6651 83.7252 25.8853 83.4033 26.0871 83.0722C26.2522 82.8054 26.399 82.5295 26.5274 82.2443C26.6375 82.0052 26.7109 81.7017 26.8485 81.4993C26.9127 81.4165 26.9494 81.297 26.9861 81.1958C27.0687 80.9658 27.1237 80.7267 27.1512 80.4875C27.1971 80.1012 27.243 79.7057 27.3072 79.3286C27.3714 79.0251 27.5365 78.6479 27.8393 78.6479C28.0411 78.6479 28.2888 78.7583 28.4356 79.0527C28.4723 79.1262 28.4998 79.2182 28.5181 79.301C28.6282 79.6597 28.6191 80.0184 28.6191 80.3864L28.6282 80.4048Z" fill="#ADB4A4"/>
<path d="M17.0783 75.815C16.9591 75.6126 16.8306 75.4102 16.7206 75.1803C16.1976 74.1777 15.3812 73.3407 14.528 72.5865C14.0785 72.1818 13.5464 71.8874 13.0602 71.5287C12.8217 71.3724 12.629 71.1792 12.3813 71.032C11.9594 70.7745 11.5832 70.5721 11.1154 70.4434C10.6108 70.3054 10.1062 70.057 9.62003 69.8639C9.28977 69.7443 8.94117 69.6247 8.60174 69.542C8.07883 69.3948 7.5284 69.3212 6.99632 69.1924C6.38168 69.0545 5.79455 68.8705 5.14321 68.8337C4.9047 68.8153 4.66618 68.8153 4.42766 68.7785C4.0974 68.7233 3.79466 68.6038 3.47358 68.5486C3.24424 68.5118 3.01489 68.5118 2.78555 68.5026C2.37272 68.4934 1.95073 68.4566 1.54708 68.4106C1.28104 68.3738 1.015 68.337 0.776483 68.2451C0.537964 68.1531 0.33614 68.0151 0.281097 67.8403C0.171012 67.4908 0.473747 67.1045 1.07004 67.0401C1.23517 67.0217 1.40948 67.0401 1.5746 67.0493C1.81312 67.0493 2.04247 67.0217 2.27181 67.0217C2.64794 67.0217 3.02407 67.1137 3.39102 67.1873C3.81301 67.2701 4.17996 67.2517 4.59279 67.2977C5.06065 67.3529 5.54686 67.454 6.01473 67.546L6.98715 67.73C7.28071 67.776 7.53758 67.776 7.83114 67.8128C8.44578 67.8955 9.03291 68.0887 9.62003 68.3094C10.5282 68.6406 11.4456 68.9901 12.3263 69.4316C12.574 69.5512 12.8125 69.6983 13.0694 69.7995C13.3354 69.9007 13.5923 70.0203 13.8583 70.1582C14.2253 70.3606 14.5555 70.6825 14.8858 70.9584C15.2619 71.2712 15.638 71.5839 15.9958 71.9242C16.2894 72.191 16.5738 72.4853 16.849 72.7796C17.0783 73.028 17.3902 73.3223 17.5187 73.6258C17.5829 73.7546 17.6746 73.8926 17.748 74.0122C17.9315 74.2973 18.0966 74.5916 18.2709 74.886C18.5461 75.3643 18.7296 75.9345 18.7755 76.4496C18.7938 76.8911 18.6287 77.305 18.3168 77.2774C18.1058 77.259 17.8673 77.1487 17.7022 76.9003C17.6655 76.8359 17.6196 76.7623 17.5829 76.698C17.4178 76.4036 17.2893 76.1093 17.115 75.8242L17.0783 75.815Z" fill="#ADB4A4"/>
<path d="M16.3262 77.5257C16.0693 77.5901 15.8033 77.6084 15.5189 77.6176C14.2804 77.636 13.0144 77.6636 11.7851 77.4797C11.143 77.3693 10.4824 77.3233 9.84946 77.1302C9.55589 77.0382 9.28985 76.9002 8.99629 76.8082C8.50091 76.6243 8.06974 76.4587 7.56518 76.3207C7.02392 76.1736 6.48267 75.8608 6.00563 75.5389C5.67537 75.3366 5.35429 75.1158 5.03321 74.9043C4.547 74.5731 4.06079 74.2328 3.63879 73.8189C3.16175 73.3406 2.7581 72.8255 2.29941 72.3288C2.12511 72.1541 1.95081 71.9609 1.80403 71.7586C1.60221 71.4734 1.49212 71.1515 1.31782 70.8572C1.19856 70.6548 1.05178 70.4708 0.91417 70.2777C0.666477 69.9282 0.45548 69.5602 0.272004 69.1739C0.161918 68.9256 0.0518325 68.668 0.0151372 68.4197C-0.021558 68.1622 0.00596344 67.923 0.125223 67.7942C0.382089 67.5275 0.859127 67.6103 1.19856 68.061C1.29947 68.1806 1.36369 68.3369 1.43708 68.4749C1.54716 68.6681 1.70312 68.8244 1.82238 69.0084C2.0242 69.2935 2.15263 69.6338 2.31776 69.9466C2.49206 70.3053 2.74893 70.5536 2.97828 70.848C3.24432 71.1975 3.50118 71.5654 3.78557 71.9057C3.97822 72.1357 4.18004 72.3656 4.40939 72.568C4.61121 72.7519 4.82221 72.8623 5.03321 73.0187C5.50107 73.3222 5.90472 73.7085 6.36341 74.0213C7.06062 74.5271 7.86791 74.9135 8.69356 75.2354C8.9229 75.3274 9.16142 75.4101 9.39994 75.4653C9.65681 75.5113 9.9045 75.5389 10.1614 75.5941C10.5283 75.6585 10.9044 75.824 11.2714 75.916C11.6934 76.0172 12.1246 76.0816 12.5649 76.1184C12.9227 76.146 13.2805 76.1736 13.6382 76.1644C13.941 76.1644 14.3079 76.1092 14.5831 76.1736C14.7024 76.2012 14.8492 76.1828 14.9776 76.1828C15.2712 76.1828 15.5647 76.1552 15.8583 76.1184C16.3353 76.054 16.8491 76.0172 17.3169 76.0632C17.7022 76.0908 18.1059 76.2839 18.0784 76.5875C18.06 76.799 17.9316 77.029 17.638 77.1761C17.5646 77.2129 17.4821 77.2497 17.3903 77.2773C17.0417 77.4061 16.6931 77.4613 16.3262 77.5349V77.5257Z" fill="#ADB4A4"/>
<path d="M13.354 77.7096C13.1797 77.7832 13.0054 77.8384 12.8127 77.8844C11.9596 78.0867 11.1523 78.4547 10.345 78.795C9.91382 78.9606 9.5377 79.2457 9.1157 79.4204C8.92305 79.5124 8.71205 79.5584 8.5194 79.6504C8.17997 79.8068 7.89559 79.9723 7.62037 80.2207C7.31764 80.4782 6.94151 80.6714 6.59291 80.8645C6.36356 81.0025 6.14339 81.1589 5.92322 81.3152C5.58379 81.5452 5.2994 81.8487 4.95997 82.0695C4.58384 82.3546 4.18019 82.5661 3.85911 82.9249C3.73985 83.0536 3.62977 83.1916 3.48299 83.302C3.29034 83.4491 3.07016 83.5503 2.87751 83.7067C2.74908 83.8171 2.639 83.9366 2.52891 84.0746C2.33626 84.3138 2.12526 84.5253 1.89592 84.7369C1.75831 84.8748 1.60236 85.0036 1.42805 85.0864C1.25375 85.1692 1.05193 85.1968 0.895973 85.1232C0.565716 84.976 0.400587 84.5621 0.620758 84.1574C0.684975 84.047 0.776713 83.955 0.859277 83.8539C0.969363 83.7159 1.05193 83.5595 1.16201 83.4124C1.34549 83.1916 1.57483 83.0168 1.81335 82.8513C2.07939 82.6673 2.23535 82.419 2.45552 82.2074C2.72156 81.9683 3.01512 81.7475 3.29951 81.536C3.50133 81.3888 3.69398 81.2416 3.87746 81.0761C4.04259 80.9289 4.16185 80.7725 4.3178 80.6254C4.63889 80.3035 5.05171 80.0735 5.43701 79.8344C6.05165 79.4756 6.67547 79.0985 7.28094 78.7398C7.45524 78.6386 7.63872 78.5466 7.79467 78.4271C7.9598 78.2983 8.12493 78.1603 8.29923 78.05C8.5561 77.8844 8.88636 77.8108 9.17074 77.6912L10.1523 77.2773L10.9596 76.9278C11.1798 76.8266 11.4458 76.6703 11.6844 76.6703C11.7853 76.6703 11.9045 76.6243 11.9963 76.5967L12.6843 76.3851C13.0513 76.2564 13.4733 76.192 13.8586 76.238C14.1796 76.2748 14.4916 76.4863 14.4824 76.7806C14.4824 76.9922 14.3906 77.2129 14.198 77.3509C14.1429 77.3877 14.0879 77.4153 14.0329 77.4429C13.7943 77.5533 13.5558 77.6177 13.3173 77.728L13.354 77.7096Z" fill="#ADB4A4"/>
<path d="M16.7668 78.7124C16.5925 78.8412 16.4274 78.9792 16.2256 79.1079C15.3449 79.6598 14.6202 80.4784 13.822 81.2327C13.4092 81.6282 13.0423 82.0973 12.6019 82.4928C12.3909 82.6767 12.1616 82.8147 11.9506 82.9987C11.5745 83.3114 11.2442 83.5689 10.9139 83.9277C10.5378 84.3048 10.0424 84.5899 9.55622 84.8291C9.23514 84.9946 8.90488 85.151 8.57462 85.3073C8.07007 85.5281 7.55633 85.7488 7.01508 85.8684C6.39126 85.9972 5.77661 86.0248 5.15279 86.1168C4.91428 86.1444 4.67576 86.1904 4.43724 86.1812C4.10698 86.1628 3.80424 86.0708 3.48316 86.0156C3.26299 85.988 3.04282 85.9696 2.81347 85.9604C2.40983 85.9236 2.00618 85.8316 1.62088 85.7121C1.37319 85.6293 1.12549 85.5189 0.932844 85.3717C0.740194 85.2154 0.602587 85.0222 0.611761 84.8474C0.639282 84.4795 1.02458 84.2128 1.51997 84.2772C1.65757 84.2864 1.78601 84.3508 1.92362 84.3784C2.11626 84.4151 2.30891 84.4151 2.50156 84.4335C2.81347 84.4703 3.10704 84.5715 3.40977 84.6543C3.75838 84.7279 4.07029 84.6911 4.40972 84.6819C4.80419 84.6819 5.20784 84.6819 5.60231 84.6543C5.87753 84.6267 6.14357 84.5991 6.40961 84.5255C6.64812 84.4703 6.8316 84.3508 7.05177 84.268C7.51046 84.0656 7.99667 83.9277 8.45536 83.7253C9.17092 83.4218 9.84978 82.9527 10.4736 82.4376C10.6571 82.2904 10.8314 82.1433 10.9782 81.9685C11.1341 81.7845 11.2717 81.5914 11.446 81.4074C11.6845 81.1407 12.0148 80.9291 12.2808 80.6808C12.5928 80.3956 12.8955 80.1013 13.1982 79.7978L13.9505 79.0528C14.1615 78.8412 14.4 78.5561 14.666 78.4273C14.7761 78.3721 14.8954 78.2709 14.9963 78.1973L15.721 77.6547C16.1247 77.3603 16.6109 77.1304 17.0787 77.0384C17.4732 76.974 17.8769 77.1028 17.9044 77.4063C17.9227 77.6179 17.8585 77.8662 17.6567 78.0502L17.4916 78.1881C17.253 78.3905 16.9962 78.5193 16.7668 78.7216V78.7124Z" fill="#ADB4A4"/>
<path d="M101.55 29.9173C101.963 29.531 102.376 29.1538 102.844 28.7675C104.963 27.1763 107.082 25.5023 109.412 24.187C110.605 23.4419 111.834 22.7797 113.073 22.1266C113.678 21.8783 114.256 21.6391 114.862 21.3908C115.889 20.9125 116.816 20.5906 117.825 20.1123C118.898 19.5696 120.164 19.2845 121.311 18.9073L123.678 18.2727C124.87 17.9232 126.1 17.6932 127.311 17.4449C128.017 17.3345 128.714 17.2701 129.411 17.1781C129.76 17.1321 130.109 17.0862 130.457 17.0402C130.806 17.0034 131.164 16.9666 131.521 16.9298C132.053 16.8654 132.585 16.7918 133.127 16.755C133.87 16.709 134.567 16.8102 135.31 16.7918C135.815 16.7918 136.328 16.7366 136.833 16.7458C137.75 16.7458 138.677 16.7734 139.585 16.8378C140.172 16.9114 140.769 16.985 141.291 17.1137C141.814 17.2333 142.255 17.4081 142.365 17.592C142.603 17.96 141.934 18.3003 140.686 18.2911C140.337 18.2911 139.98 18.2451 139.622 18.2175C139.126 18.1899 138.64 18.2451 138.145 18.2359C137.347 18.2451 136.558 18.1255 135.769 18.1347C134.879 18.1255 134.099 18.1807 133.237 18.2451C132.246 18.3463 131.219 18.3647 130.228 18.475C129.549 18.567 128.861 18.6498 128.182 18.7602C127.567 18.843 127.072 19.0361 126.485 19.1741C125.87 19.3396 125.237 19.45 124.613 19.5972C123.99 19.7444 123.366 19.9007 122.751 20.0479C120.825 20.5354 118.898 21.1976 117.045 21.9519C116.513 22.145 115.99 22.375 115.504 22.6417C114.99 22.9176 114.486 23.1936 113.963 23.4511C113.22 23.8558 112.376 24.2238 111.605 24.6101C110.724 25.0608 109.889 25.6034 109.036 26.1093C108.339 26.5232 107.697 27.0291 107.018 27.489C106.449 27.8661 105.816 28.418 105.275 28.7675C105.037 28.9147 104.771 29.1263 104.541 29.301C103.991 29.6873 103.486 30.138 102.991 30.5887C102.587 30.9566 102.156 31.3154 101.716 31.6649C101.294 32.0236 100.881 32.3823 100.468 32.6951C99.7891 33.2101 99.0461 33.5505 98.991 33.2009C98.9543 32.9526 99.0919 32.5479 99.5231 32.0052C99.6423 31.8672 99.7616 31.7293 99.8809 31.5821C100.147 31.2878 100.413 31.0026 100.679 30.7267C100.963 30.4692 101.248 30.2024 101.532 29.9357L101.55 29.9173Z" fill="#ADB4A4"/>
<path d="M121.219 21.0321C121.43 21.1241 121.623 21.2344 121.834 21.354C122.76 21.9151 123.861 22.2554 124.925 22.7337C125.485 22.9912 126.081 23.1844 126.622 23.5339C126.879 23.6903 127.09 23.8742 127.329 24.0582C127.751 24.3525 128.09 24.6285 128.53 24.8768C129.007 25.162 129.393 25.6035 129.76 25.999C129.998 26.2841 130.255 26.5417 130.484 26.836C130.851 27.2591 131.218 27.6914 131.512 28.1697C131.842 28.7216 132.099 29.2918 132.411 29.8621C132.53 30.0737 132.668 30.276 132.741 30.506C132.851 30.8279 132.897 31.1406 132.98 31.4625C133.035 31.6833 133.136 31.8949 133.209 32.1064C133.338 32.5019 133.457 32.8974 133.503 33.3113C133.539 33.5781 133.567 33.8448 133.521 34.0932C133.475 34.3415 133.374 34.5531 133.218 34.6358C132.888 34.7922 132.457 34.5715 132.292 34.0748C132.246 33.9368 132.218 33.7896 132.191 33.6425C132.136 33.4401 132.062 33.2561 131.98 33.063C131.87 32.7503 131.851 32.4191 131.769 32.088C131.705 31.7109 131.521 31.435 131.384 31.1038C131.209 30.7267 131.072 30.3128 130.879 29.9449C130.751 29.6873 130.622 29.4206 130.457 29.1907C130.31 28.9699 130.145 28.8135 129.98 28.6296C129.631 28.2249 129.329 27.7834 128.989 27.3695C128.466 26.7164 127.833 26.1369 127.164 25.6403C126.98 25.4931 126.787 25.3551 126.576 25.2539C126.356 25.1436 126.136 25.0516 125.907 24.9596C125.595 24.8032 125.292 24.5549 124.962 24.3893C124.595 24.1962 124.2 24.0214 123.806 23.8559L122.806 23.4603C122.522 23.35 122.155 23.2488 121.916 23.074C121.815 23.0004 121.668 22.9361 121.558 22.8717L120.733 22.4486C120.283 22.2186 119.834 21.8783 119.531 21.4736C119.274 21.1425 119.219 20.701 119.476 20.5538C119.659 20.4434 119.907 20.4066 120.173 20.5078C120.247 20.5354 120.311 20.563 120.375 20.5998C120.659 20.7378 120.907 20.9033 121.191 21.0413L121.219 21.0321Z" fill="#ADB4A4"/>
<path d="M131.411 34.0196C131.219 33.9092 131.044 33.7804 130.861 33.6241C130.026 32.971 128.999 32.5387 127.989 32.0512C127.457 31.7937 126.889 31.6189 126.356 31.3246C126.109 31.1958 125.889 31.0211 125.641 30.8831C125.21 30.6347 124.834 30.414 124.375 30.2208C123.88 29.9909 123.43 29.6046 123.036 29.2183C122.76 28.9699 122.503 28.7124 122.237 28.4456C121.852 28.0409 121.448 27.6362 121.137 27.1671C120.77 26.6336 120.522 26.0634 120.173 25.5115C120.054 25.2999 119.926 25.0976 119.834 24.8676C119.724 24.5457 119.678 24.233 119.595 23.911C119.531 23.6903 119.439 23.4787 119.375 23.2672C119.238 22.8809 119.155 22.467 119.1 22.0623C119.082 21.7955 119.054 21.5288 119.118 21.2804C119.173 21.0321 119.293 20.8297 119.449 20.7562C119.788 20.6182 120.201 20.8573 120.348 21.354C120.394 21.492 120.403 21.6392 120.43 21.7771C120.467 21.9795 120.568 22.1542 120.623 22.3474C120.724 22.6509 120.742 22.9821 120.806 23.304C120.871 23.6719 121.054 23.9386 121.182 24.2698C121.348 24.6377 121.504 25.0332 121.687 25.4011C121.825 25.6495 121.953 25.8978 122.127 26.1277C122.283 26.3301 122.448 26.4773 122.623 26.652C122.981 27.0291 123.311 27.4339 123.659 27.8202C124.219 28.4088 124.889 28.9055 125.604 29.3194C125.815 29.4298 126.017 29.5586 126.237 29.6414C126.476 29.7241 126.705 29.7977 126.944 29.8897C127.283 30.0277 127.604 30.2576 127.944 30.4324C128.329 30.6255 128.723 30.8187 129.118 31.0027L130.099 31.4626C130.375 31.6005 130.742 31.7293 130.953 31.9408C131.044 32.0328 131.182 32.1064 131.292 32.18L132.063 32.7135C132.485 32.9986 132.87 33.4217 133.108 33.854C133.292 34.2311 133.283 34.6634 132.998 34.7646C132.796 34.8382 132.54 34.8474 132.31 34.7002L132.127 34.5807C131.879 34.3967 131.65 34.2219 131.402 34.038L131.411 34.0196Z" fill="#ADB4A4"/>
<path d="M117.614 16.433C117.504 15.9179 117.412 15.3936 117.376 14.8234C117.192 12.3307 117.33 9.77369 117.972 7.34543C118.311 6.07612 118.687 4.7976 119.275 3.60187C119.568 3.05 119.871 2.54411 120.21 2.02902C120.458 1.60592 120.807 1.04485 121.32 0.686126C121.816 0.318208 122.421 0.0974574 123.073 0.0422697C123.779 -0.0129179 124.522 0.207833 125.118 0.649334C125.724 1.08164 126.146 1.78068 126.302 2.47972C126.357 2.71887 126.393 2.94882 126.403 3.13278C126.421 3.32593 126.448 3.51909 126.448 3.71225C126.476 4.09856 126.485 4.49407 126.485 4.88039C126.485 6.06692 126.384 7.27185 126.091 8.42159C125.742 9.7461 125.201 10.9602 124.55 12.1744C124.311 12.6342 124.054 13.0758 123.742 13.4897C123.311 14.0599 122.816 14.4922 122.366 14.9889C122.054 15.3292 121.77 15.688 121.504 16.0467C121.018 16.6905 120.586 17.3344 120.275 18.0242C120.073 18.4657 119.917 18.9256 119.797 19.3395C119.669 19.7535 119.586 20.1398 119.449 20.2869C119.293 20.4341 119.1 20.4065 118.908 20.1398C118.724 19.873 118.587 19.3579 118.669 18.6865C118.715 18.3186 118.843 17.9507 118.972 17.6011C119.155 17.1136 119.348 16.6537 119.605 16.2214C120.018 15.5224 120.568 14.9613 121.082 14.4186C121.669 13.8024 122.091 13.2413 122.54 12.6251C123.054 11.9168 123.54 11.1534 123.917 10.344C124.183 9.79209 124.394 9.21262 124.559 8.62395C124.705 8.09047 124.751 7.62137 124.816 7.08789C124.953 5.96574 125.036 4.8252 124.981 3.69385L124.926 3.0316C124.898 2.86604 124.871 2.69128 124.797 2.54411C124.669 2.24058 124.449 1.96464 124.164 1.78068C123.595 1.39437 122.779 1.35758 122.219 1.71629C121.889 1.92785 121.678 2.18539 121.44 2.68208C121.192 3.14198 120.999 3.62027 120.779 4.09856C120.467 4.78841 120.091 5.52424 119.825 6.26008C119.531 7.09709 119.284 7.9617 119.128 8.8447C118.99 9.56214 118.898 10.298 118.843 11.0246C118.798 11.6409 118.843 12.3951 118.77 12.9746C118.742 13.2229 118.77 13.5264 118.77 13.7932C118.779 14.4003 118.853 15.0073 118.944 15.6052C119.109 16.5802 119.293 17.6195 119.449 18.5301C119.586 19.2752 119.577 20.0386 119.238 19.9558C118.999 19.9006 118.697 19.6339 118.394 19.0452C118.33 18.8888 118.265 18.7233 118.201 18.5577C117.926 17.8587 117.77 17.1688 117.605 16.4422L117.614 16.433Z" fill="#ADB4A4"/>
<path d="M132.476 18.9625C132.641 19.0912 132.806 19.2292 132.971 19.3764C133.714 20.0662 134.723 20.5077 135.687 21.0044C136.2 21.2711 136.76 21.4459 137.283 21.7402C137.531 21.8782 137.742 22.0438 137.98 22.1909C138.402 22.4393 138.769 22.6692 139.209 22.8716C139.696 23.0923 140.118 23.4695 140.512 23.8282L141.31 24.5364C141.705 24.9043 142.127 25.2631 142.466 25.6862C142.851 26.1737 143.173 26.6887 143.558 27.1762C143.705 27.3602 143.861 27.5349 143.971 27.7465C144.136 28.0224 144.209 28.3352 144.347 28.6295C144.448 28.8227 144.558 29.0158 144.668 29.209C144.87 29.5585 145.035 29.9264 145.154 30.3035C145.227 30.5519 145.31 30.8002 145.31 31.0486C145.31 31.2877 145.246 31.5177 145.108 31.6188C144.815 31.8396 144.356 31.7108 144.099 31.2601C144.026 31.1405 143.98 30.9934 143.916 30.8646C143.833 30.6806 143.705 30.5151 143.613 30.3403C143.466 30.0552 143.365 29.7425 143.255 29.4389C143.117 29.0986 142.916 28.8503 142.723 28.5559C142.512 28.2156 142.301 27.8477 142.072 27.5074C141.916 27.2774 141.751 27.0383 141.558 26.8359C141.393 26.6427 141.209 26.5232 141.017 26.3576C140.622 26.0173 140.283 25.6218 139.907 25.2539C139.329 24.6836 138.65 24.1869 137.953 23.7638C137.76 23.6442 137.558 23.5154 137.338 23.4419C137.118 23.3591 136.879 23.2855 136.65 23.1935C136.32 23.0556 136.008 22.8164 135.678 22.6508L134.531 22.0714L133.568 21.5839C133.302 21.4459 132.944 21.2895 132.733 21.078C132.641 20.986 132.513 20.894 132.412 20.8205C132.164 20.6365 131.925 20.4341 131.678 20.241C131.283 19.9191 130.935 19.4592 130.76 18.9993C130.623 18.6037 130.696 18.1806 130.99 18.1163C131.201 18.0703 131.448 18.0887 131.65 18.2634C131.705 18.3002 131.76 18.3462 131.815 18.4014C132.036 18.6037 132.228 18.8061 132.458 18.9901L132.476 18.9625Z" fill="#ADB4A4"/>
<path d="M143.044 32.0603C142.787 32.0235 142.548 31.9499 142.291 31.858C141.172 31.4257 140.035 31.0118 138.989 30.4231C138.447 30.1012 137.87 29.8528 137.365 29.4665C137.126 29.2917 136.934 29.0802 136.704 28.8962C136.31 28.5743 135.98 28.2892 135.549 28.0132C135.09 27.7097 134.705 27.2682 134.356 26.8451L133.65 25.9989C133.301 25.5666 132.925 25.1343 132.64 24.6468C132.31 24.0857 132.063 23.5154 131.741 22.9544C131.613 22.7428 131.494 22.5313 131.402 22.3105C131.274 21.9978 131.246 21.6666 131.145 21.3539C131.081 21.1332 130.98 20.9308 130.907 20.7101C130.76 20.3237 130.65 19.919 130.567 19.5143C130.53 19.2476 130.485 18.9808 130.521 18.7325C130.558 18.4842 130.65 18.2634 130.806 18.1714C131.127 17.9967 131.558 18.199 131.76 18.6957C131.815 18.8337 131.842 18.99 131.879 19.1372C131.934 19.3396 132.044 19.5235 132.108 19.7167C132.228 20.0294 132.264 20.3697 132.347 20.7009C132.429 21.078 132.613 21.3631 132.76 21.6942C132.934 22.0806 133.081 22.4853 133.273 22.8716C133.402 23.1383 133.539 23.3959 133.695 23.6442C133.842 23.865 134.017 24.0213 134.172 24.2145C134.53 24.6192 134.815 25.0883 135.154 25.5114C135.668 26.1828 136.292 26.7899 136.943 27.3326C137.126 27.4889 137.319 27.6453 137.521 27.7649C137.741 27.8845 137.961 27.9948 138.181 28.1236C138.493 28.3076 138.778 28.5835 139.09 28.7859C139.447 29.0158 139.814 29.2274 140.191 29.4113C140.502 29.5585 140.814 29.7056 141.145 29.8344C141.411 29.9448 141.768 30.0184 141.998 30.1839C142.099 30.2575 142.236 30.2943 142.346 30.3403C142.612 30.4507 142.888 30.5243 143.163 30.5978C143.612 30.7082 144.08 30.8646 144.484 31.0669C144.814 31.2233 145.108 31.5544 144.979 31.8212C144.887 32.0143 144.695 32.1799 144.374 32.2167C144.291 32.2259 144.209 32.2167 144.117 32.2167C143.75 32.2167 143.42 32.1339 143.062 32.0695L143.044 32.0603Z" fill="#ADB4A4"/>
<path d="M131.98 16.1755C132.146 15.9915 132.32 15.8168 132.531 15.6512C133.412 14.9246 134.301 14.1795 135.191 13.4529C135.659 13.085 136.063 12.6527 136.512 12.2848C136.723 12.11 136.953 11.9812 137.155 11.7973C137.512 11.4845 137.806 11.2086 138.063 10.8315C138.338 10.4176 138.714 10.0681 139.026 9.69093C139.237 9.44259 139.42 9.17585 139.595 8.89991C139.852 8.47681 140.044 8.01691 140.237 7.5938C140.466 7.09712 140.686 6.59123 140.741 6.03935C140.751 5.8278 140.76 5.62545 140.778 5.42309C140.815 5.14715 140.907 4.87121 140.907 4.58608C140.907 4.39292 140.87 4.19057 140.824 4.00661C140.751 3.65709 140.65 3.32596 140.567 2.99483C140.503 2.78328 140.43 2.56253 140.402 2.35098C140.375 2.13943 140.375 1.91868 140.485 1.77151C140.686 1.47717 141.2 1.45878 141.576 1.97386C141.686 2.11183 141.732 2.28659 141.815 2.45216C141.907 2.6821 142.044 2.89366 142.118 3.12361C142.246 3.50072 142.246 3.90543 142.246 4.29174C142.237 4.72405 142.292 5.10116 142.264 5.51507C142.237 5.99336 142.108 6.48085 141.98 6.93155C141.888 7.24428 141.778 7.55701 141.668 7.86054C141.576 8.13648 141.521 8.39403 141.42 8.66077C141.209 9.23104 140.852 9.72773 140.494 10.1968C139.925 10.9235 139.31 11.6225 138.668 12.2572C138.485 12.4411 138.292 12.6067 138.136 12.7998C137.971 13.0022 137.806 13.2045 137.622 13.3977C137.356 13.6736 136.989 13.8852 136.687 14.1151C136.338 14.3819 135.999 14.6578 135.668 14.9338L134.861 15.6236C134.641 15.8168 134.393 16.0927 134.146 16.2215C134.035 16.2767 133.925 16.3778 133.834 16.4514C133.613 16.6354 133.393 16.8285 133.191 17.0309C132.861 17.362 132.476 17.6747 132.091 17.8955C131.769 18.0795 131.347 18.1438 131.192 17.8955C131.081 17.7115 131.045 17.454 131.192 17.1781C131.228 17.1045 131.274 17.0309 131.32 16.9665C131.522 16.6722 131.751 16.433 131.99 16.1755H131.98Z" fill="#ADB4A4"/>
<path d="M130.072 16.065C130.044 15.8075 130.035 15.5408 130.081 15.2648C130.274 14.0691 130.622 12.9469 131.154 11.9444C131.429 11.4201 131.677 10.859 131.998 10.3991C132.145 10.1784 132.329 9.9944 132.484 9.77365C132.751 9.39653 132.98 9.06541 133.163 8.6423C133.365 8.1916 133.714 7.78689 134.016 7.40058L134.622 6.60036C134.925 6.18645 135.209 5.75415 135.549 5.37703C135.943 4.93553 136.365 4.55842 136.741 4.08932C136.879 3.91456 137.007 3.7306 137.181 3.58343C137.411 3.38108 137.677 3.23391 137.915 3.04076C138.08 2.91198 138.218 2.74642 138.365 2.59925C138.64 2.33251 138.924 2.07497 139.246 1.86342C139.447 1.71625 139.658 1.58748 139.888 1.5231C140.108 1.44951 140.337 1.44951 140.484 1.55069C140.778 1.76224 140.805 2.24054 140.466 2.61765C140.374 2.71883 140.255 2.80161 140.145 2.89359C139.998 3.03156 139.879 3.17872 139.741 3.32589C139.521 3.55584 139.236 3.71221 138.98 3.90536C138.686 4.11691 138.502 4.37446 138.264 4.6228C137.989 4.91714 137.668 5.18388 137.392 5.46901C137.2 5.67137 137.007 5.86452 136.833 6.09447C136.677 6.28763 136.585 6.48998 136.457 6.70154C136.182 7.13384 135.824 7.52015 135.493 7.92486C134.98 8.55032 134.503 9.23097 134.053 9.91162C133.925 10.1048 133.787 10.2979 133.695 10.5095C133.595 10.7302 133.503 10.951 133.393 11.1625C133.228 11.4753 132.971 11.7512 132.787 12.0363C132.576 12.3675 132.402 12.717 132.237 13.0665C132.108 13.3608 131.998 13.646 131.907 13.9495C131.833 14.1979 131.796 14.5106 131.686 14.7313C131.64 14.8233 131.613 14.9521 131.595 15.0533C131.54 15.2924 131.521 15.5408 131.53 15.7799C131.53 16.1662 131.54 16.5709 131.53 16.948C131.512 17.2608 131.393 17.6471 131.099 17.7023C130.897 17.7299 130.641 17.6563 130.457 17.3803C130.411 17.3068 130.375 17.224 130.338 17.1504C130.182 16.8101 130.136 16.4514 130.09 16.0834L130.072 16.065Z" fill="#ADB4A4"/>
<path d="M142.145 19.0451C142.291 19.2383 142.447 19.4131 142.585 19.6246C143.236 20.5444 144.163 21.271 145.108 21.9057C145.603 22.246 146.181 22.4576 146.704 22.7519C146.961 22.8715 147.181 23.0462 147.447 23.1474C147.897 23.3406 148.3 23.4969 148.787 23.5521C149.3 23.6257 149.832 23.8005 150.346 23.92C150.695 23.9936 151.043 24.058 151.401 24.104C151.942 24.1776 152.493 24.1776 153.043 24.2328C153.676 24.288 154.282 24.3891 154.924 24.3432C155.162 24.334 155.401 24.2972 155.639 24.3064C155.97 24.3064 156.291 24.3983 156.621 24.3983C156.85 24.3983 157.08 24.3707 157.309 24.3432C157.722 24.2972 158.135 24.2696 158.557 24.2696C158.823 24.2696 159.098 24.2696 159.346 24.334C159.593 24.3891 159.813 24.5087 159.887 24.6651C160.043 24.9962 159.795 25.4193 159.217 25.5665C159.061 25.6033 158.887 25.6033 158.713 25.6217C158.483 25.6493 158.254 25.7136 158.025 25.7504C157.648 25.7964 157.272 25.7596 156.896 25.7412C156.474 25.7136 156.107 25.7872 155.694 25.7964C155.217 25.8056 154.731 25.7688 154.254 25.7412L153.263 25.686C152.97 25.686 152.713 25.7136 152.419 25.7228C151.805 25.7228 151.19 25.6125 150.585 25.4745C149.64 25.2721 148.686 25.0422 147.759 24.7295C147.493 24.6467 147.236 24.5363 146.979 24.4719C146.695 24.4075 146.429 24.3248 146.154 24.2236C145.759 24.0672 145.392 23.8005 145.025 23.5705C144.612 23.313 144.2 23.0462 143.796 22.7611C143.466 22.5312 143.145 22.2828 142.833 22.0253C142.567 21.8137 142.227 21.5562 142.053 21.2802C141.98 21.1607 141.86 21.0411 141.769 20.9215C141.548 20.664 141.347 20.3972 141.136 20.1305C140.796 19.6982 140.539 19.1555 140.42 18.6496C140.337 18.2173 140.448 17.7758 140.759 17.7666C140.97 17.7574 141.227 17.831 141.42 18.061L141.567 18.2449C141.769 18.5117 141.934 18.7876 142.145 19.0451Z" fill="#ADB4A4"/>
<path d="M142.658 17.2424C142.906 17.1504 143.162 17.086 143.438 17.04C144.667 16.8469 145.905 16.6537 147.162 16.6721C147.814 16.6905 148.474 16.6445 149.125 16.7549C149.428 16.8009 149.713 16.9021 150.006 16.9573C150.529 17.0676 150.969 17.178 151.492 17.2424C152.052 17.316 152.63 17.5551 153.144 17.8035C153.501 17.9598 153.841 18.1346 154.189 18.3002C154.712 18.5669 155.244 18.8336 155.721 19.1832C156.263 19.5971 156.721 20.0478 157.244 20.4709C157.446 20.6272 157.639 20.7836 157.813 20.9676C158.052 21.2251 158.208 21.5194 158.419 21.7954C158.565 21.9793 158.74 22.1449 158.896 22.3197C159.189 22.6324 159.446 22.9727 159.675 23.3314C159.822 23.5614 159.96 23.8005 160.033 24.0489C160.107 24.2972 160.116 24.5456 160.006 24.6835C159.785 24.9779 159.299 24.9595 158.905 24.5639C158.795 24.4536 158.712 24.3156 158.611 24.1868C158.474 24.0121 158.299 23.8741 158.152 23.7085C157.914 23.451 157.74 23.1383 157.538 22.8439C157.318 22.5128 157.033 22.3013 156.767 22.0345C156.455 21.731 156.153 21.3907 155.832 21.0963C155.611 20.894 155.373 20.6916 155.125 20.5261C154.905 20.3697 154.676 20.2961 154.446 20.1673C153.942 19.9282 153.492 19.6063 152.997 19.3487C152.235 18.944 151.382 18.6681 150.529 18.4657C150.291 18.4013 150.043 18.3553 149.795 18.3369C149.538 18.3277 149.281 18.3369 149.025 18.3185C148.658 18.3002 148.263 18.1898 147.878 18.153C147.447 18.1162 147.006 18.107 146.575 18.1254C146.217 18.1438 145.86 18.1714 145.502 18.2174C145.199 18.2542 144.85 18.3645 144.557 18.3369C144.428 18.3277 144.291 18.3645 144.162 18.3829C143.869 18.4197 143.584 18.4933 143.291 18.5669C142.823 18.6957 142.328 18.7968 141.86 18.8244C141.475 18.852 141.053 18.7049 141.034 18.4105C141.034 18.199 141.117 17.9506 141.392 17.7667C141.465 17.7207 141.539 17.6747 141.621 17.6379C141.952 17.4631 142.291 17.362 142.64 17.2424H142.658Z" fill="#ADB4A4"/>
<path d="M145.576 16.6628C145.732 16.5709 145.897 16.4881 146.089 16.4237C146.906 16.111 147.658 15.6419 148.41 15.1912C148.814 14.9704 149.144 14.6393 149.548 14.4093C149.731 14.2898 149.924 14.2162 150.108 14.0966C150.429 13.8943 150.676 13.7011 150.924 13.416C151.19 13.1124 151.53 12.8733 151.851 12.6341C152.062 12.4686 152.254 12.2846 152.456 12.1007C152.759 11.8247 153.007 11.4936 153.309 11.2176C153.64 10.8865 154.016 10.6198 154.282 10.2243C154.383 10.0771 154.474 9.92994 154.603 9.80117C154.768 9.62641 154.979 9.49764 155.144 9.31368C155.254 9.18491 155.355 9.04694 155.438 8.89977C155.594 8.64223 155.777 8.39388 155.97 8.16393C156.089 8.00757 156.227 7.8604 156.382 7.75003C156.548 7.64885 156.74 7.58446 156.905 7.63965C157.254 7.74083 157.474 8.13634 157.309 8.55945C157.263 8.67902 157.181 8.7802 157.116 8.89057C157.025 9.04694 156.96 9.2125 156.869 9.36886C156.722 9.61721 156.511 9.81956 156.3 10.0127C156.061 10.2335 155.942 10.491 155.749 10.7302C155.52 11.0061 155.254 11.2636 155.006 11.512C154.832 11.6867 154.658 11.8523 154.493 12.0455C154.355 12.211 154.254 12.3766 154.117 12.5514C153.841 12.9193 153.465 13.2044 153.107 13.4803C152.548 13.9218 151.979 14.3725 151.429 14.814C151.273 14.9428 151.098 15.0532 150.961 15.1912C150.814 15.3383 150.676 15.4947 150.511 15.6327C150.273 15.8258 149.961 15.9454 149.695 16.1018L148.777 16.6444L148.025 17.0951C147.814 17.2239 147.576 17.4171 147.337 17.4539C147.236 17.4722 147.126 17.5274 147.034 17.5734L146.383 17.877C146.034 18.0517 145.631 18.1713 145.245 18.1805C144.924 18.1897 144.585 18.0241 144.557 17.7298C144.539 17.5182 144.585 17.2883 144.768 17.1319C144.814 17.0859 144.869 17.0583 144.924 17.0215C145.145 16.8744 145.374 16.7824 145.594 16.6444L145.576 16.6628Z" fill="#ADB4A4"/>
<path d="M142.062 16.1203C142.218 15.964 142.364 15.8076 142.548 15.6604C143.346 14.989 143.961 14.0876 144.639 13.2322C144.997 12.7815 145.291 12.2664 145.676 11.8249C145.86 11.6133 146.071 11.4478 146.254 11.2362C146.584 10.8775 146.869 10.574 147.153 10.1785C147.474 9.75535 147.933 9.40583 148.373 9.10229C148.667 8.89074 148.979 8.69759 149.281 8.49523C149.749 8.21009 150.235 7.91576 150.749 7.7226C151.355 7.51105 151.951 7.40068 152.566 7.22592C152.795 7.17073 153.024 7.09714 153.263 7.06955C153.593 7.04196 153.905 7.09714 154.235 7.09714C154.455 7.09714 154.685 7.07875 154.905 7.06035C155.309 7.04196 155.721 7.07875 156.116 7.15233C156.373 7.20752 156.63 7.2719 156.841 7.39148C157.052 7.52025 157.217 7.69501 157.226 7.86977C157.253 8.23769 156.896 8.55042 156.409 8.55042C156.272 8.55042 156.134 8.51363 155.997 8.50443C155.804 8.50443 155.611 8.51363 155.419 8.52282C155.107 8.52282 154.804 8.46764 154.483 8.43085C154.125 8.40325 153.822 8.48603 153.492 8.53202C153.107 8.58721 152.703 8.6332 152.318 8.71598C152.052 8.78037 151.786 8.84475 151.529 8.95513C151.3 9.03791 151.135 9.18508 150.924 9.29545C150.502 9.56219 150.034 9.76455 149.602 10.0221C148.933 10.4176 148.327 10.9787 147.777 11.5765C147.621 11.7421 147.465 11.9169 147.337 12.11C147.208 12.3124 147.089 12.5239 146.951 12.7263C146.749 13.0206 146.456 13.2782 146.227 13.5541C145.96 13.876 145.704 14.2072 145.438 14.5475L144.795 15.3937C144.612 15.6328 144.41 15.9456 144.172 16.1111C144.071 16.1847 143.97 16.2951 143.878 16.3871L143.236 17.0217C142.878 17.362 142.429 17.6656 141.97 17.8127C141.585 17.9323 141.163 17.8587 141.108 17.5644C141.062 17.3528 141.089 17.1045 141.264 16.893L141.41 16.7366C141.621 16.5066 141.851 16.3411 142.062 16.1111V16.1203Z" fill="#ADB4A4"/>
<path d="M11.9776 34.1024C11.0786 34.1576 10.4181 34.2495 10.0053 34.4059C9.59245 34.5531 9.30806 34.8474 9.16128 35.2705C9.0145 35.7028 8.93193 36.3927 8.93193 37.3401V56.0487C8.93193 57.0052 9.00532 57.6951 9.16128 58.1274C9.31723 58.5597 9.59245 58.8356 10.0053 58.9736C10.4181 59.1116 11.0786 59.1852 11.9776 59.1852H14.7206C16.271 59.1852 17.4636 58.9644 18.2709 58.5229C19.0873 58.0814 19.6836 57.3732 20.0598 56.389C20.4359 55.4048 20.7111 53.9883 20.8854 52.1303H21.7477C21.6743 52.9122 21.6377 53.9423 21.6377 55.2208C21.6377 56.6557 21.7294 58.2654 21.9037 60.0498C20.1974 59.9762 17.326 59.9394 13.2895 59.9394C8.47324 59.9394 4.84042 59.9762 2.38184 60.0498V59.2955C3.28087 59.2495 3.94138 59.1484 4.3542 58.992C4.76703 58.8356 5.05141 58.5505 5.19819 58.1274C5.34498 57.7043 5.42754 57.0052 5.42754 56.0487V37.3401C5.42754 36.3835 5.35415 35.6936 5.19819 35.2705C5.05141 34.8474 4.76703 34.5531 4.3542 34.4059C3.94138 34.2587 3.28087 34.1576 2.38184 34.1024V33.3481C3.43682 33.4217 5.04224 33.4585 7.19808 33.4585C9.20715 33.4585 10.7942 33.4217 11.9776 33.3481V34.1024Z" fill="#ADB4A4"/>
<path d="M25.5364 59.1299C24.7749 58.3389 24.3896 57.2351 24.3896 55.8278C24.3896 54.6965 24.6924 53.7675 25.307 53.0409C25.9217 52.3142 26.6464 51.7348 27.4904 51.3025C28.3344 50.8794 29.4352 50.4195 30.8205 49.9412C32.2241 49.4629 33.2699 49.0214 33.9396 48.6167C34.6184 48.2119 34.9579 47.6693 34.9579 46.9978V44.6615C34.9579 43.2083 34.6551 42.2057 34.0405 41.663C33.4258 41.1203 32.5635 40.8536 31.4627 40.8536C29.7105 40.8536 28.4628 41.3043 27.7381 42.2149C28.2426 42.3437 28.6555 42.6012 28.9949 43.0059C29.3343 43.4106 29.4995 43.9073 29.4995 44.5144C29.4995 45.1214 29.2976 45.6365 28.894 46.0044C28.4903 46.3724 27.9766 46.5471 27.3528 46.5471C26.6464 46.5471 26.1235 46.3264 25.7749 45.8849C25.4263 45.4434 25.252 44.9099 25.252 44.2844C25.252 43.659 25.3988 43.1807 25.6832 42.776C25.9675 42.3713 26.4079 41.9757 26.9767 41.571C27.5821 41.1479 28.3436 40.7892 29.2701 40.5133C30.1967 40.2373 31.215 40.0994 32.3158 40.0994C34.2698 40.0994 35.7468 40.5685 36.7559 41.4975C37.3798 42.0769 37.8018 42.776 38.0127 43.5946C38.2237 44.4132 38.3338 45.4894 38.3338 46.8231V57.3087C38.3338 57.9342 38.4256 58.3941 38.5999 58.67C38.7742 58.9459 39.0769 59.0839 39.4989 59.0839C39.8016 59.0839 40.086 59.0103 40.3429 58.8724C40.6089 58.7344 40.8842 58.5412 41.1869 58.2837L41.5997 58.9275C40.9484 59.4334 40.3888 59.7922 39.9301 60.0037C39.4622 60.2153 38.8843 60.3256 38.1779 60.3256C36.9761 60.3256 36.1321 60.0221 35.6551 59.4242C35.178 58.8172 34.9395 58.0078 34.9395 56.9684C34.1873 58.2285 33.3249 59.1023 32.3433 59.5898C31.3617 60.0773 30.2609 60.3256 29.0316 60.3256C27.4537 60.3256 26.2795 59.9301 25.518 59.1391L25.5364 59.1299ZM34.9579 55.9474V48.5523C34.7285 48.9018 34.4166 49.1961 34.0221 49.4169C33.6185 49.6468 33.0039 49.9412 32.1782 50.3183C31.2241 50.723 30.4535 51.1001 29.8664 51.468C29.2793 51.8359 28.7656 52.3326 28.3436 52.9581C27.9216 53.5835 27.7014 54.393 27.7014 55.3679C27.7014 56.4993 27.9766 57.3547 28.527 57.9342C29.0775 58.5136 29.8022 58.7988 30.7104 58.7988C32.3617 58.7988 33.7836 57.8422 34.9579 55.929V55.9474Z" fill="#ADB4A4"/>
<path d="M59.8188 55.975C59.8188 57.1339 60.0298 57.9709 60.461 58.5044C60.883 59.0287 61.6261 59.2954 62.681 59.2954V60.0865C61.9013 60.0129 61.1307 59.9761 60.3509 59.9761C58.773 59.9761 57.4703 60.1508 56.4429 60.5004V56.0486C55.8374 57.6122 54.9842 58.7528 53.8834 59.4794C52.7825 60.206 51.5716 60.574 50.2689 60.574C48.5626 60.574 47.2599 60.0957 46.3608 59.1391C45.9113 58.6332 45.5902 57.9985 45.3976 57.2167C45.2049 56.4349 45.1132 55.4323 45.1132 54.1998V44.7351C45.1132 43.5762 44.9022 42.7391 44.471 42.2057C44.0399 41.6814 43.306 41.4146 42.251 41.4146V40.6236C43.0308 40.6972 43.8013 40.734 44.5811 40.734C46.159 40.734 47.4617 40.5592 48.4892 40.2097V55.0276C48.4892 55.9842 48.5442 56.7568 48.6543 57.3455C48.7644 57.9341 49.0304 58.4216 49.4432 58.7987C49.8561 59.1759 50.4891 59.369 51.3422 59.369C52.2963 59.369 53.1586 59.0655 53.9384 58.4676C54.7182 57.8606 55.3236 57.0419 55.764 55.9934C56.2043 54.954 56.4245 53.8043 56.4245 52.5442V44.7351C56.4245 43.5762 56.2135 42.7391 55.7823 42.2057C55.3512 41.6814 54.6173 41.4146 53.5623 41.4146V40.6236C54.3421 40.6972 55.1127 40.734 55.8924 40.734C57.4703 40.734 58.773 40.5592 59.8005 40.2097V55.975H59.8188Z" fill="#ADB4A4"/>
<path d="M78.763 40.9641C79.4052 41.5435 79.7262 42.2426 79.7262 43.0796C79.7262 43.7326 79.5336 44.2937 79.1391 44.7536C78.7538 45.2227 78.2309 45.4527 77.5796 45.4527C77.0291 45.4527 76.5613 45.2779 76.1668 44.9284C75.7815 44.5788 75.5797 44.1006 75.5797 43.4935C75.5797 42.6657 76.0017 41.985 76.8548 41.4607C76.6805 41.2124 76.4145 41.0836 76.0659 41.0836C75.0843 41.0836 74.1944 41.4699 73.3963 42.2334C72.589 42.9968 71.9652 43.935 71.5157 45.0387C71.0662 46.1425 70.8368 47.1911 70.8368 48.166V56.1591C70.8368 57.318 71.1671 58.1182 71.8368 58.5689C72.4973 59.0196 73.4972 59.2496 74.8274 59.2496V60.0406L73.9284 60.0038C71.3689 59.9302 69.7451 59.8934 69.0388 59.8934C68.3874 59.8934 66.9104 59.9486 64.5986 60.0406V59.2496C65.6536 59.2496 66.3875 59.0564 66.8187 58.6609C67.2407 58.2746 67.4609 57.5571 67.4609 56.527V44.726C67.4609 43.5671 67.2499 42.7301 66.8187 42.1966C66.3967 41.6723 65.6536 41.4056 64.5986 41.4056V40.6145C65.3968 40.6881 66.1765 40.7249 66.9288 40.7249C68.5067 40.7249 69.8094 40.5501 70.8368 40.2006V44.91C71.2863 43.6499 72.0111 42.5369 73.0018 41.5527C73.9926 40.5685 75.0935 40.0811 76.2952 40.0811C77.2952 40.0811 78.1208 40.3662 78.763 40.9457V40.9641Z" fill="#ADB4A4"/>
<path d="M87.579 56.5454C87.579 57.5756 87.79 58.2838 88.2212 58.6793C88.6432 59.0656 89.3862 59.268 90.4412 59.268V60.059C88.1294 59.9578 86.6158 59.9118 85.891 59.9118C85.1663 59.9118 83.6434 59.967 81.3408 60.059V59.268C82.3958 59.268 83.1297 59.0748 83.5609 58.6793C83.9829 58.293 84.2031 57.5756 84.2031 56.5454V44.7444C84.2031 43.5855 83.992 42.7485 83.5609 42.215C83.1389 41.6907 82.3958 41.424 81.3408 41.424V40.633C82.1389 40.7065 82.9187 40.7433 83.671 40.7433C85.2489 40.7433 86.5515 40.5686 87.579 40.2191V56.5454ZM87.313 31.9225C87.79 32.4008 88.0285 32.9619 88.0285 33.6149C88.0285 34.268 87.79 34.8383 87.313 35.3166C86.8359 35.7949 86.2763 36.034 85.625 36.034C84.9736 36.034 84.4049 35.7949 83.9278 35.3166C83.4508 34.8383 83.2123 34.2772 83.2123 33.6149C83.2123 32.9527 83.4508 32.3916 83.9278 31.9225C84.4049 31.4442 84.9645 31.2051 85.625 31.2051C86.2855 31.2051 86.8451 31.4442 87.313 31.9225Z" fill="#ADB4A4"/>
<path d="M108.678 55.5243C108.229 56.904 107.376 58.0905 106.137 59.0839C104.899 60.0773 103.394 60.574 101.642 60.574C99.8899 60.574 98.3212 60.1693 97.0185 59.3506C95.7158 58.532 94.7159 57.3915 94.0278 55.9198C93.3398 54.4481 92.9912 52.7465 92.9912 50.8058C92.9912 48.6167 93.3398 46.7219 94.0462 45.1122C94.7434 43.5026 95.7342 42.2609 97.0185 41.3963C98.2937 40.5317 99.789 40.0994 101.495 40.0994C103.752 40.0994 105.486 40.7892 106.706 42.1505C107.917 43.521 108.532 45.5997 108.532 48.3959H96.7616C96.6883 49.1041 96.6516 49.9044 96.6516 50.8058C96.6516 52.4614 96.9176 53.9147 97.4588 55.138C98.0001 56.3705 98.7157 57.3179 99.6055 57.9894C100.495 58.6516 101.431 58.9919 102.404 58.9919C103.605 58.9919 104.669 58.7068 105.605 58.1273C106.532 57.5479 107.312 56.5821 107.935 55.2208L108.688 55.5243H108.678ZM98.2937 42.5552C97.4405 43.7142 96.9176 45.425 96.7158 47.6877H104.917C104.963 45.7285 104.688 44.0913 104.073 42.7852C103.459 41.4791 102.55 40.826 101.349 40.826C100.147 40.826 99.156 41.4055 98.3028 42.5644L98.2937 42.5552Z" fill="#ADB4A4"/>
<path d="M117.366 56.5453C117.366 57.5755 117.577 58.2837 118.008 58.6792C118.43 59.0655 119.173 59.2679 120.228 59.2679V60.0589C117.926 59.9577 116.403 59.9118 115.678 59.9118C114.953 59.9118 113.431 59.9669 111.128 60.0589V59.2679C112.183 59.2679 112.926 59.0747 113.348 58.6792C113.77 58.2929 113.99 57.5755 113.99 56.5453V35.0129C113.99 33.854 113.779 33.017 113.348 32.4835C112.926 31.9592 112.183 31.6925 111.128 31.6925V30.9015C111.908 30.975 112.687 31.0118 113.458 31.0118C115.036 31.0118 116.339 30.8371 117.366 30.4875V56.5453Z" fill="#ADB4A4"/>
</svg>
