<svg width="180" height="86" viewBox="0 0 180 86" fill="none" xmlns="http://www.w3.org/2000/svg">
<g clip-path="url(#clip0_460_8898)">
<path d="M77.0205 13.776C77.8608 13.9664 78.7011 14.1734 79.6074 14.4052C83.5618 15.4152 87.6068 16.3425 91.6024 17.278C93.7114 17.7499 95.804 18.2218 97.913 18.6937C98.8934 18.9338 99.8325 19.1573 100.813 19.3891C102.518 19.7865 103.993 20.1094 105.674 20.424C107.486 20.7717 109.406 21.2105 111.234 21.6162C112.462 21.8811 113.689 22.1378 114.917 22.4027C116.787 22.7835 118.682 23.1643 120.544 23.5452C122.702 23.9922 124.762 24.4641 126.945 24.8615C127.761 25.0105 128.576 25.1513 129.384 25.3169C130.496 25.557 131.55 25.7888 132.662 26.0371C133.429 26.1944 134.203 26.3352 134.977 26.4676C136.37 26.716 137.77 26.9809 139.162 27.2541C140.06 27.428 140.967 27.6101 141.758 27.8088C142.557 28.0075 143.232 28.2228 143.422 28.3718C143.809 28.6781 142.804 28.7692 140.843 28.4794C140.299 28.3966 139.731 28.289 139.179 28.1897C138.396 28.0655 137.647 27.9413 136.872 27.8088C135.628 27.5936 134.401 27.3287 133.173 27.0554C131.789 26.7574 130.57 26.567 129.227 26.3103C127.678 25.9957 126.088 25.6646 124.548 25.35C123.477 25.1347 122.406 24.9112 121.335 24.6959C120.371 24.5221 119.555 24.3731 118.608 24.1992C116.622 23.8349 114.637 23.3879 112.66 22.9491C109.587 22.2785 106.44 21.5831 103.35 20.9042C102.477 20.7138 101.596 20.5068 100.731 20.3412C99.8325 20.1591 98.9428 19.9852 98.0201 19.8031C96.7102 19.5216 95.2932 19.1491 93.9668 18.8345C92.4427 18.4785 90.9104 18.1225 89.3781 17.7582L85.6131 16.8889C84.5586 16.6488 83.257 16.3756 82.2848 16.0858C81.8647 15.9617 81.3457 15.8375 80.9008 15.7298L77.7949 14.9682C76.1061 14.5625 74.3183 14.0823 72.7778 13.6022C71.5008 13.2048 70.3886 12.7329 70.7676 12.6252C71.0312 12.5507 71.6409 12.5673 72.6871 12.7743C72.959 12.8322 73.2391 12.8902 73.5192 12.9481C74.7055 13.2213 75.8342 13.4862 77.0205 13.7595V13.776Z" fill="#ADB4A4"/>
<path d="M67.7687 13.8339C67.3239 13.8836 66.8707 13.9167 66.3847 13.9415C64.2592 13.9415 62.1007 13.9581 59.9835 13.6187C58.8631 13.5028 57.7674 13.2875 56.6634 13.0722C56.1609 12.9232 55.6748 12.7825 55.1723 12.6335C54.2908 12.4182 53.5493 12.1367 52.6925 11.9132C51.7533 11.6979 50.8307 11.2178 49.9327 10.8618C49.3395 10.5968 48.7546 10.2988 48.1614 10.0256C47.2552 9.61993 46.3819 9.10663 45.5169 8.63473C45.0308 8.32841 44.5695 8.00553 44.0999 7.69921L43.3914 7.23559C43.1607 7.07001 42.9301 6.90443 42.6994 6.73057C42.3451 6.4822 41.9909 6.24211 41.6449 5.97719C41.1753 5.61291 40.7963 5.18241 40.3515 4.80158C40.0549 4.52837 39.7089 4.29656 39.4205 4.0068C38.885 3.50178 38.3413 2.98849 37.8388 2.45863C37.5257 2.09436 37.2209 1.73009 36.9737 1.37409C36.7266 1.02638 36.5536 0.695217 36.5618 0.537917C36.5865 0.223317 37.1303 0.422012 37.847 1.11744C38.0447 1.30786 38.2342 1.53967 38.4319 1.74664C38.7038 2.03641 39.0168 2.26822 39.3134 2.54142C39.7912 2.96365 40.1949 3.46039 40.681 3.88261C41.2165 4.36279 41.7025 4.7519 42.2545 5.17413C42.9053 5.63775 43.5315 6.17588 44.1905 6.62295L45.5828 7.53363C45.9947 7.80684 46.3984 7.95586 46.8268 8.18767L48.1861 8.90794C48.6475 9.13975 49.1088 9.36328 49.5619 9.59509C50.9954 10.2905 52.5278 10.87 54.0601 11.3502C54.4885 11.4992 54.9334 11.6234 55.37 11.7062C55.8231 11.8056 56.2762 11.8966 56.7376 11.996C57.4049 12.1284 58.1216 12.3023 58.7972 12.443C59.5716 12.6086 60.3707 12.6666 61.1533 12.7742C61.8042 12.857 62.455 12.857 63.1058 12.8984C63.6495 12.9398 64.3251 12.8984 64.8359 12.9398C65.0583 12.9563 65.3302 12.9563 65.5608 12.9563C66.0963 12.9729 66.6401 12.9315 67.1756 12.8901C68.0488 12.8322 68.988 12.7742 69.8036 12.7245C70.4792 12.6997 71.1217 12.8073 70.9817 13.0226C70.8828 13.1716 70.6027 13.3455 70.0672 13.4779C69.9272 13.511 69.7789 13.5442 69.6306 13.569C69.3175 13.6352 69.0127 13.6849 68.7079 13.7346C68.4031 13.7677 68.09 13.7925 67.777 13.8256L67.7687 13.8339Z" fill="#ADB4A4"/>
<path d="M39.8162 0.272948C40.2528 0.306064 40.6977 0.33918 41.1673 0.380574C43.2433 0.579269 45.3771 0.513038 47.5026 0.546154C48.623 0.562711 49.7352 0.529596 50.8638 0.595827C51.3911 0.637222 51.8854 0.686896 52.4126 0.744848C53.3271 0.827638 54.1097 0.918706 54.9995 1.00977C55.9716 1.09256 56.9849 1.34921 57.9323 1.63898C58.5667 1.83767 59.201 2.05292 59.8107 2.30957C60.7498 2.68212 61.6808 3.12919 62.5376 3.65904C63.5344 4.2634 64.4077 4.97539 65.3304 5.69566C65.6682 5.96887 66.0224 6.23379 66.3272 6.54839C66.7639 6.96234 67.1181 7.41768 67.5218 7.85647L68.3539 8.76715C68.8482 9.33012 69.3095 9.91793 69.7379 10.5306C70.0015 10.928 70.2734 11.3336 70.4629 11.7227C70.6524 12.1118 70.7759 12.4761 70.7347 12.6251C70.6524 12.9397 70.1663 12.65 69.5567 11.8469C69.3837 11.6317 69.2189 11.3833 69.0541 11.1432C68.807 10.8286 68.5516 10.5388 68.2962 10.2242C67.8843 9.73579 67.5053 9.2225 67.0934 8.73404C66.632 8.18763 66.1625 7.7654 65.6517 7.2935C65.0668 6.74709 64.4489 6.20068 63.8228 5.71222C63.3861 5.38106 62.9413 5.04162 62.4634 4.76014C62.0433 4.49521 61.6643 4.31308 61.2277 4.1061C60.3215 3.65076 59.3988 3.2037 58.4431 2.86426C56.9602 2.31785 55.3455 2.01153 53.7472 1.81283C53.2941 1.75488 52.841 1.70521 52.3879 1.69693C51.9183 1.69693 51.457 1.68037 50.9792 1.67209C50.2954 1.63898 49.5457 1.59758 48.8454 1.56446C48.0381 1.53963 47.2307 1.53135 46.4233 1.53135H44.4214C43.8612 1.53135 43.1692 1.54791 42.6419 1.48168C42.4195 1.44856 42.1394 1.44028 41.9005 1.432L40.2363 1.3161C39.3301 1.24159 38.3745 1.08429 37.5589 0.852475C36.8833 0.645501 36.3149 0.33918 36.5373 0.18188C36.6856 0.0742533 37.0151 -0.000257261 37.5506 0.0494164C37.6907 0.0659744 37.839 0.0742533 37.979 0.0908112C38.5969 0.140485 39.1818 0.231553 39.7997 0.272948H39.8162Z" fill="#ADB4A4"/>
<path d="M86.2231 19.5794C85.8523 19.7947 85.4816 20.0017 85.0697 20.2169C83.2325 21.0448 81.3707 21.9224 79.4182 22.4936C78.4048 22.8414 77.375 23.1063 76.3453 23.3712C75.851 23.454 75.3814 23.5285 74.8871 23.603C74.0385 23.7769 73.2971 23.8431 72.465 24.0087C71.567 24.2157 70.5866 24.1908 69.6722 24.2571L67.8103 24.2902C66.8629 24.3233 65.9155 24.2653 64.9763 24.2239C64.4326 24.1743 63.9053 24.0915 63.3781 24.0252C62.8508 23.9673 62.3153 23.8928 61.7798 23.8017C61.3761 23.7438 60.9725 23.6941 60.5688 23.6196C60.0168 23.5119 59.5143 23.3133 58.9705 23.1808C58.5998 23.0814 58.2126 23.0235 57.8419 22.9159C57.1663 22.7254 56.4908 22.535 55.8317 22.3032C55.4116 22.1376 54.9914 21.9638 54.6289 21.7734C54.2664 21.583 53.9781 21.3843 53.9204 21.2435C53.8051 20.9538 54.3571 20.871 55.2715 21.1359C55.5269 21.2104 55.7823 21.318 56.0377 21.4091C56.4002 21.5333 56.7627 21.5912 57.1251 21.6906C57.7101 21.8396 58.2703 22.0797 58.8552 22.2287C59.5143 22.4026 60.091 22.5185 60.7418 22.6427C61.4915 22.7586 62.2494 22.9407 63.0073 23.04L64.5726 23.2139C65.0422 23.2719 65.4459 23.2305 65.9072 23.2387C66.3933 23.2387 66.8794 23.2719 67.3654 23.2801C67.8515 23.2801 68.3376 23.2801 68.8236 23.2801C70.3395 23.2801 71.8883 23.1311 73.3959 22.9076C73.8243 22.8579 74.2527 22.7834 74.6646 22.6758C75.093 22.5681 75.5214 22.4688 75.958 22.3612C76.5842 22.1956 77.268 22.0631 77.9105 21.9141C78.6438 21.7403 79.3523 21.4753 80.0772 21.2518C80.6704 21.0614 81.2306 20.8047 81.8073 20.5812C82.2934 20.3991 82.8618 20.101 83.3231 19.9272C83.5209 19.8609 83.7515 19.745 83.9575 19.654C84.4353 19.4553 84.8802 19.2069 85.3251 18.9585C85.6876 18.7516 86.0748 18.5529 86.4537 18.3707C86.8245 18.172 87.1952 17.965 87.5412 17.7995C88.1261 17.518 88.7193 17.369 88.6863 17.6173C88.6616 17.7912 88.4886 18.0561 88.0767 18.3873C87.9696 18.4701 87.8542 18.5529 87.7389 18.6356C87.4918 18.8095 87.2528 18.9751 87.0057 19.1407C86.7503 19.2897 86.4949 19.4304 86.2395 19.5877L86.2231 19.5794Z" fill="#ADB4A4"/>
<path d="M56.5894 19.6291C56.9766 19.4883 57.3638 19.3476 57.7922 19.2151C59.6705 18.7018 61.5653 18.1057 63.4931 17.7249C64.4982 17.4931 65.5033 17.2861 66.5248 17.1123C67.0027 17.0626 67.464 17.0046 67.9418 16.955C68.7657 16.8308 69.4906 16.7728 70.2898 16.6321C71.163 16.4665 72.1022 16.4582 72.9919 16.4003L74.7879 16.3258C75.7024 16.2678 76.6168 16.2595 77.5313 16.2595C78.5776 16.3092 79.5909 16.3506 80.6454 16.392C81.0408 16.4085 81.4363 16.4085 81.8317 16.4417C82.3754 16.4831 82.878 16.6072 83.4217 16.6652L84.5421 16.7645C85.2094 16.839 85.885 16.9218 86.5523 17.0295C86.9807 17.1123 87.4091 17.2033 87.788 17.3109C88.167 17.4269 88.4801 17.5676 88.5625 17.6918C88.7272 17.9567 88.2247 18.1471 87.2937 18.0643C87.0384 18.0395 86.7665 17.9898 86.5111 17.9484C86.1404 17.8988 85.7861 17.8905 85.4154 17.8574C84.8222 17.7994 84.2456 17.6752 83.6606 17.6007C83.0016 17.5096 82.4249 17.4848 81.7823 17.4434C81.0408 17.3937 80.2829 17.3358 79.5414 17.2861L78.0009 17.2364C77.5395 17.2199 77.1523 17.2778 76.6992 17.2944C75.7518 17.3192 74.7961 17.3358 73.8487 17.3606C72.3741 17.402 70.8582 17.5345 69.3835 17.7083C68.9634 17.7497 68.5432 17.8077 68.1395 17.8905C67.7194 17.9733 67.2992 18.0561 66.8708 18.1471C66.253 18.2713 65.5692 18.3458 64.9348 18.4534C64.2098 18.5693 63.4931 18.7515 62.7681 18.9005C62.175 19.0247 61.5983 19.2068 61.0134 19.3558C60.5191 19.48 59.9341 19.687 59.4646 19.7864C59.2668 19.8278 59.0197 19.9023 58.8137 19.9602C58.3277 20.0844 57.8498 20.2417 57.3802 20.4156C56.6058 20.6805 55.7738 20.9288 55.0405 21.1275C54.4309 21.2766 53.8295 21.3014 53.9119 21.0613C53.9696 20.8957 54.1838 20.6722 54.6369 20.4404C54.7522 20.3824 54.884 20.3245 55.0076 20.2665C55.5348 20.0182 56.0539 19.836 56.6058 19.6373L56.5894 19.6291Z" fill="#ADB4A4"/>
<path d="M93.0528 18.0811C92.7232 17.9817 92.4019 17.8658 92.0559 17.7334C90.573 17.0959 89.0407 16.5164 87.599 15.763C86.8328 15.3904 86.0749 15.0096 85.3252 14.5874C84.9874 14.3721 84.6743 14.1568 84.3366 13.9416C83.7434 13.5856 83.2491 13.2462 82.6559 12.9233C82.0051 12.5838 81.4037 12.0788 80.8023 11.6483L79.6242 10.7376C79.0146 10.2906 78.4214 9.80212 77.8447 9.32194C77.2104 8.72586 76.6007 8.15461 75.9582 7.55024C75.7192 7.32671 75.4639 7.11974 75.2332 6.87965C74.9201 6.55677 74.673 6.20078 74.3681 5.86962C74.1622 5.63781 73.9315 5.43083 73.7256 5.19902C73.3466 4.78507 72.9676 4.36285 72.6134 3.93234C72.3909 3.64258 72.1767 3.35282 72.012 3.06305C71.8472 2.78157 71.7401 2.50836 71.7813 2.3759C71.8554 2.09441 72.3086 2.22688 72.8441 2.78157C72.9923 2.93059 73.1242 3.11273 73.2724 3.27831C73.4702 3.51012 73.7008 3.70053 73.9068 3.92406C74.2446 4.27178 74.5247 4.67745 74.846 5.04172C75.2085 5.45567 75.5545 5.78683 75.9334 6.1511C76.3618 6.58161 76.8067 7.02867 77.2433 7.45918C77.5482 7.74894 77.8612 8.0387 78.1825 8.31191C78.4626 8.56856 78.7427 8.73413 79.0393 8.95767C79.6572 9.43785 80.2586 9.94286 80.8765 10.4313C81.8321 11.193 82.8619 11.905 83.8917 12.559C84.18 12.7494 84.4766 12.9398 84.7814 13.0889C85.1027 13.2544 85.4158 13.4035 85.7289 13.5773C86.1902 13.8174 86.6598 14.1237 87.1211 14.3887C87.6484 14.6867 88.2004 14.9433 88.7441 15.2166C89.189 15.4401 89.6586 15.6222 90.1117 15.8209C90.4906 15.9948 90.9849 16.1521 91.3309 16.3342C91.4792 16.417 91.677 16.4915 91.8335 16.5577C92.2124 16.7233 92.5996 16.8641 92.9869 16.9965C93.6212 17.2201 94.2885 17.485 94.857 17.7416C95.3265 17.9652 95.722 18.288 95.5407 18.4371C95.4172 18.5364 95.1535 18.5944 94.7416 18.5281C94.6345 18.5033 94.5192 18.4785 94.4121 18.4619C93.9425 18.3626 93.5059 18.2135 93.0445 18.0645L93.0528 18.0811Z" fill="#ADB4A4"/>
<path d="M74.9525 1.56443C75.3809 1.54787 75.8093 1.56443 76.2789 1.58099C78.3055 1.70517 80.3569 1.96182 82.3341 2.46684C83.3721 2.72348 84.4102 2.99669 85.4152 3.37752C85.8766 3.56794 86.3215 3.75835 86.7746 3.95705C87.5654 4.31304 88.2492 4.62764 89.0236 4.97536C89.452 5.14922 89.8722 5.37275 90.2759 5.6294C90.6795 5.87777 91.0997 6.10958 91.4787 6.38278C91.9894 6.73878 92.5249 7.06993 93.0192 7.45077C93.7937 8.00546 94.5516 8.60154 95.2518 9.23902C96.0427 10.0007 96.7677 10.7706 97.5009 11.6151C97.7728 11.9297 98.0446 12.2443 98.2836 12.592C98.6131 13.0639 98.8602 13.5524 99.1321 14.0574C99.3216 14.4051 99.5111 14.7528 99.6841 15.1088C99.9971 15.7546 100.236 16.4583 100.376 17.1703C100.475 17.6256 100.524 18.1058 100.5 18.528C100.5 18.9502 100.376 19.3062 100.269 19.4056C100.014 19.6125 99.8159 19.1241 99.6511 18.23C99.5935 17.9816 99.577 17.7167 99.5028 17.46C99.4205 17.104 99.2886 16.7729 99.1568 16.4334C98.9591 15.887 98.7367 15.3323 98.4895 14.8025C98.2012 14.1981 97.8469 13.7262 97.468 13.2046C97.0313 12.6003 96.5535 11.9876 96.051 11.4247C95.7049 11.0356 95.326 10.6713 94.9388 10.307C94.601 9.97585 94.2715 9.74404 93.909 9.46255C93.1593 8.85819 92.3849 8.24554 91.6022 7.68258C90.383 6.78845 89.0072 6.05162 87.6478 5.37275C87.2524 5.19889 86.8569 5.01675 86.4615 4.86773C86.0496 4.70215 85.6212 4.59453 85.201 4.44551C84.5996 4.22197 83.9406 3.98189 83.3144 3.76663C82.5895 3.55138 81.8645 3.34441 81.123 3.20366C80.5134 3.08776 79.912 2.9553 79.2941 2.88906C78.7751 2.82283 78.1408 2.76488 77.6629 2.69037C77.457 2.65725 77.2016 2.63242 76.9791 2.61586C76.4684 2.55791 75.9576 2.57446 75.4468 2.55791C75.0349 2.54135 74.6065 2.57446 74.1781 2.55791C73.7579 2.55791 73.3378 2.54135 72.9506 2.54135C72.308 2.54135 71.7066 2.40061 71.8466 2.19363C71.9455 2.04461 72.2174 1.88731 72.7364 1.7714C72.8682 1.74657 73.0165 1.72173 73.1565 1.69689C73.7579 1.60583 74.3346 1.60583 74.936 1.55615L74.9525 1.56443Z" fill="#ADB4A4"/>
<path d="M108.079 23.9011C107.75 24.1163 107.412 24.315 107.041 24.522C105.41 25.4078 103.771 26.3351 102.065 27.1133C101.167 27.5107 100.286 27.9495 99.363 28.2972C98.9346 28.4628 98.5062 28.5704 98.0696 28.7277C97.3199 28.9926 96.6526 29.183 95.9276 29.4728C95.1368 29.7626 94.2552 29.9613 93.4149 30.1351C92.8547 30.2676 92.2863 30.3504 91.7261 30.4745C90.8693 30.6236 89.996 30.8057 89.131 30.8637C88.1259 30.963 87.162 30.9547 86.1487 31.021C85.7697 31.0375 85.3908 31.0541 85.0036 31.0375C84.4763 31.0044 83.982 30.9133 83.463 30.8305C83.1005 30.7726 82.738 30.7229 82.3755 30.6567C81.7247 30.5242 81.0739 30.3172 80.4725 30.0026C80.0853 29.7957 79.7063 29.5556 79.4262 29.2741C79.1379 29.0009 78.9648 28.6946 78.9648 28.5538C78.9978 28.2392 79.4674 28.3965 80.1759 28.7939C80.3736 28.9098 80.5796 29.0257 80.7938 29.1334C81.0986 29.2741 81.4034 29.3652 81.7247 29.4562C82.2355 29.6135 82.7545 29.7626 83.2817 29.8702C83.8831 29.9944 84.4269 29.9944 85.0283 30.0192C85.7203 30.0358 86.437 30.0606 87.1373 30.0192C87.6234 30.0026 88.1094 29.9944 88.5873 29.9281C89.0239 29.8785 89.3864 29.8122 89.8065 29.7377C90.688 29.597 91.586 29.448 92.4675 29.3072C93.8433 29.0506 95.2356 28.6946 96.5702 28.2475C96.9492 28.1233 97.3364 28.0074 97.6906 27.8501C98.0696 27.6845 98.4403 27.5272 98.8193 27.3617C99.363 27.1133 99.9974 26.9312 100.549 26.6911C101.192 26.4179 101.835 26.1364 102.461 25.8218C102.98 25.5734 103.49 25.3002 104.001 25.027C104.43 24.8035 104.932 24.4806 105.352 24.3067C105.534 24.2322 105.74 24.1163 105.921 24.017L107.165 23.305C107.824 22.891 108.557 22.5019 109.208 22.179C109.752 21.9224 110.312 21.7899 110.287 22.0383C110.271 22.2122 110.114 22.4688 109.735 22.7751C109.636 22.8496 109.529 22.9324 109.422 23.0069C108.977 23.3381 108.524 23.603 108.063 23.9093L108.079 23.9011Z" fill="#ADB4A4"/>
<path d="M80.9422 26.2191C81.2552 25.9708 81.5683 25.7307 81.9225 25.4906C83.5125 24.5137 85.1108 23.4788 86.8408 22.742C87.7306 22.3032 88.645 21.9472 89.5677 21.5912C90.0126 21.467 90.4328 21.3428 90.8776 21.2186C91.6356 20.9703 92.3111 20.8212 93.0526 20.5812C93.8517 20.2914 94.7579 20.2169 95.5982 20.0596C96.1667 19.9685 96.7351 19.9271 97.3036 19.8526C98.1686 19.7201 99.0501 19.7036 99.9234 19.6539C100.426 19.6456 100.92 19.687 101.414 19.7036C101.909 19.7201 102.403 19.7367 102.914 19.7864C103.293 19.8112 103.672 19.8278 104.051 19.8692C104.57 19.9188 105.048 20.101 105.558 20.192C105.904 20.2666 106.267 20.2997 106.621 20.3742C107.255 20.5232 107.89 20.6805 108.508 20.8626C108.903 21.0117 109.29 21.169 109.628 21.3428C109.966 21.5167 110.238 21.7071 110.287 21.8396C110.386 22.121 109.875 22.2287 109.027 22.0051C108.796 21.9389 108.557 21.8478 108.318 21.7733C107.989 21.674 107.643 21.6409 107.313 21.5581C106.769 21.4422 106.25 21.2435 105.707 21.1358C105.097 21.0117 104.553 20.9206 103.952 20.8626C103.26 20.813 102.551 20.6722 101.851 20.6474L100.401 20.606C99.9645 20.606 99.6021 20.6805 99.1819 20.7053C98.2922 20.7633 97.3942 20.8461 96.5044 20.9289C95.1204 21.0862 93.7116 21.3677 92.3605 21.7319C91.9733 21.8147 91.5944 21.9472 91.2236 22.0796C90.8447 22.2287 90.4657 22.3694 90.0785 22.5184C89.5265 22.742 88.9087 22.9407 88.3402 23.1476C87.6894 23.3877 87.0715 23.7106 86.4371 24.0004C85.9181 24.2322 85.4321 24.5468 84.9295 24.82C84.5011 25.0435 84.0233 25.3829 83.6279 25.5899C83.4549 25.6727 83.2571 25.8052 83.0841 25.9128C82.6722 26.1529 82.2933 26.4261 81.9143 26.7159C81.6095 26.9477 81.2882 27.1795 80.9586 27.3947C80.6456 27.6265 80.3325 27.8584 80.0359 28.0488C79.5416 28.3799 78.9979 28.5786 78.9897 28.3385C78.9814 28.1647 79.0968 27.8915 79.4345 27.5355C79.5252 27.4444 79.6158 27.3533 79.7146 27.254C79.9124 27.0553 80.1183 26.8732 80.3243 26.691C80.5385 26.5254 80.7527 26.3599 80.9751 26.186L80.9422 26.2191Z" fill="#ADB4A4"/>
<path d="M119.16 23.421C118.863 23.2554 118.567 23.0816 118.262 22.8829C116.911 22.0053 115.494 21.2023 114.135 20.3081C113.418 19.8528 112.685 19.414 111.976 18.9338C111.655 18.6937 111.35 18.4619 111.029 18.2218C110.46 17.8244 109.982 17.4684 109.406 17.1124C108.771 16.7316 108.186 16.21 107.61 15.7547C107.214 15.4484 106.844 15.1172 106.456 14.8026C105.863 14.3307 105.278 13.8257 104.718 13.3124C104.092 12.6998 103.515 12.0788 102.889 11.4496C102.658 11.2178 102.42 10.986 102.205 10.7377C101.892 10.4065 101.686 10.0174 101.406 9.66139C101.217 9.41302 101.003 9.18121 100.805 8.94112C100.459 8.48578 100.129 8.02216 99.8162 7.55026C99.635 7.23566 99.4537 6.9045 99.3219 6.59818C99.1901 6.29186 99.1242 6.01037 99.1736 5.87791C99.289 5.61298 99.7174 5.81168 100.179 6.42432C100.302 6.59818 100.418 6.78859 100.533 6.97073C100.706 7.2191 100.912 7.43435 101.101 7.67444C101.398 8.06355 101.645 8.48578 101.942 8.86661C102.271 9.3054 102.584 9.66967 102.947 10.0505C103.367 10.4893 103.754 10.9943 104.191 11.4248C104.487 11.7311 104.784 12.0292 105.089 12.3272C105.369 12.5839 105.641 12.766 105.929 13.0061C106.522 13.5194 107.124 14.041 107.717 14.5543C108.648 15.349 109.653 16.1107 110.658 16.831C110.938 17.0379 111.226 17.2366 111.523 17.4188C111.836 17.6009 112.141 17.783 112.446 17.9735C112.891 18.2467 113.344 18.6027 113.78 18.909C114.283 19.2567 114.81 19.5796 115.329 19.9107L116.622 20.6972C116.985 20.9125 117.455 21.1526 117.768 21.4009C117.899 21.5086 118.089 21.6162 118.237 21.7073C118.591 21.9308 118.946 22.1461 119.308 22.3613C119.893 22.7007 120.503 23.1147 120.997 23.5121C121.409 23.8432 121.714 24.2572 121.5 24.3483C121.351 24.4145 121.079 24.4062 120.692 24.2406C120.593 24.191 120.495 24.1413 120.387 24.0916C119.959 23.8764 119.572 23.6363 119.152 23.4127L119.16 23.421Z" fill="#ADB4A4"/>
<path d="M102.304 5.32315C102.724 5.33143 103.136 5.38938 103.589 5.43905C105.541 5.74537 107.502 6.1676 109.372 6.8382C110.353 7.18591 111.333 7.53363 112.272 7.98897C112.709 8.20422 113.112 8.44431 113.541 8.66784C114.282 9.08179 114.917 9.42951 115.633 9.83518C116.416 10.2574 117.19 10.8618 117.882 11.4496C118.344 11.8552 118.805 12.2609 119.225 12.6997C119.893 13.3455 120.527 14.0409 121.095 14.7694C121.738 15.6304 122.298 16.4832 122.875 17.3856C123.106 17.7167 123.312 18.0562 123.509 18.4039C123.773 18.8841 123.962 19.3725 124.201 19.8693C124.358 20.2087 124.547 20.5399 124.712 20.8793C125.017 21.4919 125.289 22.1211 125.528 22.7586C125.676 23.1726 125.824 23.5948 125.907 23.9839C125.989 24.373 126.022 24.7207 125.948 24.8532C125.8 25.1264 125.396 24.7787 125.009 23.926C124.902 23.6941 124.811 23.4375 124.704 23.1891C124.564 22.8497 124.383 22.5351 124.234 22.1957C123.979 21.6658 123.773 21.1028 123.534 20.573C123.27 19.9603 122.957 19.4719 122.644 18.9172C122.274 18.2797 121.903 17.6174 121.499 16.9965C121.219 16.566 120.931 16.1437 120.618 15.7463C120.346 15.3738 120.057 15.1089 119.769 14.7777C119.126 14.0906 118.509 13.3786 117.825 12.7411C116.77 11.7311 115.535 10.8783 114.258 10.1415C113.903 9.92624 113.524 9.72755 113.154 9.54541C112.758 9.37155 112.371 9.20598 111.976 9.02384C111.399 8.78375 110.797 8.45259 110.204 8.2125C109.529 7.93102 108.837 7.68265 108.136 7.4674C107.56 7.29354 106.983 7.12796 106.398 6.9955C105.904 6.87959 105.294 6.78852 104.841 6.65606C104.643 6.58983 104.396 6.56499 104.19 6.5236C103.704 6.43253 103.21 6.37457 102.716 6.33318C101.917 6.25867 101.06 6.20072 100.31 6.11793C99.6922 6.06825 99.1155 5.90267 99.2638 5.70398C99.3709 5.56324 99.651 5.42249 100.162 5.3397C100.294 5.31487 100.434 5.31487 100.574 5.30659C101.167 5.26519 101.727 5.29003 102.312 5.30659L102.304 5.32315Z" fill="#ADB4A4"/>
<path d="M103.927 34.1753C104.297 34.2663 104.676 34.3408 105.072 34.4485C106.827 34.8873 108.664 35.0611 110.476 35.1025C111.432 35.1273 112.379 35.028 113.335 34.97C113.78 34.9287 114.208 34.9287 114.653 34.8707C115.419 34.7714 116.086 34.6637 116.811 34.4485C117.594 34.2249 118.443 34.018 119.234 33.7779C119.761 33.604 120.288 33.4302 120.799 33.2149C121.59 32.9086 122.348 32.5112 123.106 32.1469C123.971 31.7081 124.819 31.2942 125.618 30.7229C125.923 30.5242 126.203 30.2842 126.516 30.0855C126.928 29.804 127.348 29.5639 127.752 29.2576C128.024 29.0423 128.296 28.8188 128.551 28.5787C129.012 28.1482 129.482 27.726 129.943 27.2955C130.232 27.0057 130.537 26.7325 130.817 26.5007C131.097 26.2606 131.377 26.0867 131.525 26.095C131.83 26.095 131.748 26.6083 131.179 27.3286C131.014 27.519 130.825 27.7094 130.644 27.8915C130.397 28.1565 130.158 28.4131 129.902 28.678C129.482 29.0837 129.029 29.4397 128.559 29.7791C128.04 30.1683 127.612 30.5325 127.101 30.9051C126.508 31.3273 125.874 31.7164 125.248 32.0724C124.819 32.3208 124.374 32.5609 123.938 32.801C123.55 33.0245 123.213 33.2149 122.834 33.4302C122.01 33.8607 121.137 34.2001 120.255 34.4899C118.888 34.9452 117.462 35.3343 116.037 35.5992C115.633 35.6738 115.23 35.74 114.834 35.8145C114.422 35.9056 114.01 35.9635 113.582 36.0298C112.972 36.1043 112.297 36.096 111.671 36.1043C110.954 36.1125 110.229 36.1043 109.512 36.0711C108.919 36.0463 108.334 36.0049 107.749 35.947C107.255 35.9056 106.645 35.8476 106.192 35.7234C105.994 35.682 105.756 35.6324 105.55 35.5827C105.072 35.4916 104.594 35.3757 104.116 35.2681C103.342 35.086 102.534 34.8045 101.867 34.4899C101.315 34.2084 100.878 33.8441 101.093 33.7199C101.241 33.6289 101.538 33.5957 101.999 33.7034C102.114 33.7365 102.246 33.7613 102.37 33.7944C102.897 33.9269 103.383 34.0759 103.91 34.2001L103.927 34.1753Z" fill="#ADB4A4"/>
<path d="M102.807 31.791C103.087 31.5757 103.375 31.3687 103.688 31.1618C105.122 30.3173 106.547 29.4066 108.071 28.7278C108.854 28.3304 109.661 27.9827 110.468 27.6515C110.856 27.5273 111.234 27.4114 111.622 27.2872C112.289 27.0389 112.882 26.8898 113.525 26.6332C114.225 26.3434 115.016 26.2192 115.749 26.0288L117.248 25.7225C118.006 25.5486 118.781 25.4327 119.547 25.3168C120.437 25.2423 121.294 25.1678 122.191 25.0933C122.529 25.0602 122.859 25.0271 123.197 25.0188C123.658 24.994 124.095 25.0767 124.556 25.085C124.869 25.0933 125.19 25.0685 125.512 25.0767C126.088 25.0933 126.665 25.1181 127.233 25.1595C127.604 25.2092 127.975 25.2672 128.296 25.3499C128.617 25.4327 128.889 25.5569 128.963 25.6728C129.103 25.9212 128.683 26.153 127.901 26.1364C127.686 26.1364 127.456 26.1033 127.233 26.0785C126.92 26.0619 126.624 26.0868 126.311 26.0785C125.816 26.0785 125.322 25.9957 124.828 25.9791C124.268 25.9543 123.782 25.9791 123.246 26.0123C122.628 26.0537 121.977 26.0454 121.359 26.0951C120.931 26.1282 120.503 26.1696 120.066 26.2192C119.679 26.2606 119.366 26.3683 118.995 26.4345C118.212 26.5752 117.413 26.716 116.631 26.8567C115.411 27.0885 114.176 27.4197 112.981 27.8005C112.643 27.8999 112.305 28.0158 111.984 28.1565C111.646 28.3055 111.325 28.4546 110.979 28.5953C110.493 28.8023 109.941 28.9927 109.439 29.1831C108.862 29.4066 108.31 29.6964 107.75 29.9613C107.288 30.1766 106.852 30.4498 106.407 30.6899C106.028 30.8968 105.599 31.1866 105.237 31.3687C105.08 31.4433 104.899 31.5592 104.743 31.6502C104.38 31.8572 104.026 32.0973 103.688 32.3457C103.128 32.7431 102.518 33.1404 101.975 33.4799C101.521 33.7531 101.019 33.9021 101.002 33.6703C100.994 33.5047 101.093 33.2563 101.398 32.9417C101.48 32.8672 101.563 32.7844 101.653 32.7017C102.016 32.3539 102.395 32.0725 102.79 31.7827L102.807 31.791Z" fill="#ADB4A4"/>
<path d="M12.1603 50.2863C12.1603 51.1142 12.185 51.793 12.2344 52.3229H11.6659C11.5341 51.0479 11.3694 50.1041 11.1716 49.4832C10.9739 48.8623 10.6279 48.407 10.1336 48.1172C9.63931 47.8274 8.88138 47.6867 7.85982 47.6867H6.30277C5.70961 47.6867 5.27298 47.7281 5.00111 47.8274C4.72925 47.9268 4.53976 48.1006 4.44914 48.3821C4.35028 48.6636 4.30085 49.1189 4.30085 49.7481V55.858H6.10505C6.68174 55.858 7.12661 55.7173 7.43967 55.4441C7.75273 55.1709 7.95868 54.848 8.07402 54.4754C8.18112 54.1029 8.2635 53.6392 8.32941 53.068L8.40356 52.5713H8.972C8.92257 53.2667 8.89786 54.0449 8.89786 54.9059V56.0981C8.89786 56.9426 8.94729 58.1182 9.04615 59.6249H8.4777C8.46123 59.509 8.41179 59.1116 8.32941 58.4162C8.24703 57.7291 8.01635 57.2075 7.64563 56.8598C7.2749 56.512 6.75588 56.3382 6.09682 56.3382H4.29261V62.0507C4.29261 62.6799 4.35852 63.1352 4.49033 63.4167C4.62215 63.6982 4.85282 63.8886 5.18236 63.9879C5.51189 64.0873 6.04738 64.1535 6.78884 64.1866V64.6834C5.93205 64.6337 4.72101 64.6089 3.15572 64.6089C1.73872 64.6089 0.68421 64.6337 -0.0078125 64.6834V64.1866C0.58535 64.1535 1.02198 64.0873 1.29385 63.9879C1.56571 63.8886 1.7552 63.6982 1.84582 63.4167C1.94468 63.1352 1.99411 62.6799 1.99411 62.0507V49.7316C1.99411 49.1024 1.94468 48.647 1.84582 48.3656C1.74696 48.0841 1.56571 47.8937 1.29385 47.7943C1.02198 47.695 0.593588 47.6287 -0.0078125 47.5956V47.0989C1.60691 47.1486 3.99603 47.1734 7.15956 47.1734C9.58164 47.1734 11.3035 47.1486 12.325 47.0989C12.2097 48.2745 12.152 49.3342 12.152 50.278L12.1603 50.2863Z" fill="#ADB4A4"/>
<path d="M17.4992 62.3817C17.4992 63.0606 17.6392 63.5242 17.9193 63.7892C18.1995 64.0458 18.6855 64.17 19.3775 64.17V64.6916C17.8617 64.6253 16.8648 64.5922 16.387 64.5922C15.9092 64.5922 14.9123 64.6253 13.3965 64.6916V64.17C14.0885 64.17 14.5746 64.0375 14.8547 63.7892C15.1348 63.5325 15.2748 63.0606 15.2748 62.3817V48.1999C15.2748 47.4382 15.1348 46.8835 14.8547 46.5358C14.5746 46.1881 14.0885 46.0143 13.3965 46.0143V45.4927C13.9073 45.5424 14.418 45.5672 14.9288 45.5672C15.9669 45.5672 16.8236 45.4513 17.4992 45.2195V62.3817Z" fill="#ADB4A4"/>
<path d="M30.515 53.2253C31.5448 54.343 32.0638 56.0319 32.0638 58.3003C32.0638 60.5687 31.5531 62.2576 30.515 63.367C29.477 64.4764 28.1259 65.0311 26.4535 65.0311C24.7811 65.0311 23.4136 64.4764 22.3838 63.367C21.354 62.2576 20.835 60.5687 20.835 58.3003C20.835 56.0319 21.3457 54.3347 22.3838 53.2253C23.4136 52.1076 24.7729 51.5447 26.4535 51.5447C28.1342 51.5447 29.4852 52.0994 30.515 53.2253ZM24.1056 53.573C23.5289 54.5913 23.2406 56.1643 23.2406 58.3003C23.2406 60.4363 23.5289 62.0093 24.1056 63.0193C24.6823 64.0293 25.4649 64.5344 26.4535 64.5344C27.4421 64.5344 28.2248 64.0293 28.8015 63.0193C29.3781 62.0093 29.6665 60.4363 29.6665 58.3003C29.6665 56.1643 29.3781 54.5831 28.8015 53.573C28.2248 52.5547 27.4421 52.0497 26.4535 52.0497C25.4649 52.0497 24.6823 52.5547 24.1056 53.573Z" fill="#ADB4A4"/>
<path d="M52.0014 51.9006V52.3973C51.6554 52.447 51.3506 52.6043 51.0869 52.8527C50.8233 53.1093 50.5926 53.5398 50.3949 54.1276L46.8112 64.8075H46.3911L42.4861 54.823L38.9518 64.8075H38.5317L34.4784 53.8047C34.2477 53.2252 34.0088 52.8444 33.7699 52.6705C33.531 52.4967 33.2921 52.4056 33.0449 52.4056V51.884C33.6875 51.9834 34.4125 52.033 35.2198 52.033C36.0272 52.033 37.1147 51.9834 38.4328 51.884V52.4056C37.8232 52.4056 37.3865 52.4553 37.1147 52.5546C36.8428 52.654 36.7028 52.9106 36.7028 53.3246C36.7028 53.6226 36.7851 54.0117 36.9499 54.4919L39.4214 61.6449L42.9804 51.7847H43.5488L47.3302 61.8188L49.6535 54.7154C49.8018 54.2684 49.8759 53.8958 49.8759 53.5978C49.8759 53.2004 49.7358 52.9106 49.4557 52.7285C49.1756 52.5463 48.706 52.4304 48.047 52.3808V51.884C48.9202 51.9337 49.6123 51.9585 50.123 51.9585C50.848 51.9585 51.4741 51.9337 52.0014 51.884V51.9006Z" fill="#ADB4A4"/>
<path d="M63.2955 61.7112C62.9989 62.6219 62.4387 63.4001 61.6313 64.0542C60.8157 64.7082 59.8271 65.0311 58.6737 65.0311C57.5204 65.0311 56.4906 64.7579 55.6338 64.228C54.777 63.6899 54.1262 62.9365 53.673 61.9679C53.2199 60.9992 52.9893 59.8816 52.9893 58.6066C52.9893 57.1661 53.2199 55.916 53.6813 54.8563C54.1426 53.7966 54.7935 52.9852 55.6338 52.4057C56.4741 51.8262 57.4544 51.5447 58.5749 51.5447C60.0578 51.5447 61.1947 51.9917 61.9938 52.8941C62.7929 53.7966 63.1966 55.1709 63.1966 57.0088H55.4608C55.4113 57.4724 55.3866 58.0023 55.3866 58.5983C55.3866 59.6912 55.5596 60.6432 55.9221 61.4546C56.2764 62.2659 56.7459 62.8951 57.3309 63.3339C57.9158 63.7727 58.5337 63.9879 59.168 63.9879C59.9589 63.9879 60.6592 63.7975 61.2688 63.4167C61.8785 63.0359 62.3892 62.3984 62.8012 61.5043L63.2955 61.7029V61.7112ZM56.4741 53.1674C55.9139 53.929 55.5679 55.055 55.4361 56.5452H60.8239C60.8569 55.2536 60.6674 54.1774 60.2637 53.3164C59.8601 52.4554 59.2669 52.0249 58.476 52.0249C57.6851 52.0249 57.0343 52.4057 56.4741 53.1674Z" fill="#ADB4A4"/>
<path d="M74.3845 52.1242C74.8047 52.505 75.0189 52.9687 75.0189 53.5151C75.0189 53.9456 74.8871 54.3098 74.6317 54.6162C74.3763 54.9225 74.0303 55.0715 73.6101 55.0715C73.2477 55.0715 72.9346 54.9556 72.6874 54.7238C72.4321 54.492 72.3002 54.1774 72.3002 53.78C72.3002 53.2336 72.5803 52.7865 73.1406 52.4388C73.0252 52.2732 72.8522 52.1904 72.6215 52.1904C71.9789 52.1904 71.394 52.4388 70.8668 52.9521C70.3395 53.4571 69.9276 54.0698 69.631 54.7983C69.3344 55.5269 69.1861 56.214 69.1861 56.8598V62.1252C69.1861 62.8868 69.4003 63.4167 69.837 63.7147C70.2736 64.0128 70.9244 64.1618 71.7977 64.1618V64.6834L71.2045 64.6585C69.5239 64.6089 68.4529 64.584 67.9916 64.584C67.5632 64.584 66.5911 64.6171 65.0752 64.6834V64.1618C65.7672 64.1618 66.2533 64.0293 66.5334 63.781C66.8135 63.5243 66.9535 63.0524 66.9535 62.3735V54.5996C66.9535 53.8379 66.8135 53.2833 66.5334 52.9355C66.2533 52.5878 65.7672 52.414 65.0752 52.414V51.8924C65.6025 51.9421 66.1132 51.9669 66.6075 51.9669C67.6456 51.9669 68.5024 51.851 69.1779 51.6192V54.7238C69.4745 53.8959 69.9441 53.1591 70.6031 52.5133C71.254 51.8676 71.9789 51.5447 72.7616 51.5447C73.4207 51.5447 73.9562 51.7351 74.3763 52.1159L74.3845 52.1242Z" fill="#ADB4A4"/>
<path d="M94.1159 56.9757C94.8904 57.7787 95.2776 58.7474 95.2776 59.8733C95.2776 60.8171 95.0386 61.6533 94.5608 62.3818C94.083 63.1104 93.3992 63.6816 92.5095 64.079C91.6197 64.4847 90.5652 64.6917 89.3459 64.6917C88.9011 64.6917 88.5221 64.6917 88.209 64.6668C87.1545 64.6337 86.1165 64.6172 85.0949 64.6172C83.7439 64.6172 82.7223 64.642 82.0303 64.6917V64.1949C82.6234 64.1618 83.0601 64.0956 83.3319 63.9962C83.6038 63.8969 83.785 63.7065 83.8839 63.425C83.9828 63.1435 84.0322 62.6882 84.0322 62.059V49.7399C84.0322 49.1107 83.9828 48.6553 83.8839 48.3739C83.785 48.0924 83.6038 47.902 83.3319 47.8026C83.0601 47.7033 82.6317 47.637 82.0303 47.6039V47.1072C82.7223 47.1569 83.7274 47.1817 85.0455 47.1817L87.7147 47.1568C88.0278 47.1403 88.3821 47.132 88.7775 47.132C90.4581 47.132 91.7433 47.488 92.6413 48.2C93.5393 48.912 93.9924 49.8558 93.9924 51.0314C93.9924 51.9918 93.6876 52.8528 93.0862 53.6144C92.4848 54.3761 91.5373 54.9556 90.2357 55.353V55.4027C92.0481 55.6511 93.3415 56.1726 94.1159 56.9757ZM87.0145 47.7778C86.7591 47.8937 86.5861 48.1007 86.4872 48.3987C86.3884 48.6967 86.3389 49.1438 86.3389 49.7399V55.353H87.9948C89.3459 55.353 90.2851 54.9887 90.8206 54.2519C91.3561 53.5151 91.628 52.5382 91.628 51.3129C91.628 50.0876 91.3561 49.1438 90.8124 48.5312C90.2686 47.9185 89.3871 47.6122 88.1679 47.6122C87.6571 47.6122 87.2781 47.6701 87.0145 47.7861V47.7778ZM92.8143 59.774C92.8143 58.4659 92.4683 57.4724 91.768 56.7936C91.0678 56.1147 89.9473 55.7752 88.415 55.7752H86.3389V62.059C86.3389 62.655 86.3884 63.0938 86.4872 63.3753C86.5861 63.6568 86.7591 63.8555 87.0145 63.9631C87.2699 64.0708 87.6653 64.1204 88.1926 64.1204C91.2737 64.1204 92.8143 62.6716 92.8143 59.774Z" fill="#ADB4A4"/>
<path d="M107.223 53.2253C108.253 54.343 108.772 56.0319 108.772 58.3003C108.772 60.5687 108.253 62.2576 107.223 63.367C106.193 64.4764 104.834 65.0311 103.153 65.0311C101.473 65.0311 100.122 64.4764 99.0918 63.367C98.062 62.2576 97.543 60.5687 97.543 58.3003C97.543 56.0319 98.0537 54.3347 99.0918 53.2253C100.122 52.1076 101.473 51.5447 103.153 51.5447C104.834 51.5447 106.193 52.0994 107.223 53.2253ZM100.805 53.573C100.229 54.5913 99.9403 56.1643 99.9403 58.3003C99.9403 60.4363 100.229 62.0093 100.805 63.0193C101.382 64.0293 102.165 64.5344 103.153 64.5344C104.142 64.5344 104.925 64.0293 105.501 63.0193C106.078 62.0093 106.366 60.4363 106.366 58.3003C106.366 56.1643 106.078 54.5831 105.501 53.573C104.925 52.5547 104.142 52.0497 103.153 52.0497C102.165 52.0497 101.382 52.5547 100.805 53.573Z" fill="#ADB4A4"/>
<path d="M121.87 62.0092C121.87 62.7709 122.01 63.3256 122.29 63.6733C122.57 64.021 123.056 64.1949 123.748 64.1949V64.7165C123.238 64.6668 122.727 64.642 122.216 64.642C121.178 64.642 120.321 64.7579 119.646 64.9897V62.0589C119.25 63.0855 118.69 63.8389 117.965 64.3191C117.24 64.7993 116.449 65.0393 115.592 65.0393C114.472 65.0393 113.615 64.7247 113.022 64.0955C112.725 63.7644 112.511 63.3422 112.396 62.8289C112.272 62.3156 112.206 61.6532 112.206 60.8419V54.6079C112.206 53.8462 112.066 53.2915 111.786 52.9438C111.506 52.5961 111.02 52.4222 110.328 52.4222V51.9006C110.839 51.9503 111.35 51.9752 111.86 51.9752C112.898 51.9752 113.755 51.8593 114.431 51.6274V61.3883C114.431 62.0175 114.464 62.5308 114.538 62.9199C114.612 63.309 114.785 63.6236 115.057 63.872C115.329 64.1204 115.741 64.2446 116.309 64.2446C116.935 64.2446 117.504 64.0459 118.015 63.6485C118.525 63.2511 118.929 62.713 119.217 62.0258C119.506 61.3386 119.654 60.577 119.654 59.7491V54.6079C119.654 53.8462 119.514 53.2915 119.234 52.9438C118.954 52.5961 118.468 52.4222 117.776 52.4222V51.9006C118.286 51.9503 118.797 51.9752 119.308 51.9752C120.346 51.9752 121.203 51.8593 121.878 51.6274V62.0092H121.87Z" fill="#ADB4A4"/>
<path d="M128.989 51.9253H132.646V52.4221H128.989V62.0339C128.989 62.7791 129.129 63.3172 129.401 63.6483C129.672 63.9795 130.06 64.1451 130.57 64.1451C131.081 64.1451 131.518 63.9381 131.88 63.5242C132.243 63.1102 132.548 62.4313 132.795 61.4875L133.289 61.6117C132.877 63.8967 131.806 65.0392 130.076 65.0392C129.516 65.0392 129.055 64.973 128.692 64.8405C128.33 64.708 128.008 64.5011 127.728 64.2196C127.366 63.8553 127.11 63.4083 126.97 62.8784C126.83 62.3485 126.764 61.6366 126.764 60.7424V52.4221H124.392V51.9253H126.764V48.1253C127.687 48.0922 128.428 47.9763 128.989 47.7776V51.9253Z" fill="#ADB4A4"/>
<path d="M137.861 62.3818C137.861 63.0606 138.002 63.5243 138.282 63.7892C138.562 64.0458 139.048 64.17 139.74 64.17V64.6916C138.224 64.6254 137.227 64.5923 136.749 64.5923C136.271 64.5923 135.275 64.6254 133.759 64.6916V64.17C134.451 64.17 134.937 64.0376 135.217 63.7892C135.497 63.5325 135.637 63.0606 135.637 62.3818V54.6078C135.637 53.8462 135.497 53.2915 135.217 52.9438C134.937 52.5961 134.451 52.4222 133.759 52.4222V51.9006C134.286 51.9503 134.797 51.9751 135.291 51.9751C136.329 51.9751 137.186 51.8592 137.861 51.6274V62.3818ZM137.688 46.1633C138.002 46.4779 138.158 46.8505 138.158 47.281C138.158 47.7115 138.002 48.084 137.688 48.3986C137.375 48.7132 137.005 48.8705 136.576 48.8705C136.148 48.8705 135.777 48.7132 135.464 48.3986C135.151 48.084 134.995 47.7115 134.995 47.281C134.995 46.8505 135.151 46.4779 135.464 46.1633C135.777 45.8487 136.148 45.6914 136.576 45.6914C137.005 45.6914 137.375 45.8487 137.688 46.1633Z" fill="#ADB4A4"/>
<path d="M152.575 68.326C152.814 68.5495 153.234 68.6654 153.844 68.6654V69.187C152.46 69.1208 151.57 69.0876 151.175 69.0876C150.713 69.0876 149.717 69.1125 148.184 69.1622L147.616 69.187V68.6654C148.407 68.6654 149 68.533 149.395 68.2846C149.791 68.0279 149.988 67.556 149.988 66.8772V62.6052C149.659 63.3834 149.197 63.9795 148.588 64.4018C147.986 64.824 147.303 65.031 146.528 65.031C145.556 65.031 144.691 64.7826 143.917 64.2859C143.151 63.7891 142.541 63.0357 142.096 62.0257C141.651 61.0157 141.429 59.7738 141.429 58.3002C141.429 56.8265 141.659 55.6095 142.121 54.5829C142.582 53.5646 143.208 52.8029 144.007 52.2979C144.806 51.7929 145.704 51.5363 146.718 51.5363C147.558 51.5363 148.258 51.6853 148.819 51.9751C149.379 52.2648 149.84 52.7284 150.203 53.3576L151.957 51.4949L152.378 51.6687C152.262 52.0827 152.204 52.5629 152.204 53.1093V67.1173C152.204 67.6968 152.32 68.0942 152.559 68.3177L152.575 68.326ZM148.917 63.549C149.42 63.0523 149.774 62.3486 149.988 61.4379V53.7633C149.675 53.2169 149.255 52.8029 148.728 52.538C148.201 52.2648 147.599 52.1241 146.924 52.1241C145.935 52.1241 145.169 52.6374 144.633 53.664C144.098 54.6905 143.834 56.2387 143.834 58.3084C143.834 60.3782 144.123 61.7939 144.708 62.7956C145.293 63.7974 146.141 64.2941 147.245 64.2941C147.855 64.2941 148.415 64.0458 148.917 63.549Z" fill="#ADB4A4"/>
<path d="M166.136 62.0092C166.136 62.7709 166.276 63.3256 166.556 63.6733C166.836 64.021 167.322 64.1949 168.014 64.1949V64.7165C167.503 64.6668 166.992 64.642 166.482 64.642C165.444 64.642 164.587 64.7579 163.911 64.9897V62.0589C163.516 63.0855 162.956 63.8389 162.231 64.3191C161.506 64.7993 160.715 65.0393 159.858 65.0393C158.738 65.0393 157.881 64.7247 157.288 64.0955C156.991 63.7644 156.777 63.3422 156.662 62.8289C156.538 62.3156 156.472 61.6532 156.472 60.8419V54.6079C156.472 53.8462 156.332 53.2915 156.052 52.9438C155.772 52.5961 155.286 52.4222 154.594 52.4222V51.9006C155.105 51.9503 155.615 51.9752 156.126 51.9752C157.164 51.9752 158.021 51.8593 158.696 51.6274V61.3883C158.696 62.0175 158.729 62.5308 158.804 62.9199C158.878 63.309 159.051 63.6236 159.323 63.872C159.594 64.1204 160.006 64.2446 160.575 64.2446C161.201 64.2446 161.769 64.0459 162.28 63.6485C162.791 63.2511 163.195 62.713 163.483 62.0258C163.771 61.3386 163.92 60.577 163.92 59.7491V54.6079C163.92 53.8462 163.78 53.2915 163.499 52.9438C163.219 52.5961 162.733 52.4222 162.041 52.4222V51.9006C162.552 51.9503 163.063 51.9752 163.574 51.9752C164.612 51.9752 165.468 51.8593 166.144 51.6274V62.0092H166.136Z" fill="#ADB4A4"/>
<path d="M180 61.7112C179.704 62.6219 179.152 63.4001 178.336 64.0542C177.52 64.7082 176.532 65.0311 175.387 65.0311C174.241 65.0311 173.203 64.7579 172.347 64.228C171.49 63.6899 170.839 62.9365 170.386 61.9679C169.933 60.9992 169.702 59.8816 169.702 58.6066C169.702 57.1661 169.933 55.916 170.394 54.8563C170.856 53.7966 171.506 52.9852 172.347 52.4057C173.187 51.8344 174.167 51.5447 175.288 51.5447C176.771 51.5447 177.908 51.9917 178.715 52.8941C179.514 53.7966 179.909 55.1709 179.909 57.0088H172.174C172.124 57.4724 172.1 58.0023 172.1 58.5983C172.1 59.6912 172.273 60.6432 172.627 61.4546C172.981 62.2659 173.451 62.8951 174.036 63.3339C174.62 63.7727 175.238 63.9879 175.881 63.9879C176.672 63.9879 177.372 63.7975 177.982 63.4167C178.591 63.0359 179.102 62.3984 179.514 61.5043L180.008 61.7029L180 61.7112ZM173.179 53.1674C172.619 53.929 172.273 55.055 172.141 56.5452H177.529C177.562 55.2536 177.38 54.1774 176.977 53.3164C176.573 52.4554 175.98 52.0249 175.189 52.0249C174.398 52.0249 173.747 52.4057 173.187 53.1674H173.179Z" fill="#ADB4A4"/>
<path d="M52.2889 77.9875L50.1057 84.9584H49.6526L47.6012 78.9065C47.5765 78.8237 47.5518 78.7409 47.5353 78.6499C47.5189 78.7409 47.4941 78.8237 47.4694 78.9065L45.4181 84.9584H44.9732L42.79 77.9875H43.2102C43.3091 77.9875 43.3667 78.0289 43.3914 78.12L45.138 83.849C45.1709 83.9815 45.2039 84.1305 45.2368 84.2961C45.2533 84.2133 45.2698 84.1305 45.2863 84.056C45.3027 83.9815 45.3192 83.9153 45.3439 83.849L47.3047 78.12C47.3047 78.12 47.3376 78.0538 47.3706 78.0289C47.4035 78.0041 47.4447 77.9875 47.4859 77.9875H47.626C47.6754 77.9875 47.7083 77.9958 47.7413 78.0207C47.7743 78.0455 47.7907 78.0786 47.8072 78.12L49.7679 83.849C49.7926 83.9153 49.8091 83.9815 49.8256 84.056C49.8421 84.1305 49.8586 84.2133 49.875 84.2961C49.8915 84.2133 49.908 84.1388 49.9245 84.0643C49.9409 83.9898 49.9574 83.9236 49.9739 83.8573L51.7204 78.1283C51.7204 78.1283 51.7534 78.0621 51.7863 78.0372C51.8193 78.0124 51.8605 77.9958 51.9099 77.9958H52.2889V77.9875Z" fill="#ADB4A4"/>
<path d="M58.5006 84.5362V84.9584H54.332V77.9875H58.4842V78.4098H54.8346V81.2246H57.8745V81.6303H54.8346V84.5362H58.4924H58.5006Z" fill="#ADB4A4"/>
<path d="M66.6398 81.4647C66.6398 82.0028 66.5574 82.4913 66.4009 82.9135C66.2361 83.344 66.0137 83.7083 65.7254 84.0146C65.437 84.3209 65.0828 84.5445 64.6791 84.71C64.2754 84.8756 63.8223 84.9501 63.3362 84.9501H60.7988V77.9792H63.3362C63.8305 77.9792 64.2754 78.062 64.6791 78.2193C65.0828 78.3766 65.437 78.6084 65.7254 78.9148C66.0137 79.2211 66.2444 79.5854 66.4009 80.0159C66.5574 80.4464 66.6398 80.9266 66.6398 81.4647ZM66.1208 81.4647C66.1208 80.9762 66.0549 80.5457 65.9231 80.1649C65.7913 79.7841 65.6018 79.4612 65.3546 79.1963C65.1075 78.9313 64.8191 78.7326 64.4731 78.5919C64.1271 78.4511 63.7482 78.3849 63.3362 78.3849H61.3096V84.5362H63.3362C63.7482 84.5362 64.1271 84.4699 64.4731 84.3292C64.8191 84.1885 65.1075 83.9898 65.3546 83.7248C65.6018 83.4599 65.7913 83.137 65.9231 82.7562C66.0549 82.3754 66.1208 81.9366 66.1208 81.4481V81.4647Z" fill="#ADB4A4"/>
<path d="M74.8781 81.4647C74.8781 82.0028 74.7957 82.4913 74.6392 82.9135C74.4827 83.3357 74.252 83.7083 73.9636 84.0146C73.6753 84.3209 73.3211 84.5445 72.9174 84.71C72.5137 84.8673 72.0606 84.9501 71.5745 84.9501H69.0371V77.9792H71.5745C72.0606 77.9792 72.5137 78.062 72.9174 78.2193C73.3211 78.3766 73.6753 78.6084 73.9636 78.9148C74.252 79.2211 74.4827 79.5854 74.6392 80.0159C74.7957 80.4464 74.8781 80.9266 74.8781 81.4647ZM74.3591 81.4647C74.3591 80.9762 74.2932 80.5457 74.1614 80.1649C74.0296 79.7841 73.8401 79.4612 73.5929 79.1963C73.3458 78.9313 73.0574 78.7326 72.7114 78.5919C72.3654 78.4511 71.9864 78.3849 71.5745 78.3849H69.5479V84.5362H71.5745C71.9864 84.5362 72.3654 84.4699 72.7114 84.3292C73.0574 84.1885 73.3458 83.9898 73.5929 83.7248C73.8401 83.4599 74.0296 83.137 74.1614 82.7562C74.2932 82.3754 74.3591 81.9366 74.3591 81.4481V81.4647Z" fill="#ADB4A4"/>
<path d="M77.7701 84.9584H77.2676V77.9875H77.7701V84.9584Z" fill="#ADB4A4"/>
<path d="M85.9589 77.9875V84.9584H85.72C85.6788 84.9584 85.6458 84.9584 85.6129 84.9336C85.5881 84.917 85.5552 84.8922 85.5305 84.8591L81.0241 78.8072C81.0323 78.9065 81.0406 78.9976 81.0406 79.0886V84.9584H80.5957V77.9875H80.8429C80.8923 77.9875 80.9252 77.9875 80.95 78.0041C80.9747 78.0124 80.9994 78.0372 81.0323 78.0786L85.5305 84.114C85.5222 84.0146 85.514 83.9236 85.514 83.8325V77.9875H85.9506H85.9589Z" fill="#ADB4A4"/>
<path d="M94.3291 81.7959V84.2713C93.9831 84.5196 93.6124 84.7101 93.2252 84.8342C92.8298 84.9667 92.3931 85.0329 91.8988 85.0329C91.3468 85.0329 90.8608 84.9502 90.4159 84.7763C89.9793 84.6107 89.6003 84.3706 89.2955 84.056C88.9824 83.7414 88.7518 83.3689 88.587 82.9301C88.4222 82.4913 88.3398 82.0028 88.3398 81.4647C88.3398 80.9266 88.4222 80.4381 88.5788 79.9993C88.7435 79.5605 88.9742 79.188 89.2708 78.8734C89.5756 78.5588 89.9381 78.3187 90.3665 78.1531C90.7949 77.9876 91.2727 77.8965 91.8082 77.8965C92.0718 77.8965 92.319 77.913 92.5414 77.9544C92.7638 77.9876 92.9698 78.0455 93.1675 78.1117C93.357 78.1862 93.5382 78.269 93.703 78.3767C93.8678 78.476 94.0325 78.6002 94.1808 78.7327L94.0408 78.9479C93.9914 79.0224 93.9255 79.0473 93.8348 79.0059C93.7854 78.9893 93.7195 78.9396 93.6206 78.8651C93.53 78.7906 93.4064 78.7161 93.2417 78.6416C93.0851 78.5671 92.8792 78.4926 92.6485 78.4263C92.4096 78.3601 92.1213 78.3353 91.7835 78.3353C91.3304 78.3353 90.9267 78.4098 90.5642 78.5505C90.2017 78.6913 89.8887 78.8982 89.6333 79.1714C89.3779 79.4446 89.1802 79.7675 89.0401 80.1566C88.9001 80.5457 88.8341 80.9763 88.8341 81.4647C88.8341 81.9532 88.9001 82.392 89.0401 82.7811C89.1802 83.1702 89.3779 83.5013 89.6415 83.7745C89.9051 84.0477 90.2264 84.2547 90.5972 84.4037C90.9761 84.5445 91.3963 84.619 91.8659 84.619C92.0718 84.619 92.2613 84.6024 92.4343 84.5776C92.6073 84.5528 92.7721 84.5114 92.9368 84.47C93.1016 84.4286 93.2499 84.3623 93.3982 84.2961C93.5465 84.2299 93.6948 84.1471 93.8513 84.056V82.1767H92.5249C92.5249 82.1767 92.459 82.1684 92.4343 82.1436C92.4096 82.1187 92.4014 82.0939 92.4014 82.0691V81.7959H94.3127H94.3291Z" fill="#ADB4A4"/>
<path d="M105.764 81.7959V84.2713C105.418 84.5196 105.047 84.7101 104.66 84.8342C104.264 84.9667 103.828 85.0329 103.333 85.0329C102.781 85.0329 102.295 84.9502 101.85 84.7763C101.414 84.6107 101.035 84.3706 100.73 84.056C100.417 83.7414 100.186 83.3689 100.022 82.9301C99.8568 82.4913 99.7744 82.0028 99.7744 81.4647C99.7744 80.9266 99.8568 80.4381 100.013 79.9993C100.178 79.5605 100.409 79.188 100.705 78.8734C101.01 78.5588 101.373 78.3187 101.801 78.1531C102.229 77.9876 102.707 77.8965 103.243 77.8965C103.506 77.8965 103.754 77.913 103.976 77.9544C104.198 77.9876 104.404 78.0455 104.602 78.1117C104.792 78.1862 104.973 78.269 105.138 78.3767C105.302 78.476 105.467 78.6002 105.615 78.7327L105.475 78.9479C105.426 79.0224 105.36 79.0473 105.269 79.0059C105.22 78.9893 105.154 78.9396 105.055 78.8651C104.965 78.7906 104.841 78.7161 104.676 78.6416C104.52 78.5671 104.314 78.4926 104.083 78.4263C103.844 78.3601 103.556 78.3353 103.218 78.3353C102.765 78.3353 102.361 78.4098 101.999 78.5505C101.636 78.6913 101.323 78.8982 101.068 79.1714C100.812 79.4446 100.615 79.7675 100.475 80.1566C100.335 80.5457 100.269 80.9763 100.269 81.4647C100.269 81.9532 100.335 82.392 100.475 82.7811C100.615 83.1702 100.812 83.5013 101.076 83.7745C101.34 84.0477 101.661 84.2547 102.032 84.4037C102.411 84.5445 102.831 84.619 103.3 84.619C103.506 84.619 103.696 84.6024 103.869 84.5776C104.042 84.5528 104.207 84.5114 104.371 84.47C104.536 84.4286 104.684 84.3623 104.833 84.2961C104.981 84.2299 105.129 84.1471 105.286 84.056V82.1767H103.96C103.96 82.1767 103.894 82.1684 103.869 82.1436C103.844 82.1187 103.836 82.0939 103.836 82.0691V81.7959H105.747H105.764Z" fill="#ADB4A4"/>
<path d="M114.373 81.4647C114.373 82.0029 114.29 82.4913 114.134 82.9301C113.977 83.3689 113.747 83.7414 113.458 84.056C113.17 84.3706 112.816 84.6025 112.412 84.7763C112.008 84.9502 111.555 85.033 111.069 85.033C110.583 85.033 110.13 84.9502 109.726 84.7763C109.323 84.6107 108.977 84.3706 108.68 84.056C108.392 83.7414 108.161 83.3689 108.005 82.9301C107.848 82.4913 107.766 82.0029 107.766 81.4647C107.766 80.9266 107.848 80.4464 108.005 80.0076C108.161 79.5689 108.392 79.1963 108.68 78.8817C108.968 78.5671 109.323 78.327 109.726 78.1614C110.13 77.9876 110.583 77.9048 111.069 77.9048C111.555 77.9048 112.008 77.9876 112.412 78.1614C112.816 78.327 113.17 78.5754 113.458 78.8817C113.747 79.1963 113.977 79.5689 114.134 80.0076C114.29 80.4464 114.373 80.9349 114.373 81.4647ZM113.854 81.4647C113.854 80.9763 113.788 80.5458 113.656 80.1567C113.524 79.7676 113.335 79.4447 113.088 79.1715C112.84 78.8983 112.552 78.6996 112.206 78.5505C111.86 78.4098 111.481 78.3353 111.069 78.3353C110.657 78.3353 110.278 78.4098 109.932 78.5505C109.586 78.6913 109.298 78.8983 109.051 79.1715C108.804 79.4447 108.614 79.7676 108.474 80.1567C108.342 80.5458 108.268 80.9846 108.268 81.4647C108.268 81.9449 108.334 82.392 108.474 82.7728C108.614 83.1619 108.804 83.4848 109.051 83.758C109.298 84.0312 109.595 84.2299 109.932 84.3707C110.278 84.5114 110.657 84.5859 111.069 84.5859C111.481 84.5859 111.86 84.5197 112.206 84.3707C112.552 84.2299 112.84 84.0229 113.088 83.758C113.335 83.4848 113.524 83.1619 113.656 82.7728C113.788 82.3837 113.854 81.9532 113.854 81.4647Z" fill="#ADB4A4"/>
<path d="M122.917 81.4647C122.917 82.0029 122.834 82.4913 122.678 82.9301C122.521 83.3689 122.291 83.7414 122.002 84.056C121.714 84.3706 121.36 84.6025 120.956 84.7763C120.552 84.9502 120.099 85.033 119.613 85.033C119.127 85.033 118.674 84.9502 118.27 84.7763C117.867 84.6107 117.521 84.3706 117.224 84.056C116.936 83.7414 116.705 83.3689 116.548 82.9301C116.392 82.4913 116.31 82.0029 116.31 81.4647C116.31 80.9266 116.392 80.4464 116.548 80.0076C116.705 79.5689 116.936 79.1963 117.224 78.8817C117.512 78.5671 117.867 78.327 118.27 78.1614C118.674 77.9876 119.127 77.9048 119.613 77.9048C120.099 77.9048 120.552 77.9876 120.956 78.1614C121.36 78.327 121.714 78.5754 122.002 78.8817C122.291 79.1963 122.521 79.5689 122.678 80.0076C122.834 80.4464 122.917 80.9349 122.917 81.4647ZM122.398 81.4647C122.398 80.9763 122.332 80.5458 122.2 80.1567C122.068 79.7676 121.879 79.4447 121.632 79.1715C121.384 78.8983 121.096 78.6996 120.75 78.5505C120.404 78.4098 120.025 78.3353 119.613 78.3353C119.201 78.3353 118.822 78.4098 118.476 78.5505C118.13 78.6913 117.842 78.8983 117.595 79.1715C117.348 79.4447 117.158 79.7676 117.018 80.1567C116.886 80.5458 116.812 80.9846 116.812 81.4647C116.812 81.9449 116.878 82.392 117.018 82.7728C117.158 83.1619 117.348 83.4848 117.595 83.758C117.842 84.0312 118.138 84.2299 118.476 84.3707C118.822 84.5114 119.201 84.5859 119.613 84.5859C120.025 84.5859 120.404 84.5197 120.75 84.3707C121.096 84.2299 121.384 84.0229 121.632 83.758C121.879 83.4848 122.068 83.1619 122.2 82.7728C122.332 82.3837 122.398 81.9532 122.398 81.4647Z" fill="#ADB4A4"/>
<path d="M131.138 81.4647C131.138 82.0028 131.055 82.4913 130.899 82.9135C130.742 83.3357 130.512 83.7083 130.223 84.0146C129.935 84.3209 129.581 84.5445 129.177 84.71C128.773 84.8673 128.32 84.9501 127.834 84.9501H125.297V77.9792H127.834C128.32 77.9792 128.773 78.062 129.177 78.2193C129.581 78.3766 129.935 78.6084 130.223 78.9148C130.512 79.2211 130.742 79.5854 130.899 80.0159C131.055 80.4464 131.138 80.9266 131.138 81.4647ZM130.619 81.4647C130.619 80.9762 130.553 80.5457 130.421 80.1649C130.289 79.7841 130.1 79.4612 129.853 79.1963C129.606 78.9313 129.317 78.7326 128.971 78.5919C128.625 78.4511 128.246 78.3849 127.834 78.3849H125.808V84.5362H127.834C128.246 84.5362 128.625 84.4699 128.971 84.3292C129.317 84.1885 129.606 83.9898 129.853 83.7248C130.1 83.4599 130.289 83.137 130.421 82.7562C130.553 82.3754 130.619 81.9366 130.619 81.4481V81.4647Z" fill="#ADB4A4"/>
<path d="M136.896 78.8321C136.864 78.8901 136.822 78.9149 136.773 78.9149C136.732 78.9149 136.674 78.8818 136.608 78.8238C136.542 78.7659 136.452 78.6914 136.336 78.6251C136.221 78.5506 136.081 78.4844 135.908 78.4182C135.735 78.3519 135.521 78.3271 135.274 78.3271C135.026 78.3271 134.804 78.3602 134.606 78.4347C134.417 78.5092 134.252 78.6086 134.128 78.7328C133.997 78.857 133.898 79.006 133.832 79.1633C133.766 79.3206 133.733 79.5027 133.733 79.6766C133.733 79.9167 133.782 80.1071 133.881 80.2644C133.98 80.4217 134.112 80.5541 134.277 80.6618C134.441 80.7694 134.623 80.8605 134.837 80.935C135.043 81.0095 135.257 81.084 135.48 81.1502C135.702 81.2247 135.908 81.2992 136.122 81.3903C136.328 81.4814 136.518 81.589 136.682 81.7215C136.847 81.8539 136.979 82.0112 137.078 82.2099C137.177 82.4003 137.226 82.6404 137.226 82.9302C137.226 83.22 137.177 83.4932 137.078 83.7581C136.979 84.023 136.831 84.2383 136.641 84.4287C136.452 84.6191 136.221 84.7681 135.949 84.8758C135.677 84.9834 135.364 85.0413 135.01 85.0413C134.549 85.0413 134.161 84.9585 133.832 84.8012C133.502 84.6357 133.214 84.4204 132.967 84.1306L133.107 83.9154C133.148 83.8657 133.189 83.8409 133.247 83.8409C133.28 83.8409 133.313 83.8574 133.362 83.8988C133.412 83.9402 133.461 83.9899 133.527 84.0479C133.593 84.1058 133.667 84.1638 133.766 84.2383C133.865 84.3128 133.964 84.3707 134.087 84.4287C134.211 84.4866 134.351 84.5363 134.507 84.5694C134.664 84.6108 134.845 84.6274 135.043 84.6274C135.315 84.6274 135.562 84.586 135.776 84.5032C135.99 84.4204 136.172 84.3045 136.32 84.1638C136.468 84.023 136.583 83.8492 136.658 83.6505C136.74 83.4518 136.773 83.2365 136.773 83.013C136.773 82.7646 136.723 82.5659 136.625 82.4086C136.526 82.2513 136.394 82.1189 136.229 82.0112C136.064 81.9036 135.883 81.8125 135.677 81.7463C135.471 81.6718 135.257 81.6056 135.035 81.5393C134.812 81.4731 134.606 81.3903 134.392 81.3075C134.186 81.2247 133.997 81.1171 133.832 80.9764C133.667 80.8439 133.535 80.6783 133.436 80.4796C133.338 80.2809 133.288 80.0326 133.288 79.7345C133.288 79.5027 133.329 79.2792 133.42 79.0556C133.511 78.8404 133.634 78.65 133.807 78.4844C133.98 78.3188 134.186 78.1864 134.433 78.087C134.68 77.9877 134.969 77.938 135.29 77.938C135.653 77.938 135.974 77.9959 136.254 78.1118C136.542 78.2278 136.798 78.4016 137.037 78.6417L136.921 78.8652L136.896 78.8321Z" fill="#ADB4A4"/>
</g>
<defs>
<clipPath id="clip0_460_8898">
<rect width="180" height="85" fill="white" transform="translate(0 0.032959)"/>
</clipPath>
</defs>
</svg>
