<svg width="115" height="100" viewBox="0 0 115 100" fill="none" xmlns="http://www.w3.org/2000/svg">
<g clip-path="url(#clip0_460_8858)">
<path d="M52.9524 48.1013C52.9352 47.6052 53.0211 47.1177 53.0898 46.596C53.4849 44.3124 54.2664 42.063 55.4687 40.0616C56.1385 39.0353 56.7912 37.9918 57.6672 37.1194C58.0536 36.6918 58.5174 36.3753 58.9296 35.9819C59.3246 35.674 59.6939 35.3918 60.0546 35.1095C60.4324 34.8444 60.8103 34.5792 61.2053 34.297C62.0899 33.7068 63.1376 33.2535 64.1252 32.92C64.7951 32.6805 65.4649 32.4752 66.1262 32.27C67.1396 31.9621 68.1529 31.6456 69.1491 31.3719C70.2999 31.0555 71.4077 30.7818 72.4726 30.2771C72.8677 30.0975 73.2541 29.8837 73.6492 29.6956C74.1902 29.439 74.7226 29.2166 75.2293 28.9001C75.5814 28.6863 75.8992 28.4212 76.2083 28.156C76.7665 27.6771 77.2904 27.1639 77.7456 26.5994C78.029 26.2316 78.3038 25.8553 78.5356 25.5047C78.7847 25.1625 78.9908 24.8461 79.1797 24.7862C79.3687 24.7178 79.5061 24.829 79.5576 25.1112C79.6091 25.3935 79.5576 25.8468 79.3085 26.3856C79.1711 26.6849 78.9736 26.9672 78.7847 27.2409C78.5099 27.6172 78.2522 27.985 77.9431 28.3271C77.4364 28.8659 76.8353 29.2936 76.2255 29.6784C75.5385 30.1061 74.9631 30.4995 74.2761 30.8673C73.486 31.2778 72.6186 31.6028 71.7856 31.8851L70.0508 32.4325C69.5356 32.595 69.1062 32.766 68.6081 32.9371C67.5604 33.2877 66.4783 33.5358 65.4477 33.8608C63.8246 34.3483 62.2702 35.0411 60.9134 36.0076C60.5183 36.2641 60.1576 36.5806 59.8141 36.8799C59.4878 37.2306 59.1614 37.5813 58.8265 37.9405C58.6032 38.2056 58.3456 38.4708 58.088 38.7359C57.8475 39.0182 57.6156 39.3004 57.3838 39.5741C56.8942 40.2327 56.4477 40.934 56.0698 41.6696C55.7778 42.2768 55.4772 42.8926 55.2711 43.5341C55.065 44.0644 54.9362 44.7486 54.7301 45.2446C54.6442 45.4585 54.6013 45.7407 54.5498 45.9716C54.4124 46.5105 54.3608 47.075 54.3007 47.6309C54.2664 48.0842 54.2578 48.5546 54.2062 49.0165C54.2062 49.4783 54.1805 49.9316 54.1547 50.3593C54.1547 51.0606 53.9915 51.7448 53.7167 51.608C53.5192 51.5139 53.3045 51.206 53.1499 50.6244C53.107 50.4704 53.0812 50.3079 53.0641 50.1454C53.0211 49.8033 52.9954 49.4612 52.9696 49.1276C52.961 48.7941 52.9696 48.452 52.9696 48.1099L52.9524 48.1013Z" fill="#ADB4A4"/>
<path d="M77.806 20.2447C77.7373 19.5348 77.7201 18.8164 77.7545 18.0466C77.9434 14.6854 78.8451 11.2728 80.6142 8.35625C81.5417 6.82528 82.598 5.3713 83.8948 4.13113C84.5045 3.55809 85.1315 3.06203 85.8013 2.55741C86.3767 2.11266 86.9435 1.74489 87.5103 1.38567C87.7851 1.1975 88.0857 1.035 88.3691 0.863943L88.6095 0.727098L88.9874 0.521829C89.245 0.384984 89.5113 0.239585 89.7775 0.0941864L89.8891 0.0343164C89.8891 0.0343164 89.9664 -0.0341064 89.9836 0.0343164L90.121 0.265244L90.3958 0.744204L90.808 1.47975C90.9798 1.83897 91.1687 2.18964 91.3061 2.56596C91.6067 3.31006 91.8472 4.07126 92.0275 4.83247C92.268 5.85026 92.4569 6.88516 92.5256 7.9286C92.6544 9.51088 92.5857 11.1359 92.2508 12.6925C91.8729 14.4972 91.1515 16.1308 90.2756 17.7473C89.9407 18.346 89.58 18.9361 89.1592 19.4835C88.5838 20.2362 87.9139 20.852 87.2355 21.502C86.7546 21.9382 86.2736 22.3829 85.7755 22.7935C84.8566 23.529 83.8347 24.1534 82.7698 24.6409C82.0828 24.9659 81.3528 25.2139 80.6829 25.3593C80.2364 25.4534 79.807 25.4876 79.5408 25.4705V24.9659C79.5837 25.0258 79.6953 25.0429 79.7812 25.1027C79.8843 25.1883 79.8585 25.2738 79.807 25.3422C79.7383 25.3935 79.7555 25.5218 79.4119 25.5475L78.4587 25.6159L79.4033 24.8889C79.7039 24.658 80.2278 24.4271 80.9234 24.1192C81.3099 23.9481 81.7307 23.7942 82.1171 23.5974C82.6667 23.3323 83.1562 23.0073 83.6629 22.6823C84.4788 22.1606 85.2689 21.6046 86.016 20.9888C86.849 20.2789 87.4588 19.5434 88.0857 18.6966C88.8156 17.7216 89.4855 16.6611 89.9922 15.5578C90.3357 14.7965 90.6363 14.0011 90.8338 13.1801C91.0227 12.4445 91.0742 11.803 91.1429 11.0761C91.2718 9.53654 91.2546 7.95426 91.0313 6.4233C90.8424 5.2259 90.5075 4.03705 90.0265 2.90808C89.8032 2.38635 89.4082 1.60804 89.4511 1.71923C89.3824 1.73633 89.2622 1.80476 89.1763 1.84752L88.3777 2.30938C87.7851 2.67715 87.1925 3.05347 86.6687 3.49822C86.1105 3.95152 85.6124 4.44759 85.0971 4.95221C84.3671 5.68775 83.5599 6.48317 82.9158 7.3299C82.1772 8.29638 81.5245 9.33127 81.0007 10.426C80.5713 11.3241 80.2106 12.2563 79.9272 13.2143C79.6782 14.0182 79.5236 15.036 79.3346 15.7972C79.2574 16.1222 79.2058 16.5413 79.1715 16.892C79.077 17.7131 79.0512 18.5427 79.0856 19.3638C79.1371 20.7066 79.2831 22.1349 79.4635 23.3836C79.618 24.41 79.6953 25.385 79.3604 25.2139C79.1371 25.0856 78.7936 24.6836 78.5102 23.854C78.4329 23.6402 78.3728 23.4093 78.3041 23.1783C78.0379 22.2033 77.9005 21.254 77.8146 20.2533L77.806 20.2447Z" fill="#ADB4A4"/>
<path d="M92.9118 16.4558C93.4786 16.3104 94.054 16.1735 94.6809 16.088C97.4119 15.6774 100.237 15.5064 103.011 15.8143C103.372 15.8571 103.741 15.8913 104.102 15.9426L104.643 16.011L105.519 16.1564L106.446 16.3189C106.567 16.3018 106.489 16.413 106.481 16.4814L106.412 16.7123L106.275 17.1742L106 18.0894L105.802 18.6111C105.682 18.9361 105.536 19.244 105.381 19.5519C105.235 19.8598 105.072 20.1591 104.909 20.4585C104.334 21.5105 103.758 22.3829 103.071 23.3323C102.324 24.3672 101.319 25.2994 100.297 26.0777C99.619 26.6166 98.889 27.0784 98.1418 27.5232C96.9997 28.1732 95.7716 28.7377 94.5006 29.0798C93.0235 29.4732 91.5635 29.6101 90.0349 29.6614C89.4681 29.6614 88.8927 29.687 88.3259 29.6101C87.5444 29.5331 86.8231 29.3278 86.0673 29.1396C85.552 29.0114 85.0196 28.8831 84.5129 28.7291C83.5768 28.464 82.6837 28.0534 81.8249 27.6001C81.2839 27.2922 80.7428 26.9501 80.322 26.5738C79.8926 26.206 79.5921 25.8126 79.5749 25.6159C79.5491 25.1882 80.2533 25.3422 81.3526 25.9409C81.6532 26.1205 81.9795 26.2915 82.2887 26.4626C82.7352 26.685 83.1904 26.8646 83.6541 27.0356C84.3927 27.335 85.1398 27.6172 85.9041 27.8567C86.7715 28.1133 87.5616 28.1988 88.4204 28.2758C89.4166 28.3699 90.4557 28.4127 91.4605 28.3186C92.1561 28.2673 92.8431 28.1646 93.5216 27.9936C94.1227 27.8396 94.6208 27.6514 95.179 27.412C96.3642 26.9245 97.5321 26.3685 98.6056 25.6586C100.289 24.5724 101.766 23.0757 102.891 21.4079C103.209 20.9375 103.526 20.4499 103.75 19.9368C103.999 19.4065 104.196 18.8677 104.402 18.3117C104.471 18.115 104.548 17.9097 104.626 17.7045L104.677 17.5676L104.712 17.4992C104.832 17.3624 104.617 17.3709 104.505 17.3281L103.818 17.217C103.569 17.1742 103.312 17.14 103.063 17.1143C102.556 17.0545 102.049 17.0202 101.543 16.986C100.71 16.9433 99.868 16.9347 99.035 16.9775C98.3308 17.0031 97.4806 17.1143 96.8193 17.1314C96.5359 17.1314 96.1924 17.1742 95.8918 17.217C95.2048 17.3025 94.5264 17.4222 93.8479 17.5762C92.7487 17.8242 91.5807 18.0979 90.5588 18.3288C89.7086 18.517 88.8841 18.5769 88.9958 18.2519C89.0817 18.0295 89.3822 17.713 90.0349 17.4137C90.2067 17.3453 90.387 17.2683 90.5674 17.1913C91.3317 16.8834 92.096 16.6781 92.8861 16.4558H92.9118Z" fill="#ADB4A4"/>
<path d="M92.6023 2.18105C92.86 2.12118 93.1262 2.07841 93.4096 2.05275C94.6548 1.95012 95.9172 1.76196 97.1711 1.70209C97.4974 1.70209 97.8066 1.63366 98.2617 1.65932C98.485 1.67643 98.7426 1.72774 99.0003 1.87314C99.2579 2.01854 99.4898 2.27513 99.6014 2.54027C99.8075 3.04488 99.7216 3.42976 99.6959 3.75477C99.6358 4.2936 99.5928 4.73835 99.6186 5.26007C99.6444 5.81601 99.5499 6.40616 99.4812 6.96209C99.4382 7.33842 99.4039 7.71474 99.3781 8.09107C99.3352 8.66411 99.3266 9.24571 99.2665 9.81875C99.1892 10.4773 99.0862 11.1017 99.0432 11.7945C99.026 12.051 99.0174 12.3162 98.9659 12.5728C98.8886 12.9234 98.7426 13.2484 98.631 13.5991L98.4077 14.3347C98.2617 14.7794 98.0384 15.2156 97.7293 15.5919C97.5317 15.8314 97.2999 16.0623 97.0336 16.1906C96.7846 16.336 96.5098 16.3446 96.381 16.2676C96.1062 16.0623 96.1835 15.6347 96.4583 15.2498C96.5356 15.1386 96.6386 15.036 96.7159 14.9162C96.8275 14.7537 96.8962 14.5656 96.9735 14.3774C97.1024 14.0781 97.2741 13.7958 97.4029 13.4708C97.5489 13.103 97.5833 12.7524 97.6348 12.3675C97.7035 11.9227 97.798 11.4609 97.8495 10.999C97.8924 10.6826 97.9268 10.349 97.944 10.024C97.9611 9.73322 97.9354 9.47663 97.9354 9.18584C97.9354 8.57858 98.0298 7.97133 98.1071 7.36408C98.2274 6.42326 98.3047 5.45679 98.3819 4.50742C98.4077 4.24228 98.4335 3.96859 98.4249 3.70345C98.4163 3.44687 98.3648 3.23305 98.3132 3.14752C98.2703 3.08765 98.2961 3.0962 98.2617 3.06199C98.2359 3.02778 98.1157 2.97646 97.9611 2.96791C97.5919 2.9508 97.0508 2.99357 96.6128 3.02778C96.2264 3.06199 95.8485 3.10475 95.4707 3.14752C95.1529 3.19028 94.7665 3.27581 94.4573 3.25871C94.3285 3.25015 94.1653 3.27581 94.0279 3.28436C93.7101 3.31002 93.3924 3.35279 93.0832 3.41266C92.5766 3.49819 92.0183 3.5495 91.5288 3.51529C91.1166 3.48963 90.7216 3.31002 90.7731 3.04488C90.8075 2.85672 90.9534 2.65145 91.2626 2.51461C91.3399 2.4804 91.4258 2.45474 91.5117 2.42908C91.8723 2.31789 92.2159 2.25802 92.5851 2.18105H92.6023Z" fill="#ADB4A4"/>
<path d="M99.6188 4.43898C99.7047 4.38766 99.7992 4.3449 99.9022 4.32779C100.357 4.23371 100.778 4.01134 101.225 3.87449C101.457 3.79751 101.663 3.65211 101.903 3.59224C102.015 3.56659 102.135 3.56659 102.247 3.54093C102.384 3.50672 102.753 3.37842 103.08 3.36132C103.475 3.32711 103.853 3.57514 104.076 3.87449C104.239 4.07121 104.351 4.30213 104.411 4.54161C104.48 4.84951 104.54 5.00347 104.557 5.2515C104.574 5.51664 104.531 5.78178 104.574 6.06402C104.591 6.16665 104.617 6.27784 104.6 6.38048C104.583 6.52587 104.488 6.65417 104.454 6.79957C104.428 6.89365 104.437 6.99628 104.428 7.09036C104.428 7.26997 104.385 7.44103 104.316 7.60353C104.273 7.70617 104.222 7.8088 104.127 7.88578C104.033 7.96275 103.896 8.00552 103.75 7.98841C103.44 7.94565 103.131 7.74038 103.097 7.51801C103.088 7.45814 103.114 7.39827 103.123 7.34695C103.131 7.26997 103.106 7.17589 103.106 7.09892C103.106 6.97062 103.183 6.85944 103.234 6.7397C103.294 6.60285 103.252 6.47456 103.252 6.34626C103.252 6.19231 103.286 6.02981 103.294 5.8673C103.294 5.75612 103.294 5.64493 103.277 5.52519C103.26 5.42256 103.2 5.33703 103.157 5.24295C103.114 5.14031 103.097 5.02912 103.088 4.91794C103.08 4.83241 103.097 4.84096 103.088 4.7982C103.088 4.68701 102.942 4.61003 102.839 4.63569C102.822 4.63569 102.814 4.63569 102.788 4.6528C102.736 4.6699 102.693 4.69556 102.65 4.72122C102.564 4.78964 102.479 4.85807 102.384 4.90938C102.247 4.98636 102.066 4.97781 101.92 5.01202C101.749 5.05478 101.577 5.11465 101.414 5.18308L101.01 5.35413C100.898 5.40545 100.77 5.49953 100.641 5.48243C100.589 5.48243 100.529 5.49953 100.478 5.51664C100.357 5.55085 100.246 5.58506 100.134 5.63638C99.9538 5.71335 99.7391 5.74756 99.533 5.69625C99.3612 5.65348 99.1465 5.46532 99.095 5.20873C99.0606 5.02912 99.0692 4.84096 99.1551 4.72977C99.1809 4.70412 99.2066 4.67846 99.2324 4.6528C99.344 4.55872 99.4729 4.51595 99.5931 4.44753L99.6188 4.43898Z" fill="#ADB4A4"/>
<path d="M99.6789 8.16811C99.8678 8.09969 100.057 8.04837 100.271 8.00561C101.199 7.8431 102.109 7.54375 103.037 7.32993C103.526 7.21875 103.981 7.03058 104.471 6.92795C104.729 6.87663 104.823 6.89374 105.338 6.774C106.008 6.61149 106.669 7.10756 106.635 7.76613C106.661 7.93719 106.678 8.12535 106.695 8.31351C106.695 8.45891 106.687 8.55299 106.678 8.67273C106.661 8.90366 106.618 9.13459 106.575 9.35696L106.42 10.255C106.334 10.7083 106.274 11.1702 106.128 11.6064C105.965 12.111 105.733 12.5643 105.57 13.0775C105.501 13.2656 105.458 13.4623 105.364 13.6334C105.235 13.8729 105.055 14.0781 104.909 14.3091C104.814 14.4716 104.737 14.6426 104.651 14.8051C104.505 15.113 104.316 15.3953 104.11 15.669C103.973 15.84 103.835 16.0111 103.655 16.1223C103.483 16.2335 103.286 16.2933 103.14 16.242C102.839 16.1308 102.693 15.7374 102.882 15.3354C102.934 15.2242 103.011 15.1301 103.08 15.019C103.174 14.8736 103.217 14.7025 103.303 14.5571C103.432 14.3091 103.612 14.1038 103.775 13.8814C103.964 13.6248 104.033 13.3597 104.153 13.086C104.291 12.7695 104.462 12.4531 104.6 12.1366C104.694 11.9143 104.78 11.6919 104.849 11.461C104.9 11.2471 104.909 11.0675 104.935 10.8537C104.995 10.4175 105.132 9.98987 105.218 9.55368C105.287 9.22011 105.347 8.86945 105.373 8.51878L105.398 8.18522C105.398 8.1168 105.407 8.07403 105.39 8.05693C105.373 8.02271 105.321 8.02271 105.287 8.06548C105.287 8.06548 105.278 8.09114 105.27 8.09969C105.27 8.09969 105.27 8.09969 105.261 8.1168L105.192 8.14245C105.098 8.18522 105.003 8.21943 104.9 8.25364C104.608 8.35628 104.265 8.37338 103.956 8.43325C103.604 8.51023 103.251 8.59576 102.899 8.68984L102.041 8.92932C101.8 8.99774 101.517 9.12603 101.276 9.11748C101.173 9.11748 101.053 9.15169 100.95 9.1688C100.709 9.22011 100.469 9.27998 100.237 9.34841C99.8506 9.45959 99.4298 9.51946 99.0434 9.49381C98.7256 9.4767 98.3907 9.29709 98.4079 9.03195C98.4164 8.84379 98.5109 8.63852 98.7256 8.51023C98.7857 8.47602 98.8458 8.45036 98.906 8.4247C99.1636 8.30496 99.4212 8.24509 99.6875 8.15101L99.6789 8.16811Z" fill="#ADB4A4"/>
<path d="M66.0749 29.516C65.9118 29.0798 65.8087 28.6094 65.7658 28.1133C65.6799 27.0271 65.7744 25.958 65.9375 24.9317C66.1093 23.9053 66.324 22.9047 66.5902 21.9125C66.8736 20.8691 67.1312 19.8256 67.5263 18.8164C67.7066 18.346 67.9299 17.9183 68.1274 17.4565C68.5311 16.5413 68.8832 15.7545 69.2782 14.8564C69.304 14.8051 69.3211 14.7538 69.3469 14.7025C69.5788 14.4886 69.7591 14.1465 70.0683 14.1209C70.386 14.0696 70.8154 14.1209 70.9443 14.4031L71.3908 15.4209C71.4595 15.5834 71.5454 15.7716 71.5969 15.9084L71.6742 16.2505C71.8288 16.8663 71.9404 17.4907 72.0521 18.1151C72.1895 19.0644 72.3527 20.0309 72.3441 20.9974C72.3612 22.1092 72.2582 23.1698 72.1723 24.2817C72.1466 24.7008 72.1208 25.1113 72.0349 25.5218C71.9404 26.0863 71.7343 26.5995 71.6055 27.1554C71.4939 27.5318 71.4166 27.9166 71.3221 28.3015L71.013 29.3279L70.6179 30.3285C70.4204 30.7476 70.2143 31.1667 69.9652 31.5003C69.7162 31.8338 69.4414 32.0904 69.2696 32.1161C68.8918 32.1503 68.823 31.5687 69.1494 30.6878C69.2353 30.4397 69.3555 30.2002 69.4585 29.9522C69.5874 29.6015 69.6732 29.2509 69.7849 28.8917C69.9481 28.3186 70.1799 27.7627 70.3517 27.1982C70.5492 26.5567 70.6265 25.9666 70.721 25.3251C70.8412 24.581 70.9614 23.8198 71.013 23.0672C71.0645 22.5454 71.0645 22.0237 71.0731 21.502C71.0473 21.0316 70.9958 20.6381 70.9357 20.1848C70.824 19.2355 70.721 18.269 70.5578 17.3282C70.4633 16.8321 70.2744 16.0196 70.283 16.0709C70.2572 16.0025 70.2572 15.9084 70.2057 15.9084C70.1456 15.8999 70.137 15.9597 70.1112 16.0025L69.7935 16.6696C69.6131 17.0631 69.4328 17.4565 69.2954 17.8585C69.158 18.2776 69.0292 18.6967 68.8918 19.1243C68.6942 19.7401 68.4022 20.3816 68.1961 21.0059C67.9643 21.7244 67.7582 22.4514 67.5864 23.1869C67.449 23.7942 67.3288 24.4014 67.2343 25.0087C67.1484 25.5218 67.1227 26.1376 67.0454 26.5995C67.011 26.7962 67.0024 27.0442 67.0024 27.2495C67.0024 27.737 67.0539 28.216 67.1656 28.6693C67.3545 29.4134 67.6551 30.1575 68.0244 30.7647C68.3078 31.2694 68.6513 31.774 68.3765 31.8937C68.179 31.9707 67.8011 31.9365 67.3459 31.5516C67.2343 31.449 67.1141 31.3378 67.011 31.218C66.5644 30.7049 66.281 30.1233 66.0492 29.5075L66.0749 29.516Z" fill="#ADB4A4"/>
<path d="M65.9541 35.0925C66.2461 35.2635 66.5295 35.4517 66.8387 35.657C68.1698 36.5721 69.6813 37.2307 71.1927 37.8037C71.4933 37.9149 71.7939 38.0176 72.0944 38.0945L73.0992 38.3682C73.52 38.4794 73.855 38.7959 73.9924 39.1807C74.1212 39.54 74.0782 39.9334 73.8807 40.2413C73.7691 40.3781 73.6231 40.5578 73.52 40.6433L73.271 40.8742C72.6698 41.3959 72.0944 41.7466 71.4332 42.1144C70.7032 42.5164 69.8272 42.6789 69.0286 42.7644C68.4875 42.8243 67.9551 42.8499 67.4227 42.8585C66.6154 42.8585 65.8081 42.8841 64.9665 42.7216C64.0133 42.5249 63.0428 42.1058 62.2785 41.3018C62.0037 41.0025 61.7633 40.6689 61.6087 40.3012C61.4026 39.7965 61.3682 39.2834 61.3339 38.7788C61.3167 38.4281 61.2995 38.0689 61.3167 37.7268C61.351 37.1109 61.4541 36.5294 61.6001 35.9563C61.6946 35.5885 61.8062 35.2208 61.9522 34.9129C62.0982 34.605 62.2957 34.3569 62.4675 34.3142C62.8196 34.2372 63.0343 34.7076 62.9398 35.4774C62.914 35.6912 62.8453 35.9136 62.811 36.1274C62.7509 36.4353 62.7423 36.7346 62.7079 37.034C62.6564 37.5215 62.5447 37.9748 62.5276 38.411C62.5104 38.9156 62.6564 39.3347 62.8367 39.7538C63.0514 40.2327 63.352 40.6518 63.79 40.9426C64.0991 41.1393 64.4513 41.2933 64.8377 41.3788C65.1898 41.4558 65.499 41.4558 65.8682 41.4644C66.6326 41.4815 67.4484 41.5328 68.2213 41.5071C69.4322 41.4644 70.6431 41.1821 71.6307 40.5749C71.9141 40.4038 72.1803 40.2156 72.395 39.9847C72.4895 39.8821 72.6612 39.6768 72.6097 39.7025C72.6097 39.6854 72.5925 39.6768 72.5754 39.6768C72.5582 39.6768 72.5754 39.6768 72.5754 39.6597C72.6097 39.6597 72.5152 39.634 72.438 39.6084L72.2233 39.5314C72.0773 39.4801 71.9399 39.4288 71.8025 39.3775C71.1841 39.1722 70.5744 38.9413 69.9647 38.7018C69.4666 38.5051 68.9685 38.2912 68.4875 38.0689C68.0753 37.8807 67.5601 37.6669 67.2251 37.4103C67.0791 37.2991 66.8816 37.1879 66.7184 37.0938L65.5934 36.384C64.9837 35.9991 64.3825 35.503 63.9446 34.9984C63.5753 34.5793 63.3778 34.0661 63.644 33.9635C63.8329 33.8865 64.1335 33.9122 64.5028 34.1174C64.5972 34.1688 64.7003 34.2286 64.7948 34.2971C65.1984 34.5622 65.5763 34.8102 65.9799 35.0754L65.9541 35.0925Z" fill="#ADB4A4"/>
<path d="M72.1717 30.9101C72.3778 30.8673 72.5839 30.8416 72.8072 30.8331C73.7862 30.8331 74.7738 30.7219 75.7528 30.7903C76.2681 30.8074 76.7834 30.7903 77.2987 30.8502C77.5391 30.8844 77.7624 30.9614 78.0029 31.0041C78.4151 31.064 78.7672 31.141 79.188 31.141C79.6431 31.141 80.0897 31.3035 80.5191 31.4061L81.3865 31.6456C81.833 31.7482 82.2796 31.868 82.709 32.0134C83.1985 32.2186 83.6537 32.4325 84.1518 32.6121C84.3407 32.672 84.5296 32.7318 84.71 32.8173C84.959 32.9371 85.148 33.1253 85.3884 33.2621C85.5516 33.3562 85.7319 33.416 85.8951 33.493C86.2043 33.6384 86.5048 33.7924 86.7882 33.9805C86.9686 34.1088 87.1403 34.2371 87.2777 34.3996C87.4066 34.5621 87.4924 34.7417 87.4495 34.8957C87.3722 35.2121 86.9858 35.3918 86.5564 35.2378C86.4361 35.195 86.3331 35.1181 86.2214 35.0582C86.0669 34.9727 85.8865 34.9385 85.7233 34.8615C85.4571 34.7503 85.2424 34.5621 85.002 34.4082C84.7272 34.2371 84.4609 34.1516 84.1775 34.0319C83.8426 33.895 83.5249 33.7154 83.1985 33.57C82.9666 33.4759 82.7434 33.3818 82.5029 33.2963C82.2968 33.2193 82.0993 33.2193 81.8846 33.1766C81.438 33.0825 81.0086 32.92 80.5706 32.7831C79.8922 32.5693 79.1708 32.4154 78.4666 32.3042C78.2691 32.27 78.063 32.2358 77.8655 32.2443C77.6508 32.2443 77.4447 32.2614 77.2385 32.2529C76.938 32.2529 76.6116 32.1588 76.3025 32.1246C75.9504 32.0818 75.5897 32.0818 75.2376 32.0733C74.9456 32.0733 74.6536 32.0904 74.3616 32.0989C74.1126 32.0989 73.8206 32.1759 73.5887 32.1246C73.4857 32.1075 73.3654 32.116 73.2624 32.1246C73.0219 32.1246 72.7814 32.1502 72.541 32.1844C72.1545 32.2358 71.7337 32.2358 71.3559 32.1844C71.0467 32.1331 70.7289 31.9193 70.7633 31.6627C70.7891 31.4746 70.9007 31.2864 71.1412 31.1752C71.2013 31.1495 71.27 31.1239 71.3387 31.1068C71.6221 31.0127 71.8969 30.9785 72.1803 30.9272L72.1717 30.9101Z" fill="#ADB4A4"/>
<path d="M89.013 32.7233C89.4166 32.4496 89.8374 32.2016 90.3012 31.9621C91.3403 31.4575 92.4224 30.9871 93.5903 30.7048C94.1657 30.5509 94.784 30.4739 95.3766 30.4311C95.9606 30.3969 96.5359 30.3884 97.0942 30.3884C98.2707 30.3884 99.4043 30.3029 100.443 30.0634C100.692 30.0121 100.924 29.9522 101.156 29.8838C101.276 29.8496 101.388 29.8068 101.5 29.764L101.68 29.687C101.74 29.6614 101.895 29.5759 101.998 29.516C102.213 29.3877 102.41 29.2594 102.599 29.0969L102.857 28.9429L103.054 28.8916C103.2 28.8489 103.252 28.8745 103.346 28.8574C103.406 28.8574 103.466 28.8574 103.526 28.8745C103.604 28.8916 103.724 28.9429 103.827 29.0285C103.93 29.114 103.999 29.2081 104.016 29.2851L104.059 29.5844L104.11 29.8838C104.128 29.9864 104.025 30.2002 103.982 30.3542C103.913 30.5765 103.836 30.7904 103.767 31.0127C103.724 31.1239 103.681 31.2437 103.63 31.3549L103.509 31.6114C103.398 31.868 103.26 32.1075 103.123 32.347C102.839 32.8259 102.513 33.2792 102.178 33.6983C101.723 34.2628 101.216 34.7846 100.684 35.2721C99.8594 36.0076 98.9405 36.6662 97.9358 37.128C96.7592 37.6412 95.5397 37.9149 94.2687 38.0688C93.7964 38.1287 93.3155 38.1629 92.8346 38.1458C92.1733 38.0945 91.5636 37.9662 90.9281 37.8123C90.4901 37.7182 90.0521 37.6241 89.6141 37.4958C88.8326 37.2734 88.0683 36.9484 87.3813 36.5208C86.9261 36.2556 86.4967 35.9392 86.1704 35.5971C85.8355 35.2721 85.6294 34.8957 85.638 34.7161C85.6809 34.3227 86.282 34.4595 87.1494 34.9727C87.3985 35.101 87.6303 35.2892 87.8966 35.4175C88.2487 35.6142 88.6265 35.7425 88.9958 35.8964C89.597 36.1273 90.1895 36.3754 90.8078 36.5635C91.512 36.7603 92.1561 36.7859 92.8518 36.8201C93.659 36.8372 94.5006 36.803 95.2993 36.6491C95.8489 36.5464 96.3899 36.3839 96.9138 36.1701C97.3776 35.9648 97.7468 35.7425 98.1505 35.4688C99.0178 34.9128 99.8594 34.2799 100.572 33.5273C101.13 32.9457 101.629 32.2871 102.041 31.5772C102.144 31.3976 102.247 31.218 102.333 31.0384L102.393 30.9101L102.419 30.8588C102.436 30.7904 102.496 30.7219 102.47 30.6535C102.401 30.6193 102.367 30.7134 102.298 30.7476L102.264 30.7818C102.333 30.7733 101.981 30.9529 101.749 31.0641C101.5 31.1838 101.242 31.2779 100.976 31.3549C100.203 31.5943 99.3356 31.62 98.5713 31.6457L95.9863 31.6799C95.2907 31.697 94.6638 31.7654 94.0197 31.9193C93.4787 32.0391 92.8518 32.3128 92.3451 32.4496C92.1218 32.5095 91.8727 32.6207 91.6495 32.7233C91.1428 32.9457 90.6447 33.2108 90.1638 33.5102C89.3823 33.9891 88.5406 34.5109 87.7763 34.9299C87.1408 35.2806 86.4796 35.4859 86.4624 35.1694C86.4624 34.9471 86.5998 34.6049 87.0292 34.1944C87.1408 34.0832 87.2611 33.9806 87.3813 33.8779C87.8966 33.4418 88.429 33.074 88.9958 32.6891L89.013 32.7233Z" fill="#ADB4A4"/>
<path d="M83.6284 37.3761C83.3536 37.6925 83.0788 38.0175 82.7868 38.3597C81.4814 39.8735 80.5883 41.738 80.0386 43.6453C79.7552 44.6546 79.6093 45.7066 79.5921 46.6901C79.5921 47.152 79.5921 47.5967 79.6951 48.0244C79.8755 48.7599 80.2533 49.3244 80.8545 49.6067C81.4814 49.906 82.3144 49.9488 83.0787 49.6922C83.5854 49.5211 84.0578 49.2218 84.427 48.8369C84.9938 48.2382 85.3545 47.4171 85.6122 46.5704C85.9127 45.5868 86.0759 44.5605 86.0759 43.4572L86.0587 42.2341C86.0673 41.6696 86.1189 41.1393 86.0931 40.5748C86.0759 40.19 86.0158 39.7965 85.9557 39.4202C85.844 38.7274 85.7238 38.0347 85.595 37.3419C85.5091 36.8971 85.4232 36.4438 85.3803 36.0333C85.3374 35.6227 85.3374 35.2464 85.449 35.101C85.6723 34.7931 86.179 35.1523 86.5311 36.1274C86.6255 36.3925 86.6856 36.6919 86.7543 36.9741C86.8574 37.3761 86.9776 37.7524 87.0635 38.1544C87.2009 38.7959 87.2353 39.463 87.261 40.113C87.2954 40.8485 87.3727 41.4815 87.3899 42.1999C87.407 43.021 87.3383 43.8591 87.2524 44.6802C87.1923 45.2533 87.0979 45.8178 86.9776 46.3993C86.866 46.9125 86.7801 47.3658 86.5998 47.8619C86.2305 48.9053 85.449 49.9231 84.4099 50.5133C83.6112 50.9666 82.6923 51.2403 81.7305 51.1718C80.7686 51.1291 79.7896 50.6074 79.2228 49.8376C78.8879 49.4014 78.6732 48.9139 78.5014 48.4349C78.3297 47.9303 78.218 47.4257 78.1837 46.904C78.1236 46.1599 78.2867 45.3559 78.4413 44.6631C78.6131 43.8506 78.8192 43.0466 79.1026 42.2683C79.3259 41.6269 79.5921 40.9939 79.8927 40.3867C80.1417 39.8735 80.4509 39.2321 80.803 38.8215C80.9575 38.6419 81.1035 38.4024 81.2495 38.2143C81.5845 37.761 81.9452 37.3248 82.3144 36.8971C82.907 36.1958 83.6713 35.5543 84.4013 35.1267C85.011 34.7675 85.6723 34.6392 85.6637 34.9471C85.6637 35.1694 85.5177 35.4773 85.157 35.8451C85.0625 35.9392 84.9595 36.0418 84.8564 36.1359C84.427 36.555 84.0148 36.9399 83.6198 37.3846L83.6284 37.3761Z" fill="#ADB4A4"/>
<path d="M88.9444 42.8415C89.202 43.0296 89.4596 43.2264 89.7344 43.4316C90.9282 44.3724 92.3366 45.0481 93.7536 45.6126C94.5093 45.8948 95.2908 46.083 96.0637 46.2797C96.4244 46.3824 96.7679 46.4935 97.1372 46.562C97.7727 46.6903 98.3395 46.7672 98.975 46.733C99.3185 46.7245 99.6706 46.733 100.023 46.733L100.521 46.7501H100.641C100.701 46.7672 100.77 46.7672 100.744 46.7501V46.7245L100.701 46.5534C100.547 45.8606 100.289 45.1935 100.066 44.5264C99.808 43.7566 99.5418 43.004 99.1296 42.2855C98.9836 42.0204 98.8032 41.7638 98.6572 41.4901C98.4511 41.1224 98.3137 40.7375 98.0818 40.3783C97.9273 40.1302 97.7469 39.8993 97.558 39.6769L96.5532 38.4453C96.3385 38.1802 96.1152 37.915 95.9435 37.6499C95.7717 37.3933 95.6601 37.1196 95.703 36.9486C95.7889 36.6064 96.3127 36.5979 96.9311 37.094C97.0942 37.2394 97.2574 37.4019 97.4034 37.5729C97.6181 37.8038 97.8586 37.992 98.0647 38.2315C98.4082 38.6078 98.6658 39.044 98.9235 39.4717C99.2154 39.9592 99.516 40.3355 99.7994 40.8059C100.117 41.3447 100.392 41.9349 100.632 42.5079C100.804 42.9013 100.959 43.3119 101.122 43.7053C101.268 44.0645 101.423 44.3553 101.56 44.7146C101.715 45.0909 101.818 45.4758 101.912 45.8692L102.049 46.5107L102.238 47.5969L102.273 47.8021L102.29 47.9048C102.29 47.9048 102.307 47.9732 102.256 47.9646L101.852 47.9817L101.062 48.016C100.452 48.0502 100.229 48.0331 99.8939 48.0331C99.2584 48.0331 98.6229 47.9817 97.996 47.9133C97.6439 47.8706 97.2832 47.8278 96.9397 47.785C96.5704 47.7508 96.2097 47.7337 95.8404 47.6567C95.308 47.5712 94.7669 47.3317 94.2431 47.1692C93.6591 46.9554 93.0665 46.7416 92.4911 46.4935C92.0188 46.2968 91.5465 46.0745 91.0913 45.8521C90.7049 45.6554 90.2154 45.4415 89.9062 45.1679C89.7688 45.0567 89.5885 44.9455 89.4339 44.8428L88.4033 44.0902C87.8451 43.6797 87.3127 43.1579 86.9348 42.6277C86.6256 42.1829 86.4882 41.6783 86.7716 41.6013C86.9692 41.5414 87.2526 41.5842 87.5875 41.8151C87.6734 41.875 87.7592 41.9434 87.8451 42.0118C88.223 42.277 88.5236 42.5763 88.9014 42.8329L88.9444 42.8415Z" fill="#ADB4A4"/>
<path d="M87.9311 45.6209C88.0514 45.7492 88.163 45.8861 88.2661 46.0486C88.7212 46.7499 89.3052 47.3743 89.8205 48.0499C90.0953 48.4092 90.4216 48.7085 90.6792 49.0848C90.7995 49.2644 90.8768 49.4441 90.997 49.598C91.1945 49.8717 91.3835 50.0941 91.6497 50.248C91.9331 50.4105 92.1564 50.6158 92.4054 50.727C92.5686 50.7954 92.7403 50.8296 92.9121 50.8211C93.1783 50.804 93.4445 50.6757 93.7108 50.5474C94.0113 50.3934 94.3377 50.1882 94.5266 49.8631C94.5953 49.7434 94.6468 49.6151 94.7241 49.4954C94.8272 49.3329 94.9818 49.1789 95.0676 48.9908C95.1278 48.8625 95.1535 48.7085 95.1879 48.5631C95.2394 48.298 95.2995 48.0328 95.3768 47.7591C95.4283 47.5881 95.4799 47.4085 95.5743 47.2545C95.6688 47.1006 95.8062 46.9723 95.9608 46.9552C96.2785 46.9124 96.6049 47.1604 96.6306 47.5881C96.6306 47.7078 96.6049 47.8276 96.5877 47.9473C96.5619 48.1184 96.5791 48.2894 96.5533 48.4605C96.519 48.7342 96.3902 48.9993 96.2614 49.2559C96.1154 49.5467 96.0552 49.8289 95.9093 50.1197C95.7461 50.4533 95.4713 50.7697 95.1965 51.0263C95.0075 51.2059 94.7928 51.377 94.5781 51.531C94.3806 51.6678 94.226 51.8132 94.0027 51.9329C93.539 52.1895 92.9464 52.2323 92.4054 52.1125C91.5552 51.9158 90.9111 51.377 90.4388 50.8553C90.3014 50.7099 90.1811 50.5474 90.0352 50.4191C89.8892 50.2822 89.7346 50.1454 89.6058 50.0085C89.4168 49.8033 89.288 49.5296 89.1248 49.3072C88.9359 49.0421 88.7384 48.794 88.5323 48.5375L88.017 47.9302C87.871 47.7591 87.6563 47.571 87.579 47.3743C87.5447 47.2887 87.4674 47.2032 87.4159 47.1262C87.287 46.9466 87.1496 46.767 87.0122 46.596C86.7804 46.3137 86.5828 45.9802 86.4884 45.638C86.4025 45.3558 86.4712 45.0051 86.7202 44.9196C86.9006 44.8597 87.1153 44.8597 87.2956 44.988C87.3472 45.0222 87.3901 45.065 87.433 45.0992C87.622 45.2703 87.7594 45.4584 87.9311 45.638V45.6209Z" fill="#ADB4A4"/>
<path d="M13.8498 42.3591C13.8498 42.982 13.8736 43.4788 13.9131 43.8644H13.431C13.0912 42.2405 12.6328 41.1059 12.048 40.446C11.4632 39.786 10.665 39.4597 9.65349 39.4597H9.17143V50.7458C9.17143 51.3019 9.23465 51.7023 9.35319 51.9544C9.47173 52.2066 9.68511 52.3697 9.98541 52.4587C10.2857 52.5477 10.7678 52.5922 11.4316 52.607V53C9.6614 52.9629 8.32584 52.9407 7.42492 52.9407C6.52401 52.9407 5.25167 52.9629 3.56839 53V52.607C4.22432 52.5922 4.70638 52.5477 5.01459 52.4587C5.31489 52.3697 5.52827 52.2066 5.64681 51.9544C5.76535 51.7023 5.82857 51.3019 5.82857 50.7458V39.4597H5.36231C4.69058 39.4597 4.11368 39.6006 3.64742 39.875C3.17325 40.1494 2.77021 40.6091 2.4383 41.2468C2.09848 41.8845 1.81398 42.7595 1.5769 43.8644H1.08693C1.12644 43.4788 1.15015 42.982 1.15015 42.3591C1.15015 41.3729 1.10274 40.2532 1 39C2.28024 39.0371 4.44559 39.0593 7.51185 39.0593C10.5781 39.0593 12.7356 39.0371 14 39C13.9052 40.2532 13.8498 41.3729 13.8498 42.3591Z" fill="#ADB4A4"/>
<path d="M20.3353 44.0293C20.9591 42.7631 22.0897 42.1261 23.7271 42.1261C24.8109 42.1261 25.5673 42.3947 26.0117 42.9242C26.2456 43.1851 26.4172 43.5228 26.5185 43.9372C26.6199 44.3516 26.6745 44.9041 26.6745 45.5871V51.0892C26.6745 51.6494 26.768 52.0331 26.963 52.248C27.1579 52.4628 27.501 52.5626 28 52.5626V52.9923C26.5575 52.9386 25.6452 52.9079 25.2554 52.9079C24.7875 52.9079 23.883 52.9386 22.5497 52.9923V52.5626C22.963 52.5626 23.2593 52.4552 23.423 52.248C23.5867 52.0331 23.6725 51.6494 23.6725 51.0892V44.7276C23.6725 44.1674 23.5789 43.7453 23.3918 43.4614C23.2047 43.1775 22.8694 43.0317 22.386 43.0317C21.8012 43.0317 21.3177 43.2542 20.9201 43.6993C20.5224 44.1444 20.3275 44.7046 20.3275 45.3875V51.0969C20.3275 51.6571 20.4133 52.0408 20.577 52.2556C20.7407 52.4705 21.037 52.5703 21.4503 52.5703V53C20.117 52.9463 19.2593 52.9156 18.8694 52.9156C18.4016 52.9156 17.4425 52.9463 16 53V52.5703C16.4834 52.5703 16.8265 52.4628 17.0292 52.2556C17.232 52.0408 17.3333 51.6571 17.3333 51.0969V39.4556C17.3333 38.8264 17.232 38.3736 17.0292 38.082C16.8265 37.7981 16.4834 37.6523 16 37.6523V37.2225C16.4444 37.2609 16.8733 37.2839 17.2865 37.2839C18.4951 37.2839 19.501 37.1918 20.3197 37V44.0369L20.3353 44.0293Z" fill="#ADB4A4"/>
<path d="M38.587 50.4347L38.961 50.5667C38.6805 51.5241 38.1896 52.3329 37.4727 53.0014C36.7558 53.6699 35.8675 54 34.8 54C33.3351 54 32.1662 53.5048 31.3013 52.5144C30.4364 51.5241 30 50.0633 30 48.1238C30 46.1843 30.4675 44.6327 31.3948 43.5763C32.3221 42.5282 33.5532 42 35.0961 42C37.6987 42 39 43.6259 39 46.8858H33.1636C33.1481 47.1087 33.1403 47.447 33.1403 47.9175C33.1403 48.8831 33.2649 49.6919 33.5221 50.3356C33.7792 50.9794 34.1143 51.4498 34.5195 51.7469C34.9247 52.044 35.3688 52.1843 35.8364 52.1843C36.974 52.1843 37.8857 51.5983 38.5792 50.4264L38.587 50.4347ZM33.7325 43.4525C33.4052 44.1045 33.2026 45.1114 33.1169 46.4814H36.3818C36.413 45.326 36.3039 44.3686 36.0623 43.6094C35.8208 42.8501 35.4545 42.4787 34.9714 42.4787C34.4883 42.4787 34.0597 42.8088 33.7325 43.4608V43.4525Z" fill="#ADB4A4"/>
<path d="M11.8457 62.2052C11.8457 62.8733 11.8689 63.4061 11.9074 63.8197H11.4369C11.1592 62.2211 10.7503 61.0997 10.2027 60.4475C9.65498 59.7953 8.88359 59.4692 7.89621 59.4692H7.21739C6.79313 59.4692 6.48457 59.5011 6.29172 59.5726C6.09888 59.6442 5.96774 59.7794 5.89832 59.9862C5.82889 60.193 5.79804 60.5191 5.79804 60.9724V66.3171H6.51543C7.24053 66.3171 7.79593 66.0387 8.17391 65.4899C8.55189 64.9411 8.81417 64.281 8.96844 63.5175H9.43899C9.40042 64.114 9.37728 64.7741 9.37728 65.5138V66.5318C9.37728 67.2556 9.41585 68.2577 9.5007 69.5461H9.03015C8.74474 67.6771 7.90393 66.7466 6.52314 66.7466H5.80575V71.6219C5.80575 72.1866 5.86746 72.6002 5.98317 72.8627C6.09888 73.1251 6.30715 73.3001 6.60028 73.3796C6.89341 73.4671 7.36396 73.5148 8.01192 73.5308V74C6.32258 73.9602 5.07293 73.9364 4.24755 73.9364C3.56101 73.9364 2.69705 73.9523 1.65568 73.9761L1 74V73.5785C1.45512 73.5467 1.78682 73.491 1.99509 73.4114C2.21108 73.324 2.34993 73.1649 2.42707 72.9263C2.50421 72.6877 2.54278 72.298 2.54278 71.7572V61.2428C2.54278 60.71 2.50421 60.3203 2.42707 60.0737C2.34993 59.8351 2.20337 59.6681 1.99509 59.5885C1.7791 59.5011 1.44741 59.4454 1 59.4215V59C2.48107 59.0398 4.71809 59.0636 7.70337 59.0636C9.71669 59.0636 11.1515 59.0398 12 59C11.9074 60.201 11.8534 61.2747 11.8534 62.2211L11.8457 62.2052Z" fill="#ADB4A4"/>
<path d="M18.5931 72.0996C18.5931 72.659 18.6924 73.0421 18.8993 73.2567C19.1062 73.4713 19.4703 73.5709 20 73.5709V74C18.469 73.9464 17.4841 73.9157 17.0455 73.9157C16.549 73.9157 15.531 73.9464 14 74V73.5709C14.5131 73.5709 14.8772 73.4636 15.0924 73.2567C15.3076 73.0498 15.4152 72.659 15.4152 72.0996V60.4521C15.4152 59.8238 15.3076 59.3716 15.0924 59.0805C14.8772 58.7969 14.5131 58.6513 14 58.6513V58.2222C14.4717 58.2605 14.9269 58.2835 15.3655 58.2835C16.6483 58.2835 17.7159 58.1916 18.5848 58V72.0996H18.5931Z" fill="#ADB4A4"/>
<path d="M30.6764 64.3248C31.5639 65.203 32 66.6036 32 68.5114C32 70.4191 31.5562 71.8121 30.6764 72.6903C29.7888 73.5685 28.5647 74 27.0038 74C25.443 74 24.2341 73.5609 23.3389 72.6903C22.4438 71.8197 22 70.4191 22 68.5114C22 66.6036 22.4438 65.203 23.3389 64.3248C24.2341 63.4467 25.4507 63 27.0038 63C28.557 63 29.7888 63.4391 30.6764 64.3248ZM25.6113 64.6655C25.267 65.5059 25.091 66.7853 25.091 68.5114C25.091 70.2374 25.267 71.5093 25.6113 72.3496C25.9556 73.1824 26.4223 73.5988 27.0115 73.5988C27.6006 73.5988 28.075 73.1824 28.4193 72.3572C28.7559 71.532 28.9319 70.245 28.9319 68.5114C28.9319 66.7777 28.7559 65.4907 28.4116 64.658C28.0673 63.8252 27.6006 63.4088 27.0115 63.4088C26.4223 63.4088 25.9633 63.8328 25.6113 64.6731V64.6655Z" fill="#ADB4A4"/>
<path d="M43.5267 63.5593C43.8448 63.9322 44 64.3828 44 64.9033C44 65.4237 43.8526 65.8354 43.5578 66.154C43.2629 66.4802 42.875 66.6434 42.3862 66.6434C41.8974 66.6434 41.5483 66.5191 41.269 66.2782C40.9897 66.0374 40.8578 65.7189 40.8578 65.315C40.8578 64.6547 41.1603 64.1109 41.7655 63.6992C41.7112 63.6836 41.6259 63.6758 41.5172 63.6758C41.3776 63.6758 41.269 63.6914 41.1836 63.7147C40.656 63.8001 40.2138 64.1186 39.8491 64.6702C39.4845 65.2218 39.2983 65.7888 39.2983 66.3715V71.8637C39.2983 72.5007 39.4534 72.9435 39.7638 73.1921C40.0741 73.4407 40.5707 73.565 41.2457 73.565V74C41.0517 74 40.8966 74 40.7724 73.9767C39.3681 73.9378 38.4293 73.9145 37.956 73.9145C37.5836 73.9145 36.7379 73.9378 35.4112 73.9767C35.3026 73.9922 35.1629 74 35 74V73.565C35.4966 73.565 35.8379 73.4562 36.0319 73.2465C36.2259 73.0367 36.319 72.6405 36.319 72.0734V65.548C36.319 64.911 36.2259 64.4527 36.0319 64.1575C35.8379 63.8623 35.4966 63.7225 35 63.7225V63.2874C35.4422 63.3263 35.869 63.3496 36.2802 63.3496C37.506 63.3496 38.5147 63.2564 39.2983 63.0621V64.9887C39.5621 64.3983 39.9422 63.9167 40.4388 63.5516C40.9353 63.1864 41.494 63 42.1147 63C42.7353 63 43.2009 63.1864 43.519 63.5593H43.5267Z" fill="#ADB4A4"/>
<path d="M49.8223 72.0803C49.8223 72.6454 49.9118 73.0324 50.0909 73.2492C50.27 73.4659 50.573 73.5665 51 73.5665V74C49.7741 73.9458 48.9614 73.9149 48.5551 73.9149C48.1763 73.9149 47.3223 73.9458 46 74V73.5665C46.4408 73.5665 46.7438 73.4582 46.916 73.2492C47.0882 73.0402 47.1708 72.6454 47.1708 72.0803V65.5781C47.1708 64.9434 47.0882 64.4867 46.916 64.1925C46.7438 63.8984 46.4408 63.7591 46 63.7591V63.3256C46.3926 63.3643 46.7713 63.3875 47.1364 63.3875C48.2245 63.3875 49.1198 63.2946 49.8154 63.1011V72.0803H49.8223ZM49.6088 58.4257C49.905 58.7044 50.0565 59.0992 50.0565 59.5946C50.0565 60.09 49.905 60.477 49.6088 60.7634C49.3058 61.0421 48.8994 61.1892 48.3898 61.1892C47.8802 61.1892 47.4669 61.0498 47.1708 60.7634C46.8747 60.477 46.7231 60.09 46.7231 59.5946C46.7231 59.0992 46.8747 58.7121 47.1708 58.4257C47.4738 58.1471 47.8802 58 48.3898 58C48.8994 58 49.3127 58.1393 49.6088 58.4257Z" fill="#ADB4A4"/>
<path d="M59.2016 63.1967C59.6522 63.3253 59.9921 63.4691 60.2372 63.6279C60.3794 63.7187 60.5059 63.7717 60.6166 63.7717C60.7431 63.7717 60.8538 63.7111 60.9407 63.5825C61.0356 63.4539 61.0909 63.2724 61.1225 63.0303H61.5652C61.5099 63.7187 61.4783 64.8989 61.4783 66.5784H61.0356C60.9091 65.6933 60.6324 64.9443 60.2055 64.3466C59.7787 63.749 59.1541 63.4464 58.3399 63.4464C57.9209 63.4464 57.5731 63.5598 57.2964 63.7868C57.0198 64.0138 56.8854 64.3315 56.8854 64.7325C56.8854 65.1864 57.0435 65.5798 57.3676 65.9127C57.6917 66.2455 58.1976 66.6389 58.8854 67.1155L59.4941 67.5392C60.3478 68.1596 60.9802 68.7118 61.3913 69.196C61.8024 69.6802 62 70.2854 62 71.0117C62 71.6018 61.8182 72.1314 61.4625 72.5853C61.1067 73.0392 60.6245 73.3948 60.0158 73.6369C59.415 73.879 58.7431 74 58.0158 74C57.2411 74 56.585 73.8563 56.0316 73.5763C55.581 73.3645 55.2569 73.2208 55.0593 73.1527C54.917 73.1149 54.7984 73.1527 54.6877 73.2813C54.585 73.4099 54.498 73.599 54.4427 73.8563H54C54.0553 73.0922 54.087 71.7455 54.087 69.8239H54.5296C54.8142 72.2978 55.7628 73.5385 57.3755 73.5385C57.7787 73.5385 58.1344 73.4175 58.419 73.1829C58.7036 72.9484 58.8538 72.5853 58.8538 72.1011C58.8538 71.7228 58.7668 71.39 58.5929 71.0949C58.419 70.7999 58.1976 70.5351 57.9289 70.3081C57.6601 70.0812 57.2648 69.7634 56.7273 69.3625C56.0949 68.8783 55.6126 68.4849 55.2806 68.1898C54.9486 67.8948 54.6719 67.5468 54.4348 67.1382C54.2055 66.7373 54.087 66.2834 54.087 65.784C54.087 64.9216 54.4348 64.2407 55.1383 63.749C55.8419 63.2497 56.6957 63 57.7075 63C58.2372 63 58.7352 63.0605 59.1858 63.1891L59.2016 63.1967Z" fill="#ADB4A4"/>
<path d="M68.4779 63.3092H70.7941V63.7097H68.4779V71.8467C68.4779 72.2472 68.5441 72.5343 68.6838 72.7005C68.8235 72.8667 69.0368 72.9498 69.3382 72.9498C69.8971 72.9498 70.3456 72.5494 70.6691 71.741L71 71.9223C70.5 73.3049 69.6103 74 68.3162 74C67.4559 74 66.8015 73.7733 66.3529 73.3125C66.0809 73.0329 65.8897 72.6778 65.7941 72.2547C65.6985 71.8316 65.6471 71.2499 65.6471 70.5094V63.7021H64V63.3017H65.6471V60.6422C66.7279 60.6422 67.6691 60.4307 68.4706 60V63.3017L68.4779 63.3092Z" fill="#ADB4A4"/>
<path d="M76.4946 59.752C76.6488 59.9704 76.7687 60.2372 76.863 60.5526C76.9572 60.8679 77 61.1995 77 61.5472C77 62.2911 76.7944 62.9703 76.3919 63.5768C75.9893 64.1833 75.3897 64.6523 74.6017 65L74.3961 64.6119C74.8415 64.442 75.2184 64.1752 75.5525 63.8113C75.8779 63.4555 76.0749 63.0836 76.1349 62.7116C76.1777 62.5418 76.2034 62.372 76.2034 62.2183C76.2034 62.0728 76.1777 61.9353 76.1349 61.8059C75.8009 62.1536 75.3555 62.3235 74.8073 62.3235C74.2591 62.3235 73.8394 62.1779 73.5054 61.8787C73.1713 61.5876 73 61.1752 73 60.6577C73 60.1725 73.1713 59.7682 73.5225 59.4609C73.8737 59.1536 74.3191 59 74.8672 59C75.6124 59 76.152 59.2507 76.4861 59.752H76.4946Z" fill="#ADB4A4"/>
<path d="M84.5514 63.1967C84.9457 63.3253 85.2431 63.4691 85.4575 63.6279C85.582 63.7187 85.6927 63.7717 85.7895 63.7717C85.9002 63.7717 85.997 63.7111 86.0731 63.5825C86.1561 63.4539 86.2045 63.2724 86.2322 63.0303H86.6196C86.5711 63.7187 86.5435 64.8989 86.5435 66.5784H86.1561C86.0455 65.6933 85.8034 64.9443 85.4298 64.3466C85.0563 63.749 84.5099 63.4464 83.7974 63.4464C83.4308 63.4464 83.1265 63.5598 82.8844 63.7868C82.6423 64.0138 82.5247 64.3315 82.5247 64.7325C82.5247 65.1864 82.663 65.5798 82.9466 65.9127C83.2302 66.2455 83.6729 66.6389 84.2747 67.1155L84.8073 67.5392C85.5543 68.1596 86.1077 68.7118 86.4674 69.196C86.8271 69.6802 87 70.2854 87 71.0117C87 71.6018 86.8409 72.1314 86.5296 72.5853C86.2184 73.0392 85.7964 73.3948 85.2638 73.6369C84.7381 73.879 84.1502 74 83.5138 74C82.836 74 82.2619 73.8563 81.7777 73.5763C81.3834 73.3645 81.0998 73.2208 80.9269 73.1527C80.8024 73.1149 80.6986 73.1527 80.6018 73.2813C80.5119 73.4099 80.4358 73.599 80.3874 73.8563H80C80.0484 73.0922 80.0761 71.7455 80.0761 69.8239H80.4634C80.7125 72.2978 81.5425 73.5385 82.9536 73.5385C83.3063 73.5385 83.6176 73.4175 83.8666 73.1829C84.1156 72.9484 84.247 72.5853 84.247 72.1011C84.247 71.7228 84.171 71.39 84.0188 71.0949C83.8666 70.7999 83.6729 70.5351 83.4377 70.3081C83.2026 70.0812 82.8567 69.7634 82.3864 69.3625C81.833 68.8783 81.4111 68.4849 81.1206 68.1898C80.83 67.8948 80.5879 67.5468 80.3804 67.1382C80.1798 66.7373 80.0761 66.2834 80.0761 65.784C80.0761 64.9216 80.3804 64.2407 80.996 63.749C81.6117 63.2497 82.3587 63 83.2441 63C83.7075 63 84.1433 63.0605 84.5376 63.1891L84.5514 63.1967Z" fill="#ADB4A4"/>
<path d="M10.7654 80.3517C11.3625 80.581 11.9439 80.9098 12.5174 81.3303C12.6824 81.4526 12.8238 81.5138 12.9338 81.5138C13.0752 81.5138 13.1852 81.4144 13.2716 81.2156C13.358 81.0168 13.4209 80.711 13.4602 80.2905H13.9394C13.8844 81.2156 13.853 82.8593 13.853 85.2217H13.3737C13.2637 84.2966 13.0988 83.5474 12.8788 82.9817C12.6588 82.4083 12.3053 81.9266 11.8025 81.5367C11.4646 81.2232 11.0561 80.9786 10.569 80.8027C10.0819 80.6269 9.57913 80.5352 9.06061 80.5352C8.08642 80.5352 7.26936 80.8563 6.61728 81.5061C5.96521 82.1483 5.48597 83.0046 5.17957 84.0673C4.87318 85.13 4.71605 86.292 4.71605 87.5535C4.71605 92.2553 6.05948 94.6024 8.7385 94.6024C9.35129 94.6024 9.84624 94.4648 10.2233 94.1972C10.404 94.0749 10.5376 93.9297 10.6083 93.7691C10.6869 93.6086 10.7262 93.3945 10.7262 93.1346V91.1391C10.7262 90.5046 10.6712 90.0382 10.5612 89.7401C10.4512 89.4495 10.2469 89.2508 9.96409 89.1361C9.68126 89.0214 9.22559 88.9602 8.6128 88.9297V88.5245C9.47699 88.5627 10.6712 88.5856 12.1953 88.5856C13.4366 88.5856 14.3715 88.5627 15 88.5245V88.9297C14.7172 88.9602 14.5208 89.0138 14.3951 89.0902C14.2694 89.1667 14.1829 89.3272 14.1358 89.5566C14.0887 89.7859 14.0651 90.1606 14.0651 90.6804V94.7171H13.6487C13.633 94.4342 13.578 94.1667 13.468 93.922C13.3659 93.6774 13.2166 93.555 13.0359 93.555C12.8002 93.555 12.4231 93.7003 11.9046 93.9832C10.6869 94.6636 9.5477 95 8.47138 95C6.05163 95 4.20539 94.3578 2.9248 93.0734C1.63636 91.789 1 89.9847 1 87.6605C1 86.1391 1.32211 84.8012 1.97419 83.6468C2.62626 82.4924 3.52189 81.5979 4.66891 80.9557C5.81594 80.3211 7.12009 80 8.58923 80C9.45342 80 10.1841 80.1147 10.7811 80.344L10.7654 80.3517Z" fill="#ADB4A4"/>
<path d="M18.6497 94.3336C18.2166 93.8816 18 93.2918 18 92.5564C18 91.9436 18.1624 91.438 18.4872 91.032C18.8121 90.6337 19.1988 90.3196 19.6628 90.1052C20.1268 89.8907 20.7146 89.6532 21.4261 89.4081C22.1841 89.1476 22.7332 88.9178 23.0889 88.7033C23.4447 88.4889 23.6148 88.2054 23.6148 87.8377V86.2444C23.6148 85.6699 23.4834 85.2256 23.2127 84.9039C22.942 84.5822 22.5321 84.4213 21.9675 84.4213C21.3101 84.4213 20.8074 84.5822 20.4594 84.9116C20.8461 85.0494 21.14 85.2486 21.3565 85.5244C21.5731 85.8001 21.6736 86.1142 21.6736 86.4819C21.6736 86.9415 21.5189 87.3092 21.2019 87.585C20.8848 87.8607 20.4981 87.9909 20.0495 87.9909C19.57 87.9909 19.1988 87.8377 18.9358 87.539C18.6729 87.2403 18.5414 86.8649 18.5414 86.413C18.5414 86.0299 18.6342 85.7082 18.8198 85.4401C19.0054 85.172 19.2916 84.9269 19.6783 84.6971C20.0495 84.4826 20.5058 84.3064 21.0472 84.1838C21.5886 84.0613 22.1841 84 22.8337 84C23.4834 84 24.0944 84.0689 24.5893 84.2068C25.0843 84.3447 25.4942 84.5745 25.8268 84.9039C26.1284 85.2026 26.3295 85.5703 26.4377 86.007C26.5383 86.4436 26.5924 87.0334 26.5924 87.7841V93.3377C26.5924 93.6671 26.6234 93.8969 26.6852 94.0348C26.7471 94.1727 26.8708 94.2416 27.0487 94.2416C27.2575 94.2416 27.505 94.1267 27.7912 93.8969L28 94.2416C27.3813 94.7472 26.6234 95 25.734 95C24.976 95 24.4501 94.8468 24.1485 94.548C23.8469 94.2493 23.6845 93.8433 23.6767 93.3454C22.9884 94.4485 21.9753 95 20.645 95C19.7633 95 19.106 94.7779 18.6729 94.3259L18.6497 94.3336ZM23.6071 92.8628V88.6727C23.4447 88.9485 23.0889 89.2472 22.5553 89.5689C22.0217 89.906 21.6118 90.2507 21.3411 90.5877C21.0626 90.9248 20.9312 91.415 20.9312 92.0585C20.9312 92.6177 21.0472 93.0313 21.2792 93.2918C21.5112 93.5599 21.8206 93.6901 22.2073 93.6901C22.7409 93.6901 23.2127 93.4143 23.6071 92.8552V92.8628Z" fill="#ADB4A4"/>
<path d="M37.5267 84.5671C37.8448 84.94 38 85.3905 38 85.911C38 86.4315 37.8526 86.8432 37.5578 87.1617C37.2629 87.488 36.875 87.6511 36.3862 87.6511C35.8974 87.6511 35.5483 87.5268 35.269 87.286C34.9897 87.0452 34.8578 86.7267 34.8578 86.3227C34.8578 85.6624 35.1603 85.1186 35.7655 84.7069C35.7112 84.6914 35.6259 84.6836 35.5172 84.6836C35.3776 84.6836 35.269 84.6992 35.1836 84.7225C34.656 84.8079 34.2138 85.1264 33.8491 85.678C33.4845 86.2295 33.2983 86.7966 33.2983 87.3792V92.8637C33.2983 93.5007 33.4534 93.9435 33.7638 94.1921C34.0741 94.4407 34.5707 94.565 35.2457 94.565V95C35.0517 95 34.8966 95 34.7724 94.9767C33.3681 94.9379 32.4293 94.9145 31.956 94.9145C31.5836 94.9145 30.7379 94.9379 29.4112 94.9767C29.3026 94.9922 29.1629 95 29 95V94.565C29.4966 94.565 29.8379 94.4562 30.0319 94.2465C30.2259 94.0367 30.319 93.6405 30.319 93.0734V86.548C30.319 85.911 30.2259 85.4527 30.0319 85.1575C29.8379 84.8701 29.4966 84.7225 29 84.7225V84.2874C29.4422 84.3263 29.869 84.3496 30.2802 84.3496C31.506 84.3496 32.5147 84.2564 33.2983 84.0621V85.9887C33.5621 85.3983 33.9422 84.9167 34.4388 84.5516C34.9353 84.1864 35.494 84 36.1147 84C36.7353 84 37.2009 84.1864 37.519 84.5593L37.5267 84.5671Z" fill="#ADB4A4"/>
<path d="M50.8955 93.8555C51.1032 94.1341 51.4685 94.2772 52 94.2772V94.6988C51.5433 94.6612 51.0865 94.6386 50.6298 94.6386C49.3178 94.6386 48.2382 94.7289 47.3995 94.9172V93.1929C46.9013 94.3976 45.938 95 44.518 95C43.0979 95 42.0267 94.5407 41.2046 93.6221C40.3825 92.7035 39.9839 91.3256 40.0005 89.4809C40.0005 88.3064 40.2081 87.3125 40.6316 86.4993C41.0551 85.6861 41.6364 85.0838 42.3838 84.6696C43.1312 84.2631 43.9782 84.0598 44.9415 84.0598C46.021 84.0598 46.8348 84.3158 47.3995 84.8202V81.4094C47.3995 80.792 47.2915 80.3478 47.0756 80.0616C46.8597 79.7831 46.4943 79.64 45.9795 79.64V79.2184C46.4528 79.256 46.9096 79.2786 47.3497 79.2786C48.6368 79.2786 49.7081 79.1882 50.58 79V92.5078C50.58 93.1252 50.6796 93.5694 50.8872 93.8555H50.8955ZM46.7186 93.6522C47.0922 93.3285 47.3165 92.8993 47.3912 92.3496V85.3247C47.0175 84.8729 46.486 84.6395 45.7719 84.6395C44.9913 84.6395 44.3851 85.0461 43.9533 85.8668C43.5215 86.6875 43.3222 87.8998 43.3305 89.5186C43.3139 91.1525 43.4882 92.3271 43.8536 93.0499C44.219 93.7727 44.7339 94.1341 45.4148 94.1341C45.9048 94.1341 46.3366 93.976 46.7103 93.6522H46.7186Z" fill="#ADB4A4"/>
<path d="M62.587 91.7295L62.961 91.8507C62.6805 92.7288 62.1896 93.4708 61.4727 94.084C60.7558 94.6972 59.8675 95 58.8 95C57.3351 95 56.1662 94.5458 55.3013 93.6373C54.4364 92.7288 54 91.3889 54 89.6098C54 87.8307 54.4675 86.4074 55.3948 85.446C56.3221 84.4845 57.5532 84 59.0961 84C61.6987 84 63 85.4914 63 88.4818H57.1636C57.1481 88.6862 57.1403 88.9966 57.1403 89.4281C57.1403 90.3138 57.2649 91.0557 57.5221 91.6462C57.7792 92.2368 58.1143 92.6683 58.5195 92.9408C58.9247 93.2134 59.3688 93.3421 59.8364 93.3421C60.974 93.3421 61.8857 92.8045 62.5792 91.7295H62.587ZM57.7325 85.3248C57.4052 85.9229 57.2026 86.8465 57.1169 88.1032H60.3818C60.413 87.0434 60.3039 86.1652 60.0623 85.4687C59.8208 84.7722 59.4545 84.4315 58.9714 84.4315C58.4883 84.4315 58.0597 84.7343 57.7325 85.3324V85.3248Z" fill="#ADB4A4"/>
<path d="M75.0195 84.8079C75.2534 85.072 75.4249 85.4061 75.5185 85.8256C75.6121 86.2451 75.6667 86.7966 75.6667 87.5035V93.0734C75.6667 93.6405 75.768 94.029 75.9708 94.2465C76.1735 94.464 76.5166 94.565 77 94.565V95C75.6121 94.9456 74.6998 94.9145 74.2554 94.9145C73.8421 94.9145 72.9376 94.9456 71.5497 95V94.565C71.963 94.565 72.2593 94.4562 72.423 94.2465C72.5867 94.029 72.6725 93.6405 72.6725 93.0734V86.6335C72.6725 86.0664 72.5789 85.6391 72.3918 85.3517C72.2047 85.0643 71.8694 84.9167 71.386 84.9167C70.8168 84.9167 70.3333 85.1497 69.9279 85.6081C69.5224 86.0742 69.3275 86.6412 69.3275 87.3171V93.0734C69.3275 93.6405 69.4133 94.029 69.577 94.2465C69.7407 94.464 70.037 94.565 70.4503 94.565V95C69.1715 94.9456 68.3138 94.9145 67.8694 94.9145C67.4561 94.9145 66.4971 94.9456 65 95V94.565C65.499 94.565 65.8421 94.4562 66.037 94.2465C66.232 94.0367 66.3255 93.6405 66.3255 93.0734V86.548C66.3255 85.911 66.232 85.4527 66.037 85.1575C65.8421 84.8701 65.499 84.7225 65 84.7225V84.2874C65.4444 84.3263 65.8733 84.3496 66.2865 84.3496C67.5185 84.3496 68.5322 84.2564 69.3197 84.0621V85.9266C69.9435 84.6448 71.0819 84 72.7271 84C73.7797 84 74.5439 84.2719 75.0117 84.8079H75.0195Z" fill="#ADB4A4"/>
<path d="M55.4605 23.0244C52.7038 23.2468 53.0473 27.5147 55.8126 27.2837C58.5693 27.0614 58.2258 22.7935 55.4605 23.0244Z" fill="#ADB4A4"/>
<path d="M68.3765 2.54029C65.6198 2.76266 65.9633 7.03054 68.7286 6.79961C71.4853 6.57724 71.1418 2.30936 68.3765 2.54029Z" fill="#ADB4A4"/>
<path d="M112.75 25.8384C109.993 26.0608 110.336 30.3286 113.102 30.0977C115.858 29.8753 115.515 25.6075 112.75 25.8384Z" fill="#ADB4A4"/>
</g>
<defs>
<clipPath id="clip0_460_8858">
<rect width="115" height="100" fill="white"/>
</clipPath>
</defs>
</svg>
