<svg width="180" height="84" viewBox="0 0 180 84" fill="none" xmlns="http://www.w3.org/2000/svg">
<g clip-path="url(#clip0_460_8820)">
<path d="M96.0169 38.7335C96.0693 39.2933 96.1043 39.8532 96.1305 40.4568C96.2616 43.0987 96.3926 45.7755 96.5237 48.4349C96.5849 49.8345 96.681 51.2255 96.716 52.6251C96.716 53.2812 96.716 53.9023 96.716 54.5584C96.7422 55.6956 96.7509 56.6666 96.8383 57.7689C96.9257 58.9673 96.8995 60.2445 96.9083 61.4517L96.9257 63.8924C96.9432 65.1259 96.9782 66.3768 96.9694 67.6103C96.9519 69.0362 96.8995 70.4008 96.9083 71.8442C96.9083 72.3779 96.9345 72.9115 96.9083 73.4539C96.8908 74.1887 96.8121 74.8885 96.7859 75.6233C96.7684 76.1307 96.7772 76.6381 96.7684 77.1455C96.7684 78.064 96.7422 78.9825 96.6985 79.9011C96.6723 80.4872 96.6286 81.0908 96.5587 81.6156C96.4888 82.1405 96.3752 82.5954 96.2528 82.7266C95.9906 82.9978 95.7197 82.3592 95.6848 81.082C95.676 80.7321 95.6935 80.3559 95.7023 79.9885C95.7023 79.4812 95.6848 78.9913 95.6848 78.4751C95.6848 77.6616 95.7459 76.848 95.7896 76.0432C95.8333 75.1334 95.8071 74.3374 95.8159 73.4539C95.8421 72.4391 95.8596 71.3894 95.8858 70.3658L95.9032 68.2489C95.9032 67.619 95.8596 67.0766 95.8333 66.4643C95.7896 65.1609 95.8159 63.8487 95.8246 62.5452C95.8333 60.5157 95.7984 58.4337 95.7459 56.3955C95.7372 55.8181 95.7197 55.232 95.6848 54.6721C95.6411 54.0773 95.6061 53.4999 95.5624 52.8963C95.51 52.0303 95.5362 51.0855 95.51 50.2107L95.3964 47.1752L95.2566 44.682C95.2129 43.9822 95.1255 43.1249 95.1429 42.4776C95.1429 42.1976 95.1255 41.8477 95.1167 41.5503C95.0905 40.8592 95.0468 40.1769 94.9944 39.4858C94.9157 38.3661 94.872 37.1763 94.8982 36.1353C94.9157 35.2693 95.073 34.4907 95.3003 34.6919C95.4576 34.8319 95.6323 35.2081 95.7372 35.8904C95.7634 36.0654 95.7896 36.2491 95.8071 36.4415C95.9032 37.2288 95.9557 37.9724 96.0256 38.7597L96.0169 38.7335Z" fill="#ADB4A4"/>
<path d="M96.4889 66.3331C96.5413 65.9219 96.6025 65.5108 96.6899 65.0821C97.1006 63.1751 97.4327 61.2243 97.9221 59.326C98.1581 58.32 98.394 57.3227 98.6737 56.3255C98.831 55.8706 98.9795 55.4332 99.1369 54.9783C99.3815 54.1735 99.6262 53.4999 99.8272 52.7038C100.037 51.8378 100.422 50.9805 100.745 50.1407C100.955 49.5808 101.208 49.0297 101.427 48.4699C101.759 47.6126 102.134 46.7728 102.528 45.9417C103 44.997 103.506 44.1222 104.005 43.1774C104.197 42.8275 104.372 42.4776 104.581 42.1364C104.852 41.664 105.211 41.2703 105.516 40.8242C105.735 40.518 105.927 40.1944 106.128 39.8707C106.521 39.3108 106.932 38.7685 107.352 38.2348C107.64 37.9024 107.955 37.5787 108.243 37.3163C108.54 37.0539 108.837 36.8614 108.986 36.8702C109.309 36.8877 109.222 37.43 108.68 38.1823C108.531 38.3923 108.348 38.5847 108.182 38.7859C107.963 39.0834 107.78 39.3896 107.579 39.6957C107.238 40.1769 106.854 40.623 106.521 41.1041C106.137 41.6465 105.831 42.1276 105.525 42.6963C105.167 43.3436 104.73 43.9647 104.389 44.6295L103.672 45.9942C103.48 46.4141 103.358 46.7903 103.183 47.2014C102.807 48.0675 102.423 48.951 102.047 49.817C101.47 51.1817 100.955 52.6076 100.5 54.0248C100.36 54.4272 100.238 54.8296 100.142 55.232C100.037 55.6519 99.9408 56.0718 99.836 56.5004C99.6787 57.1128 99.4602 57.7689 99.2767 58.3812C99.0669 59.0898 98.9096 59.8159 98.7349 60.5332C98.5863 61.1193 98.4814 61.7229 98.3591 62.3178C98.2542 62.8164 98.1668 63.4375 98.0357 63.9011C97.9745 64.1024 97.9309 64.3473 97.8872 64.5572C97.7823 65.0471 97.6862 65.5457 97.6162 66.0444C97.4939 66.8492 97.3104 67.7065 97.1181 68.4501C96.9521 69.0624 96.6637 69.596 96.4802 69.4036C96.3491 69.2724 96.2442 68.9749 96.2617 68.4588C96.2617 68.3276 96.2792 68.1876 96.2879 68.0476C96.3228 67.4615 96.419 66.9192 96.4889 66.3418V66.3331Z" fill="#ADB4A4"/>
<path d="M109.633 40.2382C109.633 40.6931 109.633 41.148 109.589 41.6379C109.441 43.7724 109.292 45.9419 108.986 48.0764C108.829 49.1961 108.698 50.3246 108.471 51.4355C108.348 51.9517 108.235 52.4416 108.112 52.9577C107.911 53.85 107.719 54.6198 107.562 55.5033C107.378 56.4568 107.072 57.4453 106.775 58.3814L106.181 60.2709C105.866 61.2244 105.552 62.1955 105.132 63.1227C104.652 64.19 104.075 65.1697 103.437 66.1845C103.201 66.5607 102.947 66.9281 102.659 67.278C102.257 67.7504 101.803 68.1265 101.339 68.5289C101.025 68.8089 100.701 69.0888 100.361 69.3425C99.7489 69.8061 99.0672 70.1998 98.3419 70.4797C97.8787 70.6722 97.3806 70.7946 96.9349 70.8471C96.4892 70.8909 96.0959 70.8471 95.9736 70.7334C95.7202 70.4972 96.2008 70.1998 97.1009 69.8761C97.3544 69.7799 97.6253 69.7011 97.87 69.5874C98.2283 69.4387 98.5429 69.2375 98.875 69.0451C99.3993 68.7214 99.9324 68.3977 100.422 68.0215C100.981 67.5929 101.374 67.1205 101.811 66.5956C102.309 65.9833 102.79 65.3272 103.192 64.6449C103.472 64.1725 103.734 63.6826 103.961 63.1752C104.162 62.7203 104.293 62.3092 104.451 61.8543C104.791 60.8833 105.15 59.9035 105.482 58.915C105.997 57.3754 106.434 55.7658 106.801 54.1736C106.915 53.7275 107.011 53.2726 107.081 52.8177C107.151 52.3453 107.221 51.8817 107.291 51.4093C107.404 50.727 107.588 49.9921 107.702 49.3011C107.841 48.505 107.955 47.7002 108.051 46.8954C108.121 46.2305 108.2 45.5745 108.243 44.9096C108.287 44.3497 108.305 43.6674 108.383 43.1513C108.418 42.9326 108.436 42.6527 108.453 42.4165C108.488 41.8653 108.523 41.3142 108.532 40.7631C108.549 39.8708 108.602 38.9086 108.689 38.0775C108.759 37.3864 108.96 36.7653 109.17 36.9403C109.318 37.0628 109.467 37.3689 109.537 37.9288C109.545 38.0688 109.563 38.2262 109.58 38.3749C109.615 39.0135 109.624 39.6171 109.615 40.2645L109.633 40.2382Z" fill="#ADB4A4"/>
<path d="M90.5981 32.1287C90.8515 32.3037 91.1137 32.4612 91.4021 32.6361C92.6693 33.3884 94.2423 33.5196 95.6406 33.1085C96.3834 32.9073 97.0563 32.4961 97.6593 32.0413C97.9477 31.8313 98.2186 31.6126 98.4633 31.3502C98.8741 30.8865 99.1712 30.4229 99.2324 29.898C99.3023 29.3731 99.1362 28.7783 98.7779 28.5421C98.542 28.3846 98.1837 28.3759 97.7292 28.4546C97.3884 28.5071 97.0039 28.6033 96.5582 28.6296C96.1038 28.6558 95.6493 28.5596 95.2648 28.4196C94.3734 28.0872 93.7092 27.5973 92.9839 27.4836C92.713 27.4399 92.4421 27.4486 92.1624 27.4574C91.7866 27.4749 91.4109 27.5011 91.0525 27.6411C90.8078 27.7373 90.5806 27.8948 90.3796 28.061C90.0213 28.3671 89.7155 28.7608 89.497 29.1807C89.3484 29.4519 89.2435 29.7581 89.1387 30.0292C89.0338 30.3004 88.9377 30.5541 88.8153 30.6328C88.5881 30.8253 88.1948 30.4316 88.3259 29.5394C88.3696 29.3032 88.457 29.0582 88.5619 28.8308C88.7017 28.5071 88.8415 28.2009 89.0513 27.9122C89.3834 27.4486 89.8728 27.1074 90.3796 26.8712C90.9477 26.6088 91.472 26.4251 92.075 26.3726C92.7742 26.3026 93.5257 26.4951 94.1112 26.7663C94.522 26.9412 94.8978 27.1424 95.2735 27.2911C95.6056 27.4224 95.894 27.4749 96.1912 27.4923C96.7854 27.5711 97.5108 27.2474 98.5245 27.3349C98.909 27.3786 99.3372 27.5536 99.6431 27.8423C99.949 28.1309 100.15 28.4896 100.246 28.8658C100.465 29.6356 100.255 30.4229 99.9315 31.0265C99.748 31.3764 99.512 31.6826 99.2936 31.9713C99.0663 32.2862 98.8129 32.5749 98.5158 32.8373C98.0876 33.2222 97.5282 33.5022 97.0039 33.7383C96.4009 34.0095 95.7629 34.202 95.1162 34.307C94.5832 34.3944 94.0326 34.4207 93.482 34.3769C93.0276 34.3419 92.4595 34.272 92.0663 34.0883C91.8915 34.0183 91.6905 33.9308 91.507 33.8608C91.0962 33.6859 90.703 33.4672 90.3272 33.2222C89.7155 32.8286 89.1562 32.2512 88.8241 31.6651C88.5444 31.1752 88.5007 30.6503 88.7454 30.6678C88.9202 30.6678 89.1562 30.7903 89.4271 31.0615C89.497 31.1315 89.5756 31.2015 89.6455 31.2802C89.9602 31.5864 90.2573 31.875 90.6156 32.12L90.5981 32.1287Z" fill="#ADB4A4"/>
<path d="M85.7307 22.8648C85.1801 22.2437 84.6732 21.5876 84.1664 20.8528C83.074 19.2257 82.1214 17.4936 81.3699 15.6566C80.6358 13.8195 80.024 11.93 79.8143 9.92669C79.7182 8.87695 79.7269 7.78346 79.9629 6.72497C80.1988 5.65772 80.6707 4.62547 81.3873 3.77693C82.0602 2.98087 82.9167 2.38601 83.9217 2.05359C85.7045 1.51997 87.2163 1.90488 88.7632 1.98361C89.6021 2.0361 90.4498 2.07983 91.2189 1.88738C91.9792 1.73867 92.6521 1.25753 93.4473 0.785147C93.9717 0.470223 94.5747 0.155299 95.2913 0.0590718C96.0079 -0.0459029 96.7507 0.146551 97.3363 0.505214C98.2364 1.03884 98.8918 1.90488 99.2414 2.8584C99.591 3.80317 99.6696 4.77419 99.6783 5.70146C99.6609 7.8097 99.5385 9.78673 99.4162 11.8862C99.3637 12.6648 99.3113 13.4521 99.2152 14.2307C99.0841 15.3066 98.8569 16.3039 98.6559 17.3712C98.5073 18.0972 98.3675 18.832 98.2014 19.5581C97.8868 20.8703 97.5198 22.1825 97.0129 23.4334C96.6896 24.247 96.3313 25.0518 95.938 25.7254C95.5622 26.4077 95.134 26.9413 94.9417 27.0638C94.732 27.1863 94.6796 27.0026 94.767 26.5914C94.8631 26.1803 95.099 25.5329 95.4399 24.6931C95.6321 24.2208 95.8244 23.7309 96.0254 23.2497C96.2701 22.5674 96.4711 21.8938 96.6633 21.194C96.978 20.0743 97.31 18.9545 97.5635 17.826C97.8606 16.5488 97.983 15.4029 98.1315 14.1432C98.3063 12.6823 98.4461 11.1776 98.5248 9.708C98.586 8.69324 98.6209 7.66974 98.6296 6.64623C98.6296 5.73645 98.5947 4.97539 98.4374 4.15309C98.2626 3.28704 97.948 2.50848 97.3625 1.92237C96.7944 1.33626 96.0254 1.00384 95.2826 1.16131C94.0853 1.36251 92.958 2.71843 91.2451 2.99836C89.6109 3.28704 88.0815 2.90214 86.657 2.80591C85.853 2.74467 85.049 2.76217 84.3499 2.98962C83.6245 3.2433 83.0041 3.69819 82.471 4.2843C81.7194 5.1241 81.1164 6.27882 80.9329 7.46854C80.7057 8.83321 80.8542 10.2591 81.1863 11.6588C81.4572 12.8048 81.833 13.942 82.2787 15.0355C82.6458 15.9627 83.2051 17.0475 83.6158 17.8873C83.7819 18.2547 84.044 18.6746 84.2625 19.0333C84.7694 19.873 85.3287 20.6866 85.9404 21.4477C86.9279 22.6986 88.0815 23.9583 89.1389 25.0081C90.0129 25.8741 90.7994 26.6877 90.4149 26.6702C90.1527 26.6439 89.6021 26.4427 88.7894 25.8216C88.5796 25.6642 88.3612 25.4892 88.1514 25.3055C87.26 24.5532 86.4823 23.7484 85.7132 22.8736L85.7307 22.8648Z" fill="#ADB4A4"/>
<path d="M102.239 6.34869C102.711 6.4974 103.13 6.75109 103.497 7.06601C104.292 7.76584 104.869 8.51816 105.621 8.92057C105.988 9.12177 106.355 9.22674 106.704 9.19175C107.054 9.16551 107.5 8.93806 108.138 8.87683C108.478 8.85058 108.863 8.92057 109.178 9.09552C109.501 9.27048 109.746 9.53292 109.929 9.79536C110.287 10.3377 110.436 10.9063 110.506 11.4662C110.558 11.9911 110.523 12.446 110.55 12.9446C110.532 13.8019 110.515 14.5367 110.445 15.3678C110.436 15.8227 110.34 16.2863 110.244 16.7412C110.156 17.2048 110.017 17.651 109.877 18.0884C109.711 18.6832 109.475 19.2431 109.256 19.8204C108.898 20.6777 108.505 21.535 108.015 22.3311C107.736 22.786 107.404 23.2059 107.106 23.6345C106.774 24.0457 106.442 24.4568 106.101 24.8767C105.839 25.1829 105.577 25.4891 105.297 25.7778C104.878 26.1452 104.458 26.4688 104.022 26.81C103.716 27.0375 103.427 27.2824 103.13 27.5273C102.562 27.9122 102.003 28.3321 101.374 28.6208C100.98 28.822 100.57 29.0232 100.176 29.1107C99.7918 29.2157 99.4422 29.2594 99.3024 29.1894C99.0227 29.032 99.3373 28.5771 100.133 28.1572C100.351 28.0347 100.587 27.9122 100.814 27.7898C101.129 27.6148 101.417 27.4224 101.706 27.2037C101.942 27.0375 102.186 26.8887 102.431 26.74L103.139 26.2501C103.689 25.8915 104.039 25.4453 104.511 25.0254C105 24.4918 105.533 23.9757 105.979 23.3983C106.311 23.0222 106.573 22.5935 106.862 22.1736C107.115 21.7975 107.246 21.4301 107.456 21.0451C107.867 20.2141 108.269 19.3743 108.601 18.5083C109.099 17.1523 109.414 15.6914 109.51 14.248C109.518 13.8369 109.553 13.4257 109.527 13.0233C109.483 12.6034 109.431 12.201 109.387 11.7724C109.309 11.2213 109.186 10.5827 108.898 10.2415C108.575 9.83035 108.173 9.89158 107.377 10.1453C107.063 10.2328 106.652 10.3027 106.276 10.2502C105.892 10.2065 105.542 10.084 105.228 9.91783C104.694 9.65539 104.144 9.22674 103.821 8.84184C103.681 8.67563 103.506 8.50067 103.357 8.35195C103.017 8.01079 102.658 7.70461 102.282 7.50341C102.134 7.42468 101.977 7.35469 101.819 7.31095C101.679 7.26721 101.531 7.24972 101.374 7.24972C101.059 7.24972 100.744 7.34595 100.5 7.49466C100.299 7.61713 100.141 7.76584 100.028 7.91456C99.9141 8.05453 99.818 8.18574 99.7131 8.09826C99.5733 8.01079 99.3898 7.5384 99.8093 6.97853C99.9141 6.83857 100.045 6.72485 100.194 6.61987C100.788 6.20872 101.548 6.11249 102.256 6.33119L102.239 6.34869Z" fill="#ADB4A4"/>
<path d="M111.232 18.622C111.477 18.7707 111.713 18.8844 112.018 19.0244C112.683 19.3306 113.478 19.5493 114.229 20.0829C114.998 20.599 115.488 21.5701 115.505 22.4711C115.558 23.4246 115.261 24.3956 114.701 25.1217C114.448 25.4629 114.142 25.734 113.836 26.0052C113.303 26.4776 112.796 26.81 112.237 27.1949C111.625 27.6148 110.882 27.886 110.192 28.1135C109.729 28.2622 109.257 28.4022 108.794 28.5334C108.086 28.7346 107.378 28.927 106.67 29.0757C105.857 29.242 105.08 29.3644 104.302 29.6269C104.013 29.7231 103.734 29.8368 103.437 29.9243C103.043 30.0555 102.65 30.1255 102.266 30.283C102.003 30.3879 101.75 30.5279 101.505 30.6679C101.06 30.9215 100.64 31.2015 100.238 31.4989C99.9846 31.6914 99.7224 31.8926 99.4865 32.0763C99.2418 32.2425 99.0145 32.3912 98.866 32.3737C98.5689 32.365 98.5339 31.8576 99.0495 31.2277C99.1981 31.0703 99.3729 30.9041 99.5476 30.7641C99.7923 30.5541 100.02 30.3529 100.273 30.1605C100.692 29.8631 101.156 29.6706 101.61 29.4869C102.134 29.2857 102.563 29.0757 103.061 28.892C103.638 28.6908 104.249 28.5509 104.844 28.4109L106.058 28.131C106.417 28.0435 106.714 27.9385 107.055 27.8335C107.78 27.6236 108.523 27.4749 109.239 27.2737C110.349 26.9675 111.442 26.5126 112.368 25.874C112.621 25.6903 112.892 25.5066 113.093 25.2792C113.312 25.043 113.504 24.798 113.679 24.5356C113.932 24.1682 114.212 23.7745 114.326 23.3546C114.465 22.8822 114.457 22.3574 114.308 21.9025C114.177 21.5263 113.958 21.2289 113.635 20.9927C113.373 20.7915 112.953 20.634 112.639 20.4503C112.508 20.3716 112.316 20.3016 112.158 20.2404C111.782 20.0917 111.398 19.9517 110.987 19.733C110.349 19.3918 109.711 18.797 109.519 18.0447C109.44 17.7385 109.484 17.4235 109.58 17.2486C109.685 17.0736 109.799 17.0211 109.895 17.0999C110.035 17.2136 110.139 17.4061 110.279 17.651C110.323 17.721 110.358 17.791 110.41 17.8522C110.611 18.1409 110.882 18.3946 111.214 18.6045L111.232 18.622Z" fill="#ADB4A4"/>
<path d="M77.5509 10.4078C77.2799 10.644 77.0265 10.9152 76.7731 11.2214C76.2138 11.9037 75.7681 12.7785 75.2 13.6096C74.9116 14.0295 74.5883 14.4494 74.195 14.8168C73.8018 15.1929 73.3299 15.4729 72.9279 15.7178C72.4996 15.9715 72.1239 16.2339 71.8966 16.5401C71.6694 16.8375 71.5733 17.1875 71.5733 17.5811C71.5733 17.9485 71.6519 18.3334 71.8355 18.6834C72.1675 19.2957 72.6657 19.7593 73.3036 20.1705C74.0115 20.6166 74.7631 21.159 75.4884 21.6314C75.9778 21.9463 76.4759 22.2525 76.9828 22.5412C77.7519 22.9873 78.5559 23.3722 79.3424 23.7834C80.2513 24.247 81.1164 24.7194 82.0777 25.0868C82.436 25.2268 82.8031 25.3492 83.1526 25.498C83.642 25.6992 84.0877 25.9354 84.5859 26.1278C84.9267 26.2503 85.2763 26.364 85.6258 26.469C86.255 26.6614 86.893 26.8539 87.5222 27.0463C87.933 27.1688 88.3349 27.3 88.6933 27.4487C89.0516 27.5887 89.3487 27.7637 89.4186 27.9036C89.5672 28.2011 89.0516 28.3848 88.1165 28.2273C87.863 28.1836 87.6009 28.0961 87.3387 28.0348C86.9716 27.9474 86.6221 27.8686 86.255 27.7812C85.6783 27.6237 85.1189 27.405 84.5684 27.1776C83.9392 26.9326 83.3799 26.7664 82.7769 26.5302C82.0777 26.259 81.3786 25.9354 80.7057 25.6117L79.3074 24.9381C78.8792 24.7456 78.5209 24.5882 78.1014 24.4045C77.2363 23.9933 76.406 23.4947 75.5933 22.9698C74.9641 22.5674 74.3261 22.1563 73.7056 21.7276C73.0852 21.3077 72.4472 20.8791 71.8617 20.3192C71.5296 20.0043 71.2325 19.6456 70.979 19.2432C70.7081 18.8233 70.5159 18.3509 70.4459 17.8173C70.4022 17.4412 70.4459 17.0125 70.5858 16.6189C70.7343 16.2164 70.9965 15.8665 71.2674 15.6041C71.9141 15.0005 72.622 14.7031 73.1463 14.3094C73.5745 13.9945 73.9329 13.5746 74.2475 13.1022C74.5184 12.7085 74.798 12.1574 75.0864 11.7725C75.2088 11.6063 75.3486 11.3876 75.4709 11.2039C75.7506 10.7753 76.0914 10.3291 76.4759 9.94421C77.0964 9.31436 78.0053 8.78949 78.9054 8.78074C79.6745 8.76324 80.1813 9.24438 79.9366 9.36685C79.7793 9.48057 79.5172 9.52431 79.1152 9.61179C79.0103 9.62928 78.9054 9.66428 78.8006 9.69052C78.3549 9.83923 77.9354 10.0754 77.5509 10.4078Z" fill="#ADB4A4"/>
<path d="M74.894 23.2848C74.929 23.6348 74.929 23.9934 74.894 24.3783C74.7892 25.2094 74.5969 26.0317 74.2561 26.8102C74.0988 27.2039 73.8803 27.5713 73.6618 27.93C73.4346 28.2711 73.2161 28.5773 73.0413 28.8747C72.6743 29.5396 72.7617 29.977 73.2336 30.3794C73.4521 30.5718 73.723 30.7555 74.0551 30.8868C74.6319 31.1055 75.1912 31.2979 75.8116 31.4116C76.4846 31.5516 77.1924 31.7616 77.8741 31.9103C78.3285 32.024 78.7917 32.094 79.2549 32.1727C79.9627 32.2689 80.6793 32.3302 81.3872 32.3914C82.2087 32.4701 82.9952 32.5576 83.8254 32.5139C84.1313 32.5139 84.4459 32.4701 84.7518 32.4701C85.18 32.4701 85.582 32.5051 86.0102 32.4876C86.3073 32.4789 86.5957 32.4264 86.8841 32.3914L88.4659 32.1727C88.8067 32.1202 89.1476 32.0852 89.4622 32.0765C89.7768 32.0677 90.0564 32.1027 90.1613 32.2077C90.3798 32.4176 90.0827 32.7851 89.3486 33.0125C89.1476 33.0737 88.9204 33.1 88.7019 33.1437C88.4047 33.205 88.1163 33.2837 87.8192 33.3362C87.3386 33.4324 86.8404 33.4324 86.3598 33.4499C85.8092 33.4499 85.3373 33.5461 84.813 33.5549C84.2012 33.5811 83.572 33.5549 82.9603 33.5286L81.6931 33.4586C81.3173 33.4499 80.994 33.4411 80.6182 33.4324C79.8316 33.3974 79.0539 33.2487 78.2936 33.0912C77.105 32.8375 75.8903 32.5401 74.728 32.164C74.3959 32.059 74.0551 31.954 73.723 31.849C73.3647 31.7353 72.9976 31.6041 72.6393 31.3592C72.3859 31.1842 72.1237 30.9305 71.9489 30.5981C71.7742 30.2657 71.6955 29.8808 71.7217 29.5308C71.7916 28.6998 72.2286 28.1487 72.5519 27.65C72.8403 27.2389 73.0501 26.8715 73.2249 26.4516C73.3822 26.1017 73.487 25.6468 73.6181 25.3144C73.6793 25.1744 73.7143 24.9819 73.7405 24.8245C73.8104 24.4571 73.8453 24.0722 73.8366 23.696C73.8279 23.0836 73.7754 22.4363 73.7055 21.8502C73.6531 21.3778 73.6531 20.8879 73.8978 20.9229C74.0638 20.9492 74.2998 21.1154 74.4833 21.509C74.5357 21.614 74.5707 21.719 74.6144 21.8327C74.7804 22.3051 74.8503 22.7775 74.894 23.2761V23.2848Z" fill="#ADB4A4"/>
<path d="M80.7584 53.8587C80.9244 53.9024 81.0992 53.9549 81.274 54.0074C82.0867 54.2348 82.9606 54.0336 83.6598 53.5875C84.0355 53.36 84.3152 53.0101 84.5774 52.6689C84.6997 52.5115 84.8308 52.3628 84.9182 52.1791C85.0755 51.8641 85.1629 51.558 85.0842 51.3043C85.0231 51.0593 84.8832 50.8406 84.7521 50.7969C84.6735 50.7619 84.5162 50.7881 84.2715 50.9106C84.088 50.9981 83.8782 51.1293 83.5986 51.2343C83.3102 51.3393 82.9956 51.3655 82.7334 51.348C82.1217 51.2955 81.6672 51.1118 81.274 51.1818C81.1254 51.208 80.9943 51.2605 80.8545 51.3043C80.6622 51.3655 80.4525 51.4092 80.2777 51.5317C80.1554 51.6192 80.068 51.7417 79.9981 51.8554C79.867 52.0741 79.7621 52.319 79.7009 52.5815C79.666 52.7564 79.631 52.9226 79.6048 53.0888C79.5698 53.2551 79.5174 53.4213 79.4125 53.5C79.2203 53.6837 78.8095 53.5612 78.6959 52.9664C78.6697 52.8089 78.6959 52.6427 78.7047 52.4765C78.7309 52.249 78.7484 52.0216 78.827 51.8029C78.9494 51.4442 79.2115 51.1381 79.4824 50.9106C79.797 50.6482 80.0767 50.4295 80.4525 50.2808C80.872 50.1058 81.3963 50.0971 81.7983 50.167C82.078 50.202 82.3314 50.2633 82.5674 50.2808C82.7771 50.2983 82.9344 50.2633 83.083 50.2195C83.3626 50.167 83.7209 49.8784 84.4026 49.7384C84.6648 49.6947 84.9968 49.7297 85.2678 49.8696C85.5299 50.0096 85.7309 50.2108 85.8708 50.4382C86.1679 50.9019 86.1766 51.4617 86.0805 51.8904C86.0281 52.1441 85.9407 52.3715 85.862 52.5902C85.7834 52.8264 85.696 53.0626 85.5649 53.2726C85.3814 53.5875 85.0755 53.8499 84.7958 54.0861C84.4725 54.3573 84.1229 54.5847 83.7471 54.7684C83.4325 54.9172 83.1092 55.0396 82.7684 55.1096C82.48 55.1796 82.1217 55.2496 81.8508 55.1883C81.7371 55.1621 81.5886 55.1621 81.4662 55.1446C81.1866 55.1096 80.9069 55.0396 80.636 54.9696C80.1903 54.8472 79.7534 54.576 79.465 54.2523C79.2203 53.9811 79.1591 53.6225 79.3688 53.5262C79.5087 53.4563 79.7009 53.4388 79.9107 53.5262C79.9631 53.5437 80.0243 53.57 80.0767 53.5962C80.3127 53.7012 80.5224 53.8062 80.7584 53.8762V53.8587Z" fill="#ADB4A4"/>
<path d="M76.1532 49.6946C75.7163 49.4321 75.3055 49.1347 74.8773 48.7848C73.0508 47.2189 71.4079 45.3819 70.4204 43.0899C70.1757 42.4776 69.9834 41.8215 69.931 41.1391C69.8785 40.4393 69.9834 39.7307 70.2718 39.0746C70.5427 38.4623 70.9709 37.9461 71.539 37.5612C72.5527 36.9051 73.5227 36.8876 74.4229 36.6427C74.9123 36.5202 75.3842 36.3978 75.76 36.1878C76.1358 36.0041 76.4241 35.6455 76.8174 35.2168C77.0796 34.9456 77.3942 34.6307 77.8399 34.4295C78.2856 34.2283 78.8099 34.2108 79.2469 34.3245C79.9198 34.4995 80.4878 34.9106 80.8811 35.4442C81.2744 35.9604 81.4928 36.5377 81.6589 37.0801C82.0085 38.3223 82.2531 39.4945 82.5503 40.7455C82.6551 41.2091 82.7688 41.6727 82.8387 42.1539C82.9435 42.81 82.961 43.4311 83.0134 44.0872L83.1271 45.4431C83.1795 46.2654 83.1795 47.0964 83.0921 47.9187C83.0397 48.4524 82.961 48.986 82.8212 49.4496C82.6901 49.9133 82.4978 50.2894 82.358 50.3856C82.0434 50.5694 81.9211 49.9657 81.9997 48.881C82.0259 48.5836 82.0609 48.2599 82.0871 47.9537C82.1133 47.5163 82.0871 47.0964 82.0871 46.659C82.0696 45.9592 82.0871 45.2681 82.0521 44.5683C82.0172 43.781 81.8774 43.0987 81.755 42.3463C81.6065 41.4715 81.4491 40.5793 81.2481 39.7132C81.1171 39.1184 80.9597 38.5148 80.7937 37.9199C80.6364 37.395 80.4704 36.9664 80.2431 36.5465C79.9984 36.1003 79.7101 35.7504 79.3255 35.5317C78.941 35.313 78.5303 35.2605 78.1894 35.4355C77.6127 35.6804 77.1582 36.6864 76.1532 37.1851C75.2007 37.6575 74.2306 37.6925 73.4091 37.8762C72.9372 37.9724 72.5003 38.1124 72.1682 38.3573C71.8274 38.611 71.5827 38.9609 71.3904 39.3633C71.1282 39.9407 70.9534 40.658 71.0496 41.3491C71.137 42.1451 71.4603 42.9237 71.8798 43.6673C72.2294 44.2796 72.6401 44.857 73.0771 45.4081C73.4441 45.8717 73.9597 46.3879 74.3267 46.8165C74.4753 47.0002 74.7025 47.2014 74.8861 47.3764C75.3143 47.77 75.7687 48.1462 76.2581 48.4786C77.0359 49.021 77.9011 49.5633 78.6701 50.0182C79.3081 50.3944 79.8674 50.8143 79.6139 50.9455C79.4391 51.033 79.0546 51.0592 78.4691 50.858C78.3118 50.8143 78.1545 50.7443 78.0059 50.6831C77.3418 50.4119 76.7475 50.0707 76.1445 49.6946H76.1532Z" fill="#ADB4A4"/>
<path d="M83.0476 36.8789C83.3797 36.8789 83.6943 36.9664 83.974 37.0976C84.5857 37.395 85.0401 37.7187 85.4858 37.8149C85.7043 37.8674 85.8966 37.8587 86.0364 37.7974C86.185 37.7449 86.4034 37.535 86.8229 37.3688C87.2861 37.1676 87.9241 37.3338 88.2387 37.6312C88.5795 37.9112 88.7805 38.2436 88.9203 38.576C89.0427 38.8909 89.0864 39.1621 89.1825 39.4595C89.3136 39.9757 89.4272 40.4131 89.5583 40.9117C89.7068 41.4541 89.7156 42.0577 89.6894 42.6263C89.6894 43.0024 89.6457 43.3786 89.6195 43.7635C89.5583 44.3321 89.4884 44.9182 89.3311 45.4693C89.1475 46.1079 88.8766 46.6853 88.6319 47.3064C88.5358 47.5338 88.4397 47.77 88.3173 47.9887C88.1251 48.2774 87.9153 48.5311 87.7143 48.8023C87.5658 48.986 87.4434 49.1872 87.3123 49.3796C87.0501 49.7121 86.788 50.0532 86.4646 50.3332C86.2636 50.5169 86.0539 50.7006 85.8179 50.8056C85.5907 50.9193 85.3722 50.9718 85.2499 50.9193C85.0052 50.7968 85.0401 50.3857 85.3984 49.992C85.5033 49.887 85.6082 49.7733 85.7131 49.6596C85.8616 49.5021 85.984 49.3359 86.1063 49.1609C86.3161 48.8898 86.5608 48.6623 86.7792 48.3911C87.0414 48.1025 87.155 47.7788 87.3473 47.4639C87.5395 47.079 87.7668 46.7028 87.9241 46.3004C88.0551 46.0292 88.1338 45.7405 88.2299 45.4606C88.3086 45.2069 88.3086 44.9707 88.3523 44.717C88.4309 44.1747 88.5271 43.6323 88.5882 43.0812C88.6581 42.2239 88.5882 41.3403 88.4134 40.5005C88.3523 40.2643 88.3086 40.0194 88.2125 39.8007C88.1076 39.5733 88.0027 39.3546 87.8978 39.1271C87.7668 38.8472 87.6094 38.5235 87.4434 38.4098C87.356 38.3486 87.3036 38.3398 87.2249 38.3573C87.1375 38.3748 86.9802 38.4798 86.7705 38.611C86.5957 38.7247 86.3335 38.8559 86.0714 38.8909C85.8092 38.9347 85.5558 38.9259 85.3285 38.8909C84.944 38.8297 84.5158 38.6722 84.2711 38.4885C84.1662 38.4098 84.0264 38.3398 83.9215 38.2786C83.6681 38.1386 83.4234 38.0249 83.2049 37.9899C83.1175 37.9724 83.0301 37.9636 82.9515 37.9636C82.8903 37.9636 82.8291 37.9636 82.7505 37.9811C82.6107 38.0161 82.4621 38.0861 82.3485 38.1736C82.2611 38.2436 82.1737 38.3048 82.0951 38.401C82.0164 38.4885 81.9465 38.6022 81.8329 38.5847C81.6843 38.5847 81.4134 38.3048 81.5794 37.8324C81.6231 37.7187 81.6843 37.6137 81.7542 37.5175C82.0601 37.1151 82.5407 36.9052 83.0476 36.9052V36.8789Z" fill="#ADB4A4"/>
<path d="M90.4323 42.4776C90.5896 42.5126 90.7206 42.5301 90.9129 42.5651C91.3411 42.6438 91.848 42.6263 92.4248 42.8188C93.019 43.0025 93.5347 43.5448 93.7007 44.1134C93.9104 44.7083 93.9192 45.3819 93.7007 45.933C93.5958 46.1954 93.456 46.4054 93.3162 46.6241C93.0715 47.009 92.8268 47.2889 92.5733 47.6388C92.2937 48.015 91.883 48.2949 91.5072 48.5486L90.7469 49.0385C90.3623 49.2747 89.9866 49.5284 89.602 49.7296C89.1563 49.9658 88.7194 50.1407 88.3174 50.4294C88.1688 50.5344 88.029 50.6569 87.8804 50.7531C87.6707 50.8843 87.4435 50.9718 87.2512 51.1205C87.1114 51.2167 86.9978 51.3479 86.8929 51.4704C86.6919 51.6891 86.4996 51.9166 86.3161 52.144C86.1938 52.2927 86.0802 52.4414 85.9578 52.5727C85.8267 52.6951 85.6869 52.8001 85.5558 52.8001C85.2849 52.8088 85.0752 52.4852 85.2587 51.9865C85.3111 51.8553 85.3985 51.7329 85.4772 51.6104C85.582 51.4354 85.6782 51.2692 85.7918 51.103C85.984 50.8493 86.2462 50.6569 86.4909 50.4732C86.7706 50.272 86.9803 50.0533 87.2512 49.8608C87.5571 49.6421 87.8979 49.4584 88.23 49.2834C88.4572 49.161 88.6844 49.0473 88.8942 48.916C89.0864 48.8023 89.235 48.6711 89.4098 48.5486C89.7856 48.2862 90.1963 48.0937 90.5721 47.8663C91.1663 47.5164 91.7082 47.079 92.1189 46.5716C92.2325 46.4229 92.3549 46.2829 92.416 46.1167C92.486 45.9505 92.5384 45.7755 92.5908 45.6093C92.6607 45.3731 92.7656 45.1282 92.7656 44.9008C92.7656 44.6383 92.687 44.3671 92.5471 44.1747C92.4248 44.0085 92.285 43.9122 92.0927 43.8423C91.9354 43.781 91.682 43.781 91.481 43.711C91.3936 43.676 91.2712 43.676 91.1751 43.6673C90.9304 43.6411 90.677 43.6236 90.3798 43.5711C89.9166 43.4836 89.4098 43.2124 89.1563 42.74C89.0515 42.5476 89.0427 42.3201 89.1039 42.1889C89.1651 42.0489 89.27 42.0052 89.3748 42.0227C89.5321 42.0577 89.6807 42.1189 89.803 42.1889L89.8992 42.2501C90.039 42.3376 90.2138 42.4338 90.4323 42.4776Z" fill="#ADB4A4"/>
<path d="M69.5635 43.7897C69.4586 43.9646 69.3712 44.1483 69.2751 44.3495C69.0654 44.8044 68.9605 45.3905 68.7682 45.9941C68.6721 46.3003 68.5497 46.6065 68.375 46.9127C68.2002 47.2188 67.9555 47.4813 67.7632 47.6825C67.5535 47.9012 67.4049 48.1111 67.3525 48.2773C67.3001 48.4436 67.3088 48.5923 67.3525 48.7847C67.3962 48.9597 67.4748 49.1521 67.6234 49.3096C67.8856 49.5808 68.2264 49.7557 68.6634 49.8607C69.144 49.9744 69.6771 50.1756 70.1665 50.3331C70.4986 50.4381 70.8394 50.5343 71.1802 50.6043C71.6958 50.7268 72.2289 50.7967 72.7533 50.9105C73.3563 51.0329 73.9331 51.1729 74.5535 51.2079C74.7808 51.2254 75.0167 51.2254 75.2439 51.2516C75.5585 51.2866 75.8557 51.3741 76.1703 51.4091C76.3888 51.4266 76.6072 51.4266 76.8257 51.4266C77.219 51.4266 77.621 51.4266 78.0142 51.4353C78.2677 51.4353 78.5298 51.4616 78.7571 51.5053C78.993 51.5491 79.194 51.6365 79.2639 51.759C79.4038 52.0039 79.1503 52.3101 78.5735 52.4151C78.4162 52.4413 78.2502 52.4326 78.0841 52.4413C77.8569 52.4588 77.6385 52.4851 77.4025 52.5026C77.0354 52.5201 76.6684 52.4676 76.3101 52.4151C75.8994 52.3626 75.5411 52.3801 75.1478 52.3539C74.6934 52.3189 74.2302 52.2314 73.7758 52.1614L72.8407 52.0039C72.561 51.9777 72.3163 51.9515 72.0367 51.9252C71.4511 51.8465 70.8831 51.689 70.3238 51.5141C69.4411 51.2254 68.5847 51.0242 67.6671 50.578C67.4137 50.4468 67.1602 50.2719 66.9155 50.0794C66.6621 49.8695 66.4349 49.6158 66.2863 49.2833C66.0504 48.8197 66.129 48.1024 66.4174 47.665C66.7233 47.1576 67.099 46.8689 67.3088 46.5628C67.4836 46.3266 67.6059 46.0466 67.7021 45.723C67.7894 45.4605 67.8331 45.0931 67.9642 44.8219C68.0167 44.7082 68.0516 44.5507 68.0953 44.4195C68.1914 44.1221 68.3138 43.7809 68.4886 43.4747C68.7508 42.9761 69.2314 42.4862 69.8169 42.3375C70.3238 42.2063 70.7083 42.495 70.5772 42.6874C70.5073 42.8361 70.3762 42.9674 70.2102 43.0986L70.0704 43.2036C69.8781 43.361 69.6946 43.5447 69.546 43.7897H69.5635Z" fill="#ADB4A4"/>
<path d="M70.2455 51.5405C70.3329 51.7505 70.4028 51.9604 70.4378 52.2054C70.5164 52.7302 70.5426 53.2639 70.4815 53.7975C70.4378 54.3311 70.2193 54.8822 70.1319 55.2234C70.0795 55.4158 70.1057 55.5646 70.1494 55.6258C70.1931 55.6958 70.2455 55.7395 70.3766 55.8095C70.4989 55.8707 70.6737 55.9407 70.8747 55.967C71.233 56.002 71.5913 56.0195 71.9671 55.9582C72.3778 55.897 72.8148 55.9145 73.2343 55.897C73.5139 55.897 73.7936 55.8532 74.0732 55.8183C74.4927 55.757 74.9122 55.652 75.3317 55.5733C75.8123 55.4858 76.293 55.4246 76.7562 55.2496C76.9309 55.1884 77.097 55.1097 77.2805 55.0572C77.5252 54.996 77.7699 54.961 78.0146 54.891C78.1806 54.8385 78.3379 54.751 78.4952 54.681C78.7836 54.5411 79.072 54.4098 79.3692 54.2874C79.5614 54.2086 79.7537 54.1387 79.9372 54.0949C80.1295 54.0599 80.313 54.0687 80.4179 54.1474C80.6363 54.3224 80.5752 54.681 80.1994 54.9697C80.0945 55.0484 79.9634 55.1009 79.8498 55.1622C79.6838 55.2496 79.5352 55.3634 79.3692 55.4508C79.107 55.5996 78.8099 55.6695 78.5215 55.7483C78.1981 55.8357 77.9359 55.9845 77.6301 56.0807C77.2718 56.2032 76.896 56.2819 76.5377 56.3694L75.7774 56.5443C75.5502 56.5968 75.3666 56.6843 75.1482 56.7368C74.685 56.868 74.1956 56.903 73.7237 56.9292C72.9809 56.973 72.2118 57.008 71.469 56.9905C71.2505 56.9905 71.0495 56.973 70.8223 56.9905C70.5863 56.9905 70.3329 56.9905 70.0445 56.9117C69.6425 56.8155 69.1531 56.3519 69.0745 55.8357C68.9608 55.2584 69.1444 54.8297 69.2405 54.4886C69.3366 54.1999 69.3803 53.9724 69.4153 53.71C69.4415 53.4913 69.4153 53.2289 69.4502 53.0189C69.4677 52.9314 69.4502 52.8177 69.4502 52.7302C69.4328 52.5115 69.3891 52.3016 69.3192 52.0916C69.2143 51.7505 69.0919 51.4006 68.9871 51.0681C68.9084 50.797 68.8909 50.4645 69.1007 50.3858C69.2492 50.3421 69.459 50.3596 69.66 50.552C69.7124 50.6045 69.7561 50.657 69.8085 50.7182C70.0095 50.9632 70.1319 51.2431 70.2542 51.5318L70.2455 51.5405Z" fill="#ADB4A4"/>
<path d="M85.0147 56.4654C85.172 56.7803 85.3206 57.0952 85.4692 57.4539C86.0809 59.0023 86.7975 60.5332 87.383 62.1078C87.7064 62.9301 88.0472 63.7349 88.3356 64.5659C88.458 64.9596 88.5716 65.3357 88.6852 65.7294C88.9124 66.403 89.0959 66.9978 89.3668 67.6364C89.664 68.3275 89.8475 69.1148 90.0659 69.8497L90.4854 71.3281C90.7126 72.0716 90.9399 72.8239 91.1321 73.5763C91.3331 74.451 91.5079 75.2996 91.7351 76.1744C91.8225 76.4981 91.9187 76.8217 91.9886 77.1542C92.0847 77.609 92.1022 78.0552 92.1896 78.5101C92.242 78.825 92.3294 79.1312 92.3993 79.4461C92.5217 80.006 92.6353 80.5833 92.7226 81.1519C92.7751 81.5193 92.8188 81.8955 92.8275 82.2367C92.8275 82.5778 92.7838 82.8753 92.679 82.9802C92.4605 83.1989 92.1022 82.8578 91.8924 82.0792C91.8313 81.8693 91.805 81.6331 91.7613 81.4056C91.7002 81.0907 91.5953 80.802 91.5254 80.4871C91.403 79.9885 91.3593 79.4811 91.2807 78.9825C91.1933 78.4138 91.0535 77.9415 90.9311 77.3991C90.7826 76.778 90.6689 76.1306 90.5291 75.5095C90.433 75.0809 90.3369 74.6522 90.2233 74.2236C90.1271 73.8387 89.996 73.5325 89.8737 73.1651C89.629 72.3865 89.4367 71.5905 89.227 70.8032C88.9036 69.5785 88.5104 68.3363 88.1084 67.1203C87.9948 66.7792 87.8812 66.4292 87.7413 66.1056C87.5928 65.7644 87.4442 65.432 87.3044 65.0821C87.1034 64.5834 86.9461 64.0061 86.7626 63.4899C86.5528 62.8951 86.3169 62.3002 86.0896 61.7141C85.8974 61.233 85.6876 60.7519 85.4866 60.2795C85.3206 59.8771 85.0672 59.3959 84.9536 59.0023C84.9011 58.8361 84.8137 58.6349 84.7438 58.4599C84.5865 58.0575 84.403 57.6726 84.2195 57.2789C83.9223 56.6491 83.6427 55.9493 83.4504 55.3282C83.2931 54.812 83.2756 54.2784 83.5203 54.3134C83.6951 54.3396 83.9311 54.4971 84.167 54.8558C84.2282 54.952 84.2894 55.057 84.3506 55.1532C84.604 55.5818 84.805 56.0105 85.0235 56.4566L85.0147 56.4654Z" fill="#ADB4A4"/>
<path d="M5.37434 59.0111V56.3167L5.26947 54.0948C5.05099 50.1145 4.94612 47.1927 4.94612 45.3206C4.94612 44.2971 4.81504 41.1216 4.54412 35.7854C4.49169 34.6219 4.45673 33.8784 4.43925 33.546C4.41304 33.2135 4.4043 33.0386 4.4043 33.0211V32.7674C4.4043 32.6012 4.52664 32.4875 4.77134 32.435C4.91991 32.3912 5.33938 32.365 6.04725 32.365H7.865C8.05726 32.365 8.20582 32.4437 8.30195 32.6012C8.39808 32.7586 8.45052 32.9598 8.45052 33.2048C8.45052 33.4497 8.23204 33.5722 7.79508 33.5722L6.95613 33.5372H6.0123C5.82004 33.5372 5.69769 33.5722 5.64525 33.6422C5.59282 33.7122 5.57534 33.9134 5.57534 34.2283C5.57534 34.7094 5.66273 36.4852 5.82878 39.5383C5.99482 42.6 6.08221 44.3758 6.08221 44.892C6.3706 44.892 6.78134 44.822 7.31443 44.6733C7.87373 44.5246 8.28447 44.4546 8.54665 44.4546C8.69521 44.4546 8.81756 44.5421 8.93117 44.7083C9.03604 44.8745 9.09721 45.0319 9.09721 45.1807C9.09721 45.4518 8.90495 45.6268 8.51169 45.7055C8.12717 45.793 7.56786 45.8542 6.84252 45.9067C6.33565 45.9767 6.08221 46.1254 6.08221 46.3441C6.08221 47.4376 6.20456 49.4759 6.44925 52.4589C6.66773 55.1795 6.7726 57.2265 6.7726 58.6087L6.66773 58.7924C6.73765 58.9586 6.7726 59.116 6.7726 59.2648C6.7726 59.7284 6.50169 59.9558 5.9686 59.9558C5.58408 59.9558 5.38308 59.6409 5.38308 59.0111H5.37434Z" fill="#ADB4A4"/>
<path d="M14.5857 59.8859C14.4808 59.7372 14.4196 59.5622 14.4196 59.3435V57.8914C14.4196 56.3605 14.3585 54.6371 14.2361 52.7213C14.14 50.6831 14.0875 48.9598 14.0875 47.5513C14.0875 46.2392 14.0264 43.7023 13.904 39.9407C13.7555 36.5465 13.6855 34.0096 13.6855 32.3388C13.6855 32.2163 13.738 32.1113 13.8516 32.0326C13.9565 31.9451 14.0875 31.9014 14.2361 31.9014C14.6731 31.9014 14.8915 32.0851 14.8915 32.4437C14.8915 36.9314 14.9265 40.2906 14.9964 42.5213L15.1799 49.0385C15.1799 50.062 15.2499 51.7241 15.3984 54.0248L15.6169 58.5387C15.6169 58.6087 15.6519 58.6437 15.7218 58.6437C15.748 58.6699 15.9053 58.6787 16.1937 58.6787H18.4484C18.763 58.6787 18.9203 58.8974 18.9203 59.3348C18.9203 59.5272 18.8853 59.6934 18.8154 59.8246C18.7455 59.9559 18.6319 60.0258 18.4921 60.0258L18.2386 60.0608H17.9502C17.4434 60.0871 16.4559 60.0958 15.0052 60.0958C14.8391 60.0958 14.6993 60.0258 14.5857 59.8771V59.8859Z" fill="#ADB4A4"/>
<path d="M22.4248 43.1423V41.6901C22.4248 39.6519 22.5472 37.8848 22.7918 36.3802C22.9404 35.4354 23.1414 34.6568 23.3948 34.0532C23.6483 33.4496 23.9978 32.9597 24.4348 32.6011C24.8455 32.1899 25.3786 31.98 26.0341 31.98C26.6196 31.98 27.1527 32.0937 27.6333 32.3211C28.114 32.5486 28.516 32.846 28.8306 33.2134C29.0928 33.5546 29.3375 34.0007 29.5559 34.5606C29.7744 35.1205 29.9405 35.6541 30.0628 36.1615L30.3512 37.8761C30.9367 42.0226 31.2251 45.6967 31.2251 48.9072V49.0121C31.2251 50.2281 31.1989 51.3391 31.1552 52.3626C31.1028 53.5785 30.9717 54.847 30.7532 56.1854C30.6571 56.8415 30.5172 57.4101 30.3337 57.9C30.1502 58.3899 29.9142 58.871 29.6259 59.3521C29.119 60.2269 28.4024 60.6643 27.4848 60.6643C24.1115 60.6643 22.4335 54.8295 22.4335 43.1598L22.4248 43.1423ZM28.6034 58.9585C28.918 58.5123 29.1627 57.8825 29.3287 57.0864C29.7132 55.3893 29.9579 53.7272 30.0541 52.1001C30.1065 50.7879 30.124 49.5195 30.124 48.2773V48.1286L30.089 44.4895C30.0366 43.1773 29.8968 41.4802 29.6521 39.3982C29.4598 37.9198 29.0578 36.4064 28.4548 34.8493C28.2101 34.2457 27.8868 33.7733 27.4935 33.4321C27.1002 33.091 26.6633 32.9248 26.2001 32.9248C25.7894 32.9248 25.4223 33.1172 25.1077 33.5109C24.7931 33.8958 24.5397 34.4469 24.3474 35.1467C23.9105 36.7738 23.6658 38.2785 23.6221 39.6606C23.5522 40.8503 23.5172 42.075 23.5172 43.3347V45.1193C23.5172 46.7464 23.6745 48.8109 23.9891 51.3041C24.1814 52.8787 24.4261 54.2521 24.7145 55.4156C25.0029 56.5791 25.3961 57.5676 25.8768 58.3636C26.3574 59.2122 26.9167 59.6408 27.5459 59.6408C27.9305 59.6408 28.2888 59.4134 28.6034 58.9672V58.9585Z" fill="#ADB4A4"/>
<path d="M41.5457 59.5185L41.1087 57.9176C40.4271 55.6607 39.9289 53.7536 39.6143 52.2052C39.4221 51.3567 39.1774 50.1757 38.889 48.6711C38.5481 46.9215 38.2335 45.5044 37.9451 44.4109L37.5781 44.6296L37.1062 44.8483L37.1761 58.8624V59.4048C37.1761 59.8859 36.9576 60.1308 36.5207 60.1308C36.3284 60.1308 36.1711 60.0696 36.0488 59.9471C35.9264 59.8247 35.8652 59.6847 35.8652 59.5097V58.9674L35.9351 51.6191L36.0051 48.085C36.1012 43.8423 36.1536 40.2206 36.1536 37.2376V32.54C36.1536 32.3213 36.3721 32.2163 36.8091 32.2163C37.4383 32.2163 38.0238 32.3825 38.5744 32.7237C39.1162 33.0649 39.5531 33.5285 39.8678 34.1059C40.5232 35.2956 40.8465 36.5903 40.8465 37.9987C40.8465 39.1184 40.6018 40.3256 40.1212 41.6378C39.9726 42.0052 39.7978 42.4164 39.5794 42.8975C39.3609 43.3786 39.1686 43.6935 38.9938 43.8598C39.5007 45.7318 40.2435 48.6011 41.2136 52.4852L42.9265 59.0373C42.9527 59.1073 42.9614 59.2473 42.9614 59.4398C42.9614 59.6584 42.9177 59.8422 42.8303 59.9996C42.7429 60.1571 42.6206 60.2358 42.4458 60.2358C41.9564 60.2358 41.6593 59.9909 41.5369 59.5097L41.5457 59.5185ZM38.0588 42.9587C38.5219 42.4951 38.8453 42.1102 39.0375 41.7953C39.2036 41.4541 39.3521 40.9467 39.4745 40.2644C39.5968 39.582 39.658 38.9784 39.658 38.4448C39.658 37.4475 39.492 36.4328 39.1511 35.3918C38.9851 34.7882 38.7229 34.2983 38.3908 33.9221C38.05 33.546 37.6742 33.3535 37.2635 33.3535H37.1936C37.1936 33.3535 37.1324 33.3885 37.0887 33.3885V43.6498C37.281 43.6498 37.6131 43.4224 38.0675 42.9587H38.0588Z" fill="#ADB4A4"/>
<path d="M52.9416 59.7022C52.8105 59.5798 52.7406 59.4398 52.7406 59.2649V54.4972C52.7406 54.2086 52.1201 53.9374 50.8879 53.6924C49.6557 53.4475 48.6332 53.325 47.8379 53.325C47.7855 53.325 47.7069 53.5087 47.602 53.8674C47.4971 54.2261 47.4097 54.4972 47.366 54.6722C47.0514 55.9319 46.7368 57.2791 46.4222 58.7137L46.2387 59.5185C46.1862 59.711 46.0726 59.8072 45.8716 59.8072C45.6706 59.8072 45.5046 59.746 45.3473 59.6235C45.19 59.501 45.1113 59.3611 45.1113 59.1861L45.1463 59.1161V59.0811L45.5483 57.2616C45.8367 56.1244 46.0901 55.0046 46.3086 53.9111C46.5533 52.6689 46.7368 51.8729 46.8504 51.5055C47.0427 50.7007 47.4359 48.7061 48.0127 45.5044L48.2312 44.306C48.8604 40.5706 49.2974 38.2174 49.5421 37.2464C49.6644 36.6603 49.8829 35.803 50.1975 34.6658C50.3199 34.1846 50.4859 33.6948 50.7044 33.2136C50.9229 32.8025 51.1064 32.5925 51.2462 32.5925C51.6307 32.5925 51.9104 32.715 52.0852 32.9599C52.2075 33.1786 52.391 34.3771 52.6532 36.5641C52.9154 38.751 53.1339 40.9555 53.3261 43.1862L53.798 49.231C53.798 50.272 53.8679 51.8554 54.0165 53.9636C54.1651 56.0981 54.235 57.6902 54.235 58.7312V58.8799C54.235 59.1511 54.2 59.3873 54.1301 59.606C54.034 59.7985 53.8068 59.8947 53.4397 59.8947C53.2475 59.8947 53.0814 59.8335 52.9503 59.711L52.9416 59.7022ZM52.7056 52.494C52.7056 50.9893 52.6182 48.9336 52.4522 46.3267C52.2862 43.7198 52.1026 41.4192 51.9104 39.4334C51.8579 38.5848 51.7618 37.6488 51.622 36.6341L51.4734 35.2169C51.4734 35.2169 51.4472 35.1119 51.4035 34.8145L51.3336 34.3771C51.1413 34.9107 50.9491 35.6543 50.7743 36.5991C50.5908 37.5438 50.4072 38.6636 50.2062 39.9495C49.6207 43.5624 49.1313 46.283 48.7119 48.1025L48.3885 49.336C48.0215 50.552 47.8467 51.4705 47.8467 52.1003V52.319C48.9129 52.6602 50.1363 52.8264 51.5171 52.8264H51.7356C51.8055 52.8526 51.8929 52.8614 51.989 52.8614C52.4697 52.8614 52.7144 52.7389 52.7144 52.494H52.7056Z" fill="#ADB4A4"/>
<path d="M60.073 59.8859C59.9681 59.7372 59.9069 59.5622 59.9069 59.3435V57.8914C59.9069 56.3605 59.8458 54.6371 59.7234 52.7213C59.6273 50.6831 59.5749 48.9598 59.5749 47.5513C59.5749 46.2392 59.5137 43.7023 59.3913 39.9407C59.2428 36.5465 59.1729 34.0096 59.1729 32.3388C59.1729 32.2163 59.2253 32.1113 59.3389 32.0326C59.4438 31.9451 59.5748 31.9014 59.7234 31.9014C60.1604 31.9014 60.3789 32.0851 60.3789 32.4437C60.3789 36.9314 60.4138 40.2906 60.4837 42.5213L60.6672 49.0385C60.6672 50.062 60.7372 51.7241 60.8857 54.0248L61.1042 58.5387C61.1042 58.6087 61.1392 58.6437 61.2091 58.6437C61.2353 58.6699 61.3926 58.6787 61.681 58.6787H63.9357C64.2503 58.6787 64.4076 58.8974 64.4076 59.3348C64.4076 59.5272 64.3726 59.6934 64.3027 59.8246C64.2328 59.9559 64.1192 60.0258 63.9794 60.0258L63.7259 60.0608H63.4375C62.9307 60.0871 61.9432 60.0958 60.4925 60.0958C60.3264 60.0958 60.1866 60.0258 60.073 59.8771V59.8859Z" fill="#ADB4A4"/>
<path d="M128.736 60.1047C128.666 60.0084 128.631 59.8597 128.631 59.6673V59.2299C128.657 59.1337 128.666 59.0024 128.666 58.8275C128.666 55.5033 128.544 51.2955 128.299 46.1955H126.665C125.31 46.1955 124.463 46.2305 124.122 46.3005C124.122 48.0763 124.218 50.272 124.41 52.8877C124.629 55.8707 124.733 58.0664 124.733 59.4748C124.733 59.8422 124.602 60.0172 124.331 60.0172C123.964 60.0172 123.79 59.851 123.79 59.5098C123.763 58.3201 123.711 56.6755 123.624 54.576C123.536 52.4765 123.458 50.7007 123.388 49.2485C122.924 43.4749 122.697 37.9463 122.697 32.6538C122.697 32.4088 122.855 32.2864 123.169 32.2864C123.318 32.2864 123.431 32.3301 123.51 32.4176C123.597 32.5051 123.624 32.6188 123.597 32.7675V35.4619C123.597 36.118 123.659 37.3514 123.781 39.171L123.851 40.4132C123.903 41.7691 123.921 42.5826 123.921 42.8538V44.6384C123.921 45.2683 123.982 45.5832 124.104 45.5832L125.485 45.5132L126.21 45.4432C127.425 45.347 128.116 45.2945 128.282 45.2945L128.317 45.2245C128.317 44.1573 128.255 42.1103 128.133 39.0747C128.011 35.9955 127.949 33.931 127.949 32.89C127.949 32.6013 128.116 32.4526 128.456 32.4526C128.622 32.4526 128.771 32.4963 128.893 32.5838C129.016 32.6713 129.077 32.785 129.077 32.9337C129.077 37.6663 129.164 42.8713 129.33 48.5487C129.496 54.2523 129.584 57.7427 129.584 59.0287V59.5361C129.584 59.7285 129.54 59.9035 129.453 60.0434C129.365 60.1922 129.252 60.2621 129.103 60.2621C128.911 60.2621 128.78 60.2097 128.701 60.1134L128.736 60.1047Z" fill="#ADB4A4"/>
<path d="M134.521 43.1425V41.6904C134.521 39.6521 134.644 37.8851 134.889 36.3804C135.037 35.4356 135.229 34.6571 135.492 34.0535C135.745 33.4499 136.095 32.96 136.531 32.6013C136.942 32.1902 137.475 31.9802 138.131 31.9802C138.716 31.9802 139.249 32.0939 139.73 32.3214C140.211 32.5488 140.613 32.8463 140.927 33.2137C141.189 33.5548 141.434 34.001 141.653 34.5609C141.871 35.1207 142.037 35.6543 142.159 36.1617L142.448 37.8763C143.033 42.0228 143.322 45.6969 143.322 48.9074V49.0124C143.322 50.2283 143.296 51.3393 143.252 52.3628C143.199 53.5788 143.068 54.8472 142.85 56.1856C142.754 56.8417 142.614 57.4103 142.43 57.9002C142.247 58.3901 142.011 58.8712 141.723 59.3524C141.216 60.2272 140.499 60.6646 139.581 60.6646C136.208 60.6646 134.53 54.8297 134.53 43.16L134.521 43.1425ZM140.7 58.9587C141.015 58.5126 141.259 57.8827 141.425 57.0867C141.81 55.3896 142.055 53.7275 142.151 52.1004C142.194 50.7882 142.221 49.5198 142.221 48.2775V48.1288L142.186 44.4897C142.133 43.1775 141.993 41.4804 141.749 39.3984C141.556 37.92 141.154 36.4067 140.551 34.8495C140.307 34.2459 139.992 33.7735 139.59 33.4324C139.188 33.0912 138.76 32.925 138.297 32.925C137.886 32.925 137.519 33.1175 137.204 33.5111C136.89 33.9048 136.636 34.4471 136.444 35.147C136.007 36.7741 135.762 38.2787 135.719 39.6609C135.649 40.8506 135.614 42.0753 135.614 43.335V45.1196C135.614 46.7467 135.771 48.8112 136.086 51.3043C136.278 52.8789 136.523 54.2524 136.811 55.4158C137.1 56.5793 137.493 57.5678 137.973 58.3639C138.454 59.2124 139.013 59.6411 139.643 59.6411C140.027 59.6411 140.385 59.4136 140.7 58.9675V58.9587Z" fill="#ADB4A4"/>
<path d="M151.641 60.2097C151.161 59.9648 150.759 59.6499 150.444 59.265C150.129 58.8975 149.85 58.4514 149.605 57.9178C149.36 57.3842 149.168 56.8505 149.02 56.3169C148.775 55.4946 148.591 54.4624 148.478 53.2202L148.408 52.0917C148.408 51.8467 148.408 51.6893 148.39 51.6193C148.382 51.5493 148.373 51.4968 148.373 51.4706C148.25 50.2809 148.102 47.6653 147.918 43.6062C147.735 39.5472 147.647 36.398 147.647 34.141V33.5986C147.647 32.9688 147.831 32.6539 148.189 32.6539C148.696 32.6539 148.95 32.9425 148.95 33.5287V33.7823L148.915 34.071C148.915 36.8878 149.002 40.212 149.168 44.0611C149.334 47.9102 149.509 50.6833 149.675 52.3804C149.797 53.4476 149.998 54.5411 150.295 55.6521C150.488 56.4044 150.697 57.0342 150.933 57.5416C151.161 58.049 151.458 58.4776 151.825 58.8188C152.262 59.2037 152.681 59.4049 153.101 59.4049C153.52 59.4049 153.878 59.3087 154.211 59.1162C154.534 58.9238 154.787 58.6701 154.953 58.3552C155.119 58.0927 155.259 57.7428 155.373 57.3142C155.486 56.8855 155.548 56.4831 155.574 56.0982C155.6 55.8533 155.609 55.4509 155.609 54.8998V50.7533C155.609 48.9074 155.556 46.6417 155.46 43.9474L155.312 39.2848L155.242 36.188C155.172 34.8321 155.137 33.7998 155.137 33.0913C155.137 32.8288 155.207 32.6189 155.355 32.4702C155.504 32.3214 155.67 32.2515 155.862 32.2515C156.055 32.2515 156.221 32.3214 156.352 32.4702C156.483 32.6189 156.553 32.8201 156.553 33.0913V35.8556C156.553 37.0716 156.561 38.1563 156.588 39.1273V42.399C156.588 44.7522 156.614 46.8167 156.658 48.5838C156.684 50.3771 156.692 52.3891 156.692 54.6286C156.692 55.2322 156.666 55.7658 156.623 56.2294C156.57 56.6931 156.474 57.1742 156.334 57.6816C156.186 58.2677 155.985 58.7576 155.731 59.1512C155.478 59.5536 155.146 59.8861 154.735 60.1485C154.272 60.4109 153.765 60.5509 153.206 60.5509C152.646 60.5509 152.131 60.4284 151.641 60.1835V60.2097Z" fill="#ADB4A4"/>
<path d="M162.39 60.6295C162.163 60.5945 161.91 60.5158 161.648 60.3933C161.359 60.2446 161.141 60.0434 160.992 59.7722C160.992 59.4836 161.123 59.3348 161.394 59.3348C161.665 59.3348 161.997 59.4223 162.417 59.5885C162.801 59.781 163.133 59.8772 163.395 59.8772C163.929 59.8772 164.418 59.6585 164.864 59.2211C165.309 58.7837 165.659 58.2151 165.904 57.5065C166.384 56.1244 166.629 54.8997 166.629 53.8324C166.629 52.6427 166.463 51.4442 166.122 50.2283C165.781 49.0123 165.336 47.8751 164.776 46.8079C164.654 46.5454 164.444 46.143 164.156 45.6094C163.553 44.3934 163.09 43.4487 162.775 42.7663C162.46 42.084 162.181 41.3317 161.936 40.5094C161.595 39.4159 161.429 38.2437 161.429 36.9752C161.429 36.1704 161.56 35.4094 161.814 34.6658C162.067 33.9222 162.469 33.2924 163.028 32.7587C163.631 32.1989 164.313 31.9189 165.065 31.9189C165.353 31.9189 165.703 32.0327 166.122 32.2689C166.542 32.5051 166.743 32.7237 166.743 32.9424C166.743 33.1349 166.673 33.2311 166.524 33.2311C166.375 33.2311 166.183 33.1699 165.939 33.0474C165.72 32.925 165.51 32.8637 165.318 32.8637C164.759 32.8637 164.269 33.0737 163.85 33.4848C163.422 33.896 163.116 34.4033 162.924 35.0157C162.757 35.5231 162.67 36.0829 162.67 36.6865C162.67 37.6313 162.792 38.6111 163.037 39.6171C163.282 40.6231 163.605 41.5679 164.016 42.4339L165.292 45.0933L165.659 45.8543C166.166 46.8953 166.559 47.7614 166.839 48.435C167.118 49.1173 167.354 49.8784 167.547 50.7269C167.817 51.8641 167.949 52.9576 167.949 53.9986C167.949 55.407 167.581 56.8417 166.856 58.2938C166.489 58.9937 166.008 59.571 165.405 60.0084C164.802 60.4458 164.13 60.6645 163.404 60.6645C162.967 60.6645 162.635 60.647 162.408 60.612L162.39 60.6295Z" fill="#ADB4A4"/>
<path d="M173.148 59.9384C172.921 59.8335 172.807 59.6148 172.807 59.2998V58.6088C172.781 58.4163 172.772 58.1976 172.772 57.9527V57.8827L172.807 52.5727L172.772 37.5438C172.772 35.9955 172.746 34.6483 172.702 33.5023C172.702 33.2136 172.763 32.9687 172.886 32.7762C173.008 32.5838 173.165 32.4875 173.358 32.4875H175.612C175.953 32.4875 176.207 32.5138 176.373 32.5575C176.617 32.6275 176.74 32.8375 176.74 33.1786C176.74 33.3711 176.67 33.5285 176.521 33.651C176.373 33.7735 176.215 33.8435 176.049 33.8697H175.429L174.843 33.8347L174.258 33.7997C174.092 33.7997 173.969 33.8347 173.908 33.8872C173.847 33.9397 173.821 34.0622 173.821 34.2371C173.821 35.3744 173.83 36.4066 173.856 37.3339V44.9795C173.856 45.032 173.882 45.0495 173.926 45.0495H173.996C174.599 45.0058 175.254 44.9795 175.962 44.9795C176.346 44.9795 176.547 45.1458 176.547 45.4869C176.547 45.7319 176.504 45.8893 176.416 45.9768C176.329 46.0643 176.189 46.108 175.997 46.108H173.926C173.83 46.108 173.777 46.1693 173.777 46.2917L173.847 51.6804C173.899 53.3513 173.917 55.2846 173.917 57.4715V58.8187H177.334C177.771 58.8187 177.989 58.9762 177.989 59.2911C177.989 59.676 177.884 59.9122 177.666 59.9822C177.378 60.0784 176.783 60.1309 175.883 60.1309H174.354C173.768 60.1309 173.366 60.0784 173.139 59.9647L173.148 59.9384Z" fill="#ADB4A4"/>
<path d="M5.67171 68.9226C6.44075 68.9051 7.20106 68.8963 8.03127 68.9138C11.6493 68.9925 15.3285 68.9138 18.9639 68.9313C20.8778 68.94 22.7829 68.8613 24.6968 68.8876C25.5969 68.8963 26.4446 68.9488 27.336 68.9663C28.8916 68.9838 30.2287 68.9925 31.7406 68.9138C33.3748 68.8263 35.1226 68.8876 36.783 68.9138C37.8929 68.9313 39.0115 68.9313 40.1214 68.9313C41.8168 68.9313 43.5209 68.8788 45.2163 68.8963C47.1651 68.9226 49.044 68.9925 51.0103 68.9575C51.7444 68.94 52.4785 68.9138 53.2126 68.9226C54.2263 68.94 55.1789 69.0363 56.1839 69.0538C56.8743 69.0713 57.5734 69.0538 58.2638 69.0363C59.5223 69.0188 60.7807 69.0188 62.0304 69.0363C62.8431 69.0538 63.6559 69.08 64.3812 69.1587C65.1066 69.2375 65.7358 69.3774 65.9193 69.5524C66.3038 69.9111 65.4474 70.3222 63.6908 70.4272C63.2102 70.4534 62.6946 70.4359 62.1964 70.4447C61.4973 70.4534 60.8244 70.5059 60.1253 70.5234C59.0067 70.5497 57.8881 70.4884 56.7869 70.4447C55.5285 70.3922 54.4448 70.4534 53.2301 70.4534C51.8318 70.4534 50.3986 70.4097 49.0003 70.3922C48.039 70.3747 47.069 70.366 46.099 70.3747C45.2338 70.3747 44.491 70.4359 43.652 70.4622C41.8692 70.5234 40.0602 70.4622 38.2687 70.4359C35.4809 70.3835 32.6232 70.3834 29.8267 70.3834C29.0314 70.3834 28.2362 70.3747 27.4584 70.4097C26.6456 70.4447 25.8416 70.4884 25.0114 70.5147C23.8229 70.5409 22.5295 70.4622 21.3235 70.4534C19.934 70.4359 18.5445 70.4359 17.1549 70.4447C16.0101 70.4447 14.874 70.4622 13.7292 70.4709C12.7679 70.4797 11.5881 70.5409 10.6967 70.4709C10.3122 70.4447 9.83154 70.4447 9.42954 70.4447C8.48571 70.4359 7.54188 70.4359 6.59806 70.4447C5.05997 70.4622 3.41701 70.4097 1.99253 70.2785C0.812748 70.1648 -0.244687 69.8761 0.0611826 69.5786C0.270922 69.3687 0.804009 69.1675 1.7391 69.08C1.98379 69.0538 2.23723 69.045 2.49066 69.0275C3.57432 68.9663 4.59679 68.9663 5.68045 68.94L5.67171 68.9226Z" fill="#ADB4A4"/>
<path d="M5.54876 21.5615C6.30032 21.544 7.05189 21.5352 7.85589 21.5527C11.3952 21.6314 14.987 21.5527 18.5439 21.5702C20.414 21.579 22.2755 21.5002 24.1544 21.5265C25.0283 21.5352 25.8585 21.5877 26.7324 21.6052C28.253 21.6227 29.5552 21.6314 31.0408 21.5527C32.6401 21.4652 34.353 21.5265 35.9697 21.5527C37.0533 21.5702 38.1457 21.5702 39.2294 21.5702C40.8898 21.5702 42.559 21.5177 44.2107 21.5352C46.1158 21.5615 47.951 21.6314 49.8737 21.5965C50.5903 21.579 51.3069 21.5527 52.0235 21.5615C53.011 21.579 53.9461 21.6752 54.9336 21.6927C55.6153 21.7102 56.2969 21.6927 56.9698 21.6752C58.1933 21.6577 59.4343 21.6577 60.6578 21.6752C61.4443 21.6927 62.2483 21.7189 62.9561 21.7977C63.664 21.8764 64.2758 22.0164 64.4593 22.1913C64.8351 22.55 63.9961 22.9611 62.2745 23.0661C61.8026 23.0923 61.2957 23.0748 60.8063 23.0836C60.1247 23.0923 59.4605 23.1448 58.7788 23.1623C57.6865 23.1886 56.5941 23.1273 55.5104 23.0836C54.2869 23.0311 53.2207 23.0923 52.0322 23.0923C50.6689 23.0923 49.2619 23.0486 47.8986 23.0311C46.9548 23.0136 46.011 23.0049 45.0584 23.0136C44.2107 23.0136 43.4941 23.0749 42.6639 23.1011C40.916 23.1623 39.1507 23.1011 37.4029 23.0748C34.6763 23.0224 31.8885 23.0224 29.1532 23.0224C28.3754 23.0224 27.5976 23.0136 26.8373 23.0486C26.042 23.0836 25.2555 23.1273 24.4515 23.1536C23.2892 23.1798 22.022 23.1011 20.8422 23.0923C19.4877 23.0749 18.1244 23.0748 16.7611 23.0836C15.6425 23.0836 14.5326 23.1011 13.414 23.1098C12.4789 23.1186 11.3253 23.1798 10.4514 23.1098C10.0756 23.0836 9.61246 23.0836 9.21045 23.0836C8.28411 23.0748 7.3665 23.0748 6.44015 23.0836C4.93702 23.1011 3.32902 23.0486 1.93949 22.9174C0.785928 22.8037 -0.24529 22.515 0.0431014 22.2176C0.252841 22.0076 0.76845 21.8064 1.68606 21.7189C1.92202 21.6927 2.17545 21.6839 2.42889 21.6664C3.48632 21.6052 4.49132 21.6052 5.54002 21.579L5.54876 21.5615Z" fill="#ADB4A4"/>
<path d="M125.537 21.5615C126.227 21.544 126.918 21.5352 127.669 21.5527C130.938 21.6314 134.25 21.5527 137.536 21.5702C139.266 21.579 140.988 21.5002 142.71 21.5265C143.522 21.5352 144.283 21.5877 145.095 21.6052C146.494 21.6227 147.708 21.6314 149.072 21.5527C150.549 21.4652 152.13 21.5265 153.616 21.5527C154.621 21.5702 155.626 21.5702 156.631 21.5702C158.16 21.5702 159.698 21.5177 161.228 21.5352C162.993 21.5615 164.68 21.6314 166.454 21.5965C167.118 21.579 167.773 21.5527 168.438 21.5615C169.346 21.579 170.212 21.6752 171.12 21.6927C171.75 21.7102 172.379 21.6927 172.999 21.6752C174.135 21.6577 175.272 21.6577 176.399 21.6752C177.133 21.6927 177.867 21.7189 178.522 21.7977C179.178 21.8764 179.746 22.0164 179.912 22.1913C180.262 22.55 179.484 22.9611 177.902 23.0661C177.465 23.0923 177.002 23.0748 176.547 23.0836C175.918 23.0923 175.306 23.1448 174.677 23.1623C173.664 23.1886 172.659 23.1273 171.662 23.0836C170.526 23.0311 169.547 23.0923 168.455 23.0923C167.197 23.0923 165.894 23.0486 164.636 23.0311C163.762 23.0136 162.888 23.0049 162.014 23.0136C161.228 23.0136 160.564 23.0749 159.803 23.1011C158.187 23.1623 156.561 23.1011 154.944 23.0748C152.427 23.0224 149.849 23.0224 147.324 23.0224C146.607 23.0224 145.891 23.0136 145.183 23.0486C144.449 23.0836 143.723 23.1273 142.98 23.1536C141.906 23.1798 140.743 23.1011 139.651 23.0923C138.401 23.0749 137.143 23.0748 135.884 23.0836C134.853 23.0836 133.822 23.1011 132.791 23.1098C131.925 23.1186 130.859 23.1798 130.055 23.1098C129.706 23.0836 129.277 23.0836 128.91 23.0836C128.063 23.0748 127.206 23.0748 126.35 23.0836C124.96 23.1011 123.483 23.0486 122.199 22.9174C121.133 22.8037 120.18 22.515 120.451 22.2176C120.643 22.0076 121.115 21.8064 121.963 21.7189C122.181 21.6927 122.417 21.6839 122.644 21.6664C123.623 21.6052 124.55 21.6052 125.52 21.579L125.537 21.5615Z" fill="#ADB4A4"/>
<path d="M125.537 68.9226C126.227 68.9051 126.918 68.8963 127.669 68.9138C130.938 68.9925 134.25 68.9138 137.536 68.9313C139.266 68.94 140.988 68.8613 142.71 68.8876C143.522 68.8963 144.283 68.9488 145.095 68.9663C146.494 68.9838 147.708 68.9925 149.072 68.9138C150.549 68.8263 152.13 68.8876 153.616 68.9138C154.621 68.9313 155.626 68.9313 156.631 68.9313C158.16 68.9313 159.698 68.8788 161.228 68.8963C162.993 68.9226 164.68 68.9925 166.454 68.9575C167.118 68.94 167.773 68.9138 168.438 68.9226C169.346 68.94 170.212 69.0363 171.12 69.0538C171.75 69.0713 172.379 69.0538 172.999 69.0363C174.135 69.0188 175.272 69.0188 176.399 69.0363C177.133 69.0538 177.867 69.08 178.522 69.1587C179.178 69.2375 179.746 69.3774 179.912 69.5524C180.262 69.9111 179.484 70.3222 177.902 70.4272C177.465 70.4534 177.002 70.4359 176.547 70.4447C175.918 70.4534 175.306 70.5059 174.677 70.5234C173.664 70.5497 172.659 70.4884 171.662 70.4447C170.526 70.3922 169.547 70.4534 168.455 70.4534C167.197 70.4534 165.894 70.4097 164.636 70.3922C163.762 70.3747 162.888 70.366 162.014 70.3747C161.228 70.3747 160.564 70.4359 159.803 70.4622C158.187 70.5234 156.561 70.4622 154.944 70.4359C152.427 70.3835 149.849 70.3834 147.324 70.3834C146.607 70.3834 145.891 70.3747 145.183 70.4097C144.449 70.4447 143.723 70.4884 142.98 70.5147C141.906 70.5409 140.743 70.4622 139.651 70.4534C138.401 70.4359 137.143 70.4359 135.884 70.4447C134.853 70.4447 133.822 70.4622 132.791 70.4709C131.925 70.4797 130.859 70.5409 130.055 70.4709C129.706 70.4447 129.277 70.4447 128.91 70.4447C128.063 70.4359 127.206 70.4359 126.35 70.4447C124.96 70.4622 123.483 70.4097 122.199 70.2785C121.133 70.1648 120.18 69.8761 120.451 69.5786C120.643 69.3687 121.115 69.1675 121.963 69.08C122.181 69.0538 122.417 69.045 122.644 69.0275C123.623 68.9663 124.55 68.9663 125.52 68.94L125.537 68.9226Z" fill="#ADB4A4"/>
</g>
<defs>
<clipPath id="clip0_460_8820">
<rect width="180" height="83" fill="white" transform="translate(0 0.032959)"/>
</clipPath>
</defs>
</svg>
