<svg width="117" height="101" viewBox="0 0 117 101" fill="none" xmlns="http://www.w3.org/2000/svg">
<g clip-path="url(#clip0_460_8944)">
<path d="M62.0697 32.573C62.0997 33.153 62.1197 33.733 62.1197 34.363C62.1197 37.103 62.2497 39.883 62.2997 42.643C62.3297 44.093 62.4297 45.533 62.4397 46.983C62.4397 47.663 62.4097 48.303 62.4197 48.983C62.4297 50.163 62.4497 51.173 62.5397 52.313C62.6397 53.553 62.6197 54.873 62.6297 56.133C62.6297 56.973 62.6497 57.823 62.6797 58.663C62.7097 59.943 62.7897 61.243 62.7997 62.523C62.8097 64.003 62.7797 65.423 62.8497 66.913C62.8797 67.463 62.9097 68.023 62.9197 68.583C62.9197 69.343 62.8597 70.073 62.8597 70.833C62.8597 71.363 62.8897 71.883 62.9097 72.413C62.9497 73.363 62.9697 74.323 62.9697 75.273C62.9697 75.883 62.9597 76.503 62.8997 77.053C62.8397 77.603 62.7397 78.083 62.5897 78.223C62.2897 78.523 61.9197 77.883 61.7997 76.553C61.7697 76.183 61.7697 75.793 61.7597 75.423C61.7397 74.893 61.6797 74.383 61.6597 73.853C61.6197 73.003 61.6597 72.163 61.6697 71.323C61.6897 70.373 61.6197 69.553 61.5997 68.633C61.5697 67.573 61.5897 66.483 61.5797 65.423C61.5797 64.693 61.5697 63.963 61.5497 63.223C61.5297 62.563 61.4697 62.013 61.4297 61.373C61.3497 60.023 61.3597 58.653 61.3497 57.303C61.3497 55.193 61.2897 53.033 61.2497 50.913C61.2397 50.313 61.2297 49.703 61.1897 49.123C61.1397 48.503 61.0897 47.903 61.0597 47.273C61.0097 46.373 61.0597 45.393 61.0497 44.473C61.0397 43.423 61.0197 42.363 60.9897 41.313C60.9697 40.453 60.9397 39.583 60.8997 38.723C60.8697 37.993 60.7997 37.103 60.8497 36.423C60.8697 36.133 60.8497 35.773 60.8497 35.463C60.8497 34.753 60.8297 34.033 60.7997 33.323C60.7597 32.163 60.7697 30.913 60.8597 29.833C60.9297 28.933 61.1697 28.133 61.4297 28.353C61.6097 28.513 61.7997 28.903 61.8897 29.613C61.9097 29.793 61.9297 29.993 61.9497 30.183C62.0197 31.003 62.0397 31.773 62.0797 32.593L62.0697 32.573Z" fill="#ADB4A4"/>
<path d="M62.3603 56.093C62.4103 55.653 62.5003 55.213 62.6103 54.753C63.1403 52.723 63.7603 50.693 64.6403 48.783C65.1003 47.783 65.5403 46.773 66.1003 45.823C66.3703 45.383 66.6503 44.983 66.9303 44.553C67.4103 43.803 67.8403 43.163 68.2803 42.413C68.7503 41.593 69.4003 40.833 70.0003 40.093L71.2203 38.623C71.8403 37.873 72.4603 37.1229 73.1203 36.4229C73.8903 35.6229 74.6803 34.8929 75.4403 34.0829C75.7203 33.7729 76.0003 33.473 76.3103 33.183C76.7303 32.793 77.1703 32.473 77.6003 32.093C77.8903 31.833 78.1703 31.5429 78.4503 31.2629C78.9503 30.7629 79.4803 30.273 80.0103 29.803C80.3603 29.503 80.7103 29.203 81.0603 28.973C81.4103 28.743 81.7503 28.593 81.9303 28.623C82.3003 28.703 82.1803 29.293 81.5203 30.033C81.3403 30.233 81.1203 30.423 80.9103 30.623C80.6303 30.893 80.3803 31.193 80.1003 31.473C79.6603 31.923 79.1603 32.313 78.6903 32.713C78.1503 33.173 77.7503 33.633 77.2603 34.113C76.6903 34.653 76.1103 35.2129 75.5503 35.7629C75.1603 36.143 74.7803 36.523 74.4103 36.933C74.0803 37.293 73.8403 37.6329 73.5403 37.9929C72.9103 38.7729 72.2103 39.5029 71.5703 40.2629C70.5503 41.443 69.5903 42.723 68.7303 44.023C68.4803 44.393 68.2403 44.763 68.0403 45.143C67.8303 45.543 67.6303 45.943 67.4203 46.353C67.1203 46.943 66.7203 47.5329 66.4103 48.1329C66.0503 48.813 65.7303 49.523 65.4403 50.233C65.2003 50.823 64.9803 51.413 64.7903 52.013C64.6203 52.513 64.4803 53.153 64.2903 53.613C64.2003 53.813 64.1503 54.063 64.0903 54.283C63.9503 54.783 63.8403 55.2929 63.7503 55.813C63.6003 56.643 63.4403 57.5329 63.2603 58.313C63.1203 58.9529 62.8403 59.533 62.5903 59.363C62.4203 59.233 62.2603 58.923 62.2203 58.3829C62.2103 58.243 62.2203 58.093 62.2203 57.943C62.2203 57.313 62.3103 56.723 62.3903 56.103L62.3603 56.093Z" fill="#ADB4A4"/>
<path d="M81.9001 32.7829C81.8301 33.2229 81.7401 33.6529 81.6301 34.1229C81.1301 36.1529 80.7001 38.2429 80.0901 40.2729C79.7701 41.3429 79.4901 42.4129 79.0901 43.4629C78.8901 43.9529 78.6801 44.4029 78.4701 44.8829C78.1101 45.7129 77.7901 46.4329 77.4601 47.2529C77.1101 48.1529 76.5601 49.0329 76.0501 49.8529C75.6901 50.4029 75.3501 50.9529 74.9601 51.4929C74.4001 52.3229 73.7901 53.1229 73.1301 53.8729C72.3401 54.7129 71.5301 55.4729 70.6601 56.2429C70.3501 56.5429 70.0101 56.8229 69.6701 57.0829C69.1901 57.4429 68.6701 57.6929 68.1601 58.0029C67.8001 58.2029 67.4701 58.4529 67.1101 58.6529C66.4701 59.0329 65.7901 59.3529 65.0901 59.6229C64.6301 59.7729 64.1801 59.9429 63.7401 59.9929C63.3101 60.0529 62.9201 60.0429 62.7801 59.9329C62.4901 59.6929 62.8801 59.2229 63.7701 58.8429C64.0101 58.7229 64.2801 58.6329 64.5401 58.5329C64.9001 58.3829 65.2101 58.1729 65.5601 58.0029C66.1001 57.7029 66.6801 57.4729 67.2101 57.1629C67.8301 56.8429 68.3001 56.4329 68.8401 56.0329C69.4601 55.5529 70.0901 55.0629 70.6701 54.5329C71.0701 54.1729 71.4601 53.7929 71.8201 53.3829C72.1601 53.0329 72.3701 52.6629 72.6701 52.2929C73.2601 51.4829 73.9001 50.7029 74.4701 49.8629C75.3601 48.5729 76.1201 47.1429 76.7701 45.7029C76.9601 45.2929 77.1401 44.8829 77.2801 44.4629C77.4201 44.0229 77.5601 43.5929 77.7001 43.1429C77.9101 42.5029 78.2101 41.8329 78.4301 41.1829C78.6901 40.4329 78.9101 39.6729 79.1201 38.9129C79.2901 38.2829 79.4501 37.6529 79.5901 37.0129C79.7101 36.4829 79.8201 35.8129 79.9901 35.3229C80.0701 35.1129 80.1201 34.8429 80.1701 34.6229C80.3001 34.1029 80.4101 33.5729 80.5101 33.0329C80.6801 32.1729 80.9001 31.2529 81.1801 30.4729C81.4001 29.8229 81.7701 29.2729 81.9901 29.4929C82.1401 29.6429 82.2601 29.9829 82.2201 30.5229C82.2101 30.6629 82.1901 30.8129 82.1801 30.9629C82.1101 31.5829 81.9901 32.1629 81.8901 32.7829H81.9001Z" fill="#ADB4A4"/>
<path d="M59.8198 56.5528C59.5998 56.1928 59.3898 55.8228 59.1798 55.4228C58.1998 53.6828 57.0298 52.0228 55.7498 50.4728C55.1198 49.6228 54.3198 48.9228 53.6498 48.1128C53.3198 47.7528 52.9998 47.4028 52.6698 47.0328C52.0898 46.4028 51.5198 45.9228 50.8598 45.4128C50.1598 44.8428 49.3998 44.2528 48.7098 43.6528C48.2298 43.2728 47.7198 42.9228 47.2198 42.5628C46.4698 42.0028 45.6198 41.5828 44.8498 41.0528C43.9198 40.5228 43.0698 39.9028 42.0698 39.4928C41.6998 39.3328 41.3298 39.1728 40.9698 38.9828C40.4698 38.7328 40.0098 38.4728 39.5098 38.2328C39.1598 38.0828 38.8098 37.9228 38.4398 37.8128C37.7798 37.6028 37.1198 37.3628 36.4798 37.1228C36.0598 36.9828 35.6298 36.8328 35.2598 36.6628C34.8898 36.4828 34.5898 36.2728 34.5198 36.1028C34.3898 35.7428 34.9398 35.5328 35.9298 35.7228C36.1998 35.7728 36.4798 35.8728 36.7598 35.9428C37.1398 36.0528 37.5198 36.1528 37.8998 36.2628C38.5098 36.4628 39.0998 36.6928 39.6598 36.9928C40.2998 37.3128 40.8998 37.4828 41.5298 37.7728C42.2398 38.1228 42.9698 38.4928 43.6598 38.8928C44.1298 39.1728 44.6098 39.4528 45.0898 39.7128C45.5298 39.9428 45.8998 40.1428 46.3198 40.3728C47.2198 40.8628 48.0398 41.4828 48.8398 42.1028C50.0998 43.0728 51.3498 44.1128 52.5198 45.1828C52.8498 45.4928 53.1798 45.7928 53.5098 46.1028C53.8598 46.4028 54.2098 46.7028 54.5598 47.0228C55.0398 47.5028 55.4798 48.1028 55.9298 48.6228C56.4498 49.2228 56.9198 49.8628 57.4198 50.4728C57.8298 50.9728 58.1898 51.5128 58.5898 52.0328C58.9298 52.4628 59.3298 53.0028 59.5498 53.4728C59.6498 53.6728 59.7898 53.9028 59.9098 54.0928C60.1998 54.5428 60.4598 55.0228 60.7198 55.4828C60.9398 55.8628 61.1498 56.2628 61.3398 56.6628C61.5198 57.0728 61.6598 57.4828 61.7898 57.8728C61.9898 58.5228 62.0198 59.1628 61.7098 59.1028C61.4998 59.0628 61.2098 58.8728 60.9198 58.4428C60.8498 58.3228 60.7798 58.2028 60.6998 58.0828C60.4098 57.5628 60.1498 57.0628 59.8298 56.5528H59.8198Z" fill="#ADB4A4"/>
<path d="M38.2194 37.9929C38.5094 38.4029 38.7594 38.8429 38.9794 39.3329C39.9594 41.4729 40.6294 43.7029 41.2794 45.8729C41.6194 47.0129 42.0494 48.0929 42.4694 49.1929C42.6594 49.7029 42.8294 50.2029 43.0494 50.7029C43.4394 51.5729 43.8094 52.3029 44.3294 53.0629C44.8994 53.8829 45.4594 54.7729 46.0694 55.5529C46.4794 56.0829 46.9394 56.5729 47.4194 57.0329C48.1594 57.7329 48.9894 58.3329 49.8294 58.8629C50.7994 59.4729 51.8194 59.9829 52.9494 60.2729C53.3694 60.3829 53.7994 60.4429 54.2294 60.5329C54.8194 60.6429 55.3694 60.7729 55.9694 60.8129C56.3794 60.8129 56.7994 60.8129 57.1994 60.7329C57.9394 60.6529 58.6594 60.4729 59.3594 60.2629C59.5894 60.1829 59.8094 60.1129 60.0294 60.0329C60.2394 59.9429 60.4594 59.8629 60.6694 59.7929C61.0794 59.6429 61.4494 59.5229 61.6394 59.5929C61.8294 59.6529 61.8694 59.8229 61.7294 60.0729C61.5994 60.3229 61.2894 60.6629 60.7794 60.9529C60.5094 61.1329 60.1794 61.2329 59.8694 61.3629C59.4394 61.5429 59.0094 61.6929 58.5594 61.8129C57.8294 61.9829 57.0794 62.0329 56.3494 61.9929C55.5194 61.9729 54.8094 61.9429 54.0194 61.8329C53.1094 61.6729 52.2094 61.3829 51.3694 61.0529C50.7894 60.8129 50.2194 60.5329 49.6594 60.2429C49.1694 59.9629 48.7294 59.7629 48.2594 59.4529C47.2794 58.8129 46.4294 57.9829 45.6694 57.1029C44.4794 55.7429 43.4594 54.2029 42.6294 52.6229C42.3894 52.1729 42.1794 51.7129 41.9394 51.2829C41.6994 50.8229 41.4494 50.3729 41.2394 49.8829C40.9294 49.1929 40.7094 48.3929 40.4794 47.6629L39.7094 45.1529C39.4994 44.4729 39.2794 43.7929 39.0594 43.1329C38.8594 42.5729 38.5794 41.9129 38.4294 41.3829C38.3694 41.1529 38.2594 40.8829 38.1594 40.6629C37.9394 40.1329 37.6894 39.6229 37.3994 39.1429C36.9394 38.3529 36.3994 37.5529 35.8894 36.8729C35.4794 36.3029 35.0994 35.7329 35.4094 35.6329C35.6094 35.5829 36.0094 35.6329 36.4994 36.0329C36.6194 36.1329 36.7594 36.2429 36.8894 36.3529C37.3994 36.8529 37.8294 37.3929 38.2194 37.9829V37.9929Z" fill="#ADB4A4"/>
<path d="M56.2401 8.42288C56.3501 8.67288 56.4401 8.92288 56.5201 9.19288C56.8701 10.4029 57.3501 11.5929 57.7301 12.8029C57.9301 13.4429 58.2101 14.0429 58.3901 14.6929C58.4701 14.9929 58.5401 15.2829 58.6101 15.5929C58.7601 16.1129 58.9001 16.5629 59.1201 17.0429C59.3601 17.5629 59.5001 18.1629 59.6501 18.7129C59.7501 19.0829 59.8701 19.4629 59.9801 19.8229C60.1601 20.3829 60.3701 20.9429 60.5301 21.5129C60.7101 22.1729 60.8301 22.8129 61.0601 23.4629C61.1501 23.7029 61.2401 23.9429 61.3001 24.1929C61.3901 24.5329 61.4001 24.8729 61.4801 25.2229C61.5301 25.4629 61.6201 25.6829 61.7001 25.9129C61.8401 26.3329 61.9601 26.7529 62.0501 27.1829C62.1101 27.4629 62.1701 27.7429 62.1701 28.0029C62.1701 28.2629 62.1201 28.5029 61.9901 28.6129C61.7301 28.8229 61.3101 28.6329 61.0601 28.0729C60.9901 27.9129 60.9601 27.7429 60.9001 27.5729C60.8301 27.3429 60.7201 27.1329 60.6401 26.9029C60.5101 26.5329 60.4601 26.1529 60.3901 25.7729C60.3101 25.3429 60.1501 24.9929 60.0301 24.5929C59.8901 24.1329 59.7901 23.6429 59.6601 23.1729C59.5801 22.8529 59.4901 22.5229 59.3901 22.2029C59.3001 21.9129 59.1801 21.6829 59.0701 21.4129C58.8401 20.8329 58.7001 20.2229 58.5401 19.6229C58.2901 18.6829 58.0001 17.7429 57.7001 16.8129C57.6201 16.5529 57.5401 16.2829 57.4301 16.0329C57.3101 15.7729 57.1901 15.5229 57.0901 15.2529C56.9401 14.8729 56.8601 14.4229 56.7401 14.0229C56.6001 13.5629 56.4501 13.1029 56.2901 12.6429L55.8901 11.5229C55.7801 11.2129 55.5901 10.8429 55.5501 10.5229C55.5301 10.3829 55.4701 10.2329 55.4301 10.1029C55.3301 9.79288 55.2301 9.48288 55.1101 9.17288C54.9201 8.67288 54.7801 8.12288 54.7201 7.61288C54.6701 7.19288 54.7901 6.76288 55.0601 6.77288C55.2501 6.77288 55.4801 6.89288 55.6601 7.18288C55.7101 7.25288 55.7501 7.33288 55.7901 7.41288C55.9601 7.75288 56.0801 8.09288 56.2301 8.43288L56.2401 8.42288Z" fill="#ADB4A4"/>
<path d="M63.75 7.44293C63.75 7.70293 63.75 7.97293 63.71 8.25293C63.57 9.49293 63.56 10.7529 63.47 12.0029C63.42 12.6629 63.45 13.3229 63.39 13.9729C63.36 14.2829 63.3 14.5729 63.27 14.8729C63.22 15.4029 63.19 15.8629 63.22 16.3829C63.26 16.9529 63.17 17.5429 63.12 18.1129C63.08 18.4929 63.06 18.8729 63.04 19.2629C63.01 19.8429 63.02 20.4329 62.96 21.0129C62.9 21.6829 62.8 22.3229 62.79 23.0029C62.79 23.2529 62.79 23.5129 62.77 23.7629C62.73 24.1129 62.63 24.4329 62.6 24.7729C62.57 25.0129 62.58 25.2529 62.57 25.4929C62.57 25.9229 62.53 26.3629 62.49 26.7829C62.46 27.0629 62.42 27.3429 62.33 27.5829C62.25 27.8229 62.12 28.0329 61.96 28.0929C61.64 28.2029 61.31 27.8929 61.26 27.2829C61.25 27.1129 61.26 26.9429 61.27 26.7629C61.27 26.5229 61.25 26.2929 61.25 26.0529C61.25 25.6629 61.33 25.2829 61.39 24.9129C61.46 24.4829 61.43 24.1029 61.45 23.6929C61.48 23.2129 61.54 22.7229 61.59 22.2429C61.62 21.9129 61.65 21.5829 61.67 21.2529C61.68 20.9529 61.65 20.7029 61.64 20.4029C61.63 19.7829 61.71 19.1729 61.77 18.5529C61.87 17.6029 61.93 16.6229 61.99 15.6529C62.01 15.3829 62.03 15.1029 62.02 14.8429C62.01 14.5629 61.98 14.2829 61.98 14.0029C61.98 13.5929 62.07 13.1529 62.11 12.7429C62.15 12.2629 62.18 11.7929 62.21 11.3129C62.23 10.9229 62.24 10.5329 62.26 10.1329C62.27 9.80293 62.24 9.39293 62.32 9.09293C62.35 8.96293 62.36 8.80293 62.37 8.66293C62.4 8.34293 62.42 8.01293 62.43 7.69293C62.45 7.16293 62.53 6.60293 62.67 6.12293C62.79 5.72293 63.06 5.37293 63.31 5.49293C63.48 5.57293 63.65 5.77293 63.7 6.09293C63.71 6.17293 63.72 6.26293 63.73 6.35293C63.76 6.72293 63.73 7.08293 63.74 7.45293L63.75 7.44293Z" fill="#ADB4A4"/>
<path d="M70.5803 16.523C70.5103 16.703 70.4303 16.873 70.3203 17.053C69.8403 17.833 69.4703 18.673 69.0003 19.463C68.7603 19.883 68.5803 20.333 68.3203 20.733C68.2003 20.923 68.0503 21.083 67.9303 21.273C67.7203 21.603 67.5403 21.883 67.4003 22.243C67.2503 22.633 66.9703 22.983 66.7403 23.323C66.5803 23.553 66.4303 23.783 66.2803 24.023C66.0603 24.383 65.8503 24.763 65.6003 25.113C65.3103 25.513 65.0003 25.863 64.7403 26.293C64.6503 26.453 64.5603 26.623 64.4503 26.763C64.2903 26.963 64.0903 27.113 63.9303 27.313C63.8203 27.443 63.7303 27.603 63.6403 27.743C63.4703 28.013 63.2803 28.263 63.0803 28.503C62.9503 28.653 62.8003 28.803 62.6403 28.913C62.4803 29.013 62.2903 29.073 62.1403 29.023C61.8403 28.913 61.6803 28.533 61.8703 28.133C61.9203 28.023 62.0103 27.933 62.0803 27.823C62.1803 27.683 62.2403 27.513 62.3303 27.373C62.4703 27.133 62.6803 26.943 62.8703 26.743C63.0803 26.513 63.2003 26.263 63.3703 26.013C63.5603 25.723 63.8003 25.453 64.0103 25.183C64.1503 24.993 64.3003 24.803 64.4303 24.593C64.5503 24.413 64.6003 24.233 64.7003 24.043C64.9003 23.643 65.1803 23.293 65.4403 22.933C65.8503 22.373 66.2203 21.773 66.5803 21.183C66.6803 21.013 66.7903 20.853 66.8603 20.663C66.9403 20.473 67.0003 20.283 67.0903 20.093C67.2203 19.823 67.4303 19.583 67.5903 19.323C67.7703 19.033 67.9403 18.733 68.1003 18.423L68.4803 17.663C68.5903 17.453 68.6803 17.173 68.8303 17.003C68.9003 16.933 68.9503 16.823 69.0003 16.733C69.1203 16.533 69.2303 16.323 69.3203 16.113C69.4803 15.773 69.7003 15.423 69.9603 15.163C70.1803 14.943 70.5203 14.823 70.7103 14.993C70.8503 15.123 70.9503 15.313 70.9103 15.563C70.9003 15.623 70.8803 15.693 70.8603 15.753C70.7903 16.023 70.6703 16.253 70.5703 16.503L70.5803 16.523Z" fill="#ADB4A4"/>
<path d="M63.2797 30.983C63.5197 30.773 63.7697 30.563 64.0597 30.363C65.2897 29.453 66.4497 28.423 67.6197 27.423C68.2397 26.903 68.7897 26.313 69.4097 25.793C69.6997 25.553 69.9797 25.323 70.2797 25.093C70.7797 24.663 71.1897 24.283 71.6097 23.793C72.0697 23.273 72.6197 22.793 73.1397 22.323C73.4797 22.003 73.8197 21.673 74.1497 21.343C74.6597 20.843 75.1197 20.283 75.6397 19.793C76.2197 19.213 76.8197 18.683 77.3497 18.053C77.5497 17.813 77.7397 17.573 77.9597 17.353C78.2597 17.053 78.5797 16.803 78.8797 16.493C79.0797 16.283 79.2697 16.053 79.4497 15.823C79.7797 15.413 80.1397 15.013 80.4997 14.623C80.7297 14.373 80.9697 14.123 81.2197 13.933C81.4697 13.743 81.7297 13.613 81.8997 13.653C82.2397 13.723 82.2797 14.233 81.8597 14.863C81.7397 15.033 81.5897 15.193 81.4597 15.363C81.2797 15.603 81.1097 15.833 80.9297 16.073C80.6297 16.443 80.2797 16.773 79.9397 17.103C79.5497 17.473 79.2797 17.853 78.9297 18.243C78.5297 18.683 78.0897 19.113 77.6597 19.533C77.3697 19.823 77.0697 20.113 76.7997 20.423C76.5497 20.693 76.3597 20.953 76.1297 21.233C75.6397 21.813 75.0597 22.333 74.4997 22.843C73.6297 23.653 72.7397 24.483 71.8697 25.303C71.6197 25.533 71.3697 25.763 71.1397 26.003C70.8997 26.263 70.6797 26.523 70.4297 26.773C70.0697 27.133 69.6097 27.443 69.2197 27.783L67.8697 28.943L66.7697 29.903C66.4597 30.173 66.1097 30.533 65.7697 30.723C65.6297 30.803 65.4697 30.943 65.3297 31.043L64.3797 31.793C63.8797 32.213 63.2897 32.603 62.7397 32.883C62.2797 33.113 61.7697 33.183 61.7197 32.903C61.6797 32.703 61.7597 32.433 62.0297 32.133C62.0997 32.053 62.1797 31.983 62.2597 31.903C62.5897 31.583 62.9397 31.323 63.2797 31.023V30.983Z" fill="#ADB4A4"/>
<path d="M59.8697 31.153C59.6997 31.013 59.5397 30.873 59.3797 30.703C58.6997 29.933 57.9197 29.243 57.2397 28.463C56.8797 28.063 56.4797 27.693 56.1397 27.263C55.9897 27.063 55.8697 26.843 55.7197 26.643C55.4497 26.293 55.2297 25.993 54.9097 25.693C54.5597 25.373 54.3197 24.943 54.0497 24.553L53.5097 23.773C53.2297 23.383 52.9297 23.003 52.6797 22.593C52.3997 22.113 52.1597 21.633 51.8497 21.173C51.7297 21.003 51.5997 20.833 51.5097 20.653C51.3797 20.403 51.3197 20.123 51.1897 19.863C51.1097 19.683 50.9897 19.523 50.8897 19.353C50.7097 19.053 50.5397 18.733 50.3897 18.413C50.2997 18.203 50.2197 17.983 50.1897 17.773C50.1597 17.563 50.1897 17.353 50.2997 17.233C50.5297 17.003 50.9497 17.063 51.2497 17.453C51.3297 17.563 51.3797 17.693 51.4497 17.813C51.5397 17.983 51.6697 18.123 51.7797 18.283C51.9497 18.543 52.0397 18.843 52.1597 19.123C52.2997 19.443 52.4797 19.683 52.6597 19.973C52.8597 20.303 53.0297 20.663 53.2197 21.003C53.3497 21.233 53.4897 21.463 53.6297 21.693C53.7597 21.893 53.9197 22.033 54.0697 22.213C54.3797 22.593 54.6297 23.033 54.8897 23.443C55.2997 24.093 55.7697 24.723 56.2497 25.333C56.3797 25.503 56.5197 25.683 56.6797 25.833C56.8497 25.983 57.0197 26.133 57.1697 26.303C57.3997 26.533 57.5797 26.853 57.7897 27.113C58.0297 27.413 58.2897 27.693 58.5497 27.973C58.7597 28.203 58.9897 28.423 59.2097 28.643C59.3997 28.833 59.6597 29.023 59.7897 29.243C59.8497 29.333 59.9397 29.423 60.0197 29.513C60.1997 29.703 60.3797 29.883 60.5797 30.063C60.8897 30.343 61.1897 30.693 61.4097 31.033C61.5897 31.323 61.6397 31.713 61.4097 31.843C61.2497 31.933 61.0197 31.963 60.7697 31.843C60.7097 31.813 60.6397 31.773 60.5797 31.733C60.3197 31.563 60.1097 31.373 59.8697 31.173V31.153Z" fill="#ADB4A4"/>
<path d="M59.1202 34.1629C58.9202 34.0729 58.7202 33.9729 58.5202 33.8429C57.6502 33.2629 56.7002 32.7929 55.8202 32.2129C55.3502 31.9129 54.8602 31.6729 54.4102 31.3529C54.2002 31.2029 54.0202 31.0229 53.8102 30.8729C53.4502 30.6129 53.1402 30.3829 52.7402 30.1929C52.3102 29.9829 51.9302 29.6429 51.5602 29.3529C51.3102 29.1529 51.0502 28.9529 50.8002 28.7729C50.4002 28.4829 49.9902 28.2129 49.6202 27.9029C49.1902 27.5329 48.8102 27.1529 48.3502 26.8129C48.1802 26.6929 48.0002 26.5729 47.8402 26.4329C47.6302 26.2329 47.4702 25.9929 47.2602 25.7929C47.1202 25.6529 46.9502 25.5329 46.8002 25.4129C46.5202 25.1829 46.2502 24.9429 45.9902 24.6829C45.8302 24.5129 45.6702 24.3329 45.5602 24.1429C45.4502 23.9529 45.4002 23.7429 45.4602 23.6029C45.5902 23.3029 46.0102 23.2129 46.4402 23.4829C46.5602 23.5529 46.6602 23.6629 46.7602 23.7529C46.9102 23.8829 47.0902 23.9729 47.2402 24.0929C47.4902 24.2829 47.6902 24.5429 47.9002 24.7729C48.1402 25.0329 48.4102 25.2029 48.6702 25.4229C48.9802 25.6729 49.2602 25.9629 49.5602 26.2229C49.7702 26.4029 49.9702 26.5829 50.1902 26.7529C50.3802 26.9029 50.5802 26.9929 50.7802 27.1229C51.2102 27.3929 51.5902 27.7329 51.9802 28.0629C52.5902 28.5629 53.2402 29.0429 53.9002 29.4929C54.0802 29.6229 54.2702 29.7529 54.4702 29.8529C54.6802 29.9529 54.8902 30.0529 55.0902 30.1629C55.3802 30.3229 55.6602 30.5829 55.9402 30.7729C56.2602 31.0029 56.6002 31.2029 56.9302 31.4129C57.2102 31.5829 57.4902 31.7329 57.7702 31.8929C58.0102 32.0229 58.3202 32.1529 58.5102 32.3329C58.5902 32.4129 58.7102 32.4729 58.8102 32.5329C59.0402 32.6729 59.2702 32.8029 59.5102 32.9329C59.9002 33.1329 60.2802 33.3929 60.5802 33.6829C60.8302 33.9229 60.9802 34.2929 60.7802 34.4729C60.6402 34.6029 60.4302 34.6829 60.1602 34.6229C60.0902 34.6029 60.0202 34.5829 59.9502 34.5629C59.6502 34.4629 59.3902 34.3229 59.1102 34.1929L59.1202 34.1629Z" fill="#ADB4A4"/>
<path d="M82.8094 8.7229C78.6794 8.7229 78.6794 15.1329 82.8094 15.1329C86.9394 15.1329 86.9394 8.7229 82.8094 8.7229Z" fill="#ADB4A4"/>
<path d="M71.9002 9.91284C67.7702 9.91284 67.7702 16.3228 71.9002 16.3228C76.0302 16.3228 76.0302 9.91284 71.9002 9.91284Z" fill="#ADB4A4"/>
<path d="M63.7196 0.032959C59.5896 0.032959 59.5896 6.44296 63.7196 6.44296C67.8496 6.44296 67.8496 0.032959 63.7196 0.032959Z" fill="#ADB4A4"/>
<path d="M54.5194 1.73291C50.3894 1.73291 50.3894 8.14291 54.5194 8.14291C58.6494 8.14291 58.6494 1.73291 54.5194 1.73291Z" fill="#ADB4A4"/>
<path d="M50.2596 11.4529C46.1296 11.4529 46.1296 17.8629 50.2596 17.8629C54.3896 17.8629 54.3896 11.4529 50.2596 11.4529Z" fill="#ADB4A4"/>
<path d="M43.9502 18.783C42.2102 18.863 40.7402 20.193 40.7402 21.993V22.163C40.7402 23.843 42.2102 25.443 43.9502 25.373C45.6902 25.293 47.1602 23.963 47.1602 22.163V21.993C47.1602 20.313 45.6902 18.713 43.9502 18.783Z" fill="#ADB4A4"/>
<path d="M29.1002 56.673V57.583C27.8902 57.493 26.2802 57.443 24.2602 57.443C21.6602 57.443 19.7302 57.483 18.4702 57.583V56.673C19.6202 56.613 20.4402 56.473 20.9402 56.243C21.4402 56.013 21.6902 55.603 21.6902 54.993C21.6902 54.483 21.5102 53.773 21.1502 52.863L18.3902 45.443H7.42023L5.56023 50.243C4.96023 51.873 4.65023 53.113 4.65023 53.953C4.65023 54.893 4.97023 55.563 5.62023 55.993C6.27023 56.413 7.26023 56.643 8.58023 56.673V57.583C6.86023 57.493 5.12023 57.443 3.38023 57.443C2.02023 57.443 0.890234 57.483 -0.00976562 57.583V56.673C1.50023 56.313 2.69023 55.003 3.57023 52.733L14.2102 25.303H14.9302L25.9702 53.773C26.6902 55.643 27.7302 56.613 29.0902 56.673H29.1002ZM18.0102 44.543L12.9402 31.013L7.78023 44.543H18.0102Z" fill="#ADB4A4"/>
<path d="M114.841 44.523C116.261 45.983 116.971 47.743 116.971 49.793C116.971 51.513 116.531 53.033 115.661 54.363C114.781 55.693 113.531 56.723 111.901 57.463C110.271 58.203 108.341 58.573 106.111 58.573C105.301 58.573 104.601 58.563 104.031 58.533C102.101 58.473 100.201 58.443 98.3307 58.443C95.8607 58.443 93.9907 58.483 92.7207 58.583V57.673C93.8107 57.613 94.6007 57.493 95.1007 57.313C95.6007 57.133 95.9407 56.783 96.1207 56.273C96.3007 55.763 96.3907 54.933 96.3907 53.783V31.333C96.3907 30.183 96.3007 29.353 96.1207 28.843C95.9407 28.333 95.6007 27.983 95.1007 27.803C94.6007 27.623 93.8107 27.503 92.7207 27.443V26.543C93.9907 26.633 95.8307 26.683 98.2407 26.683L103.131 26.633C103.701 26.603 104.351 26.583 105.081 26.583C108.161 26.583 110.521 27.233 112.161 28.533C113.801 29.833 114.631 31.553 114.631 33.693C114.631 35.443 114.081 37.013 112.981 38.403C111.881 39.793 110.141 40.843 107.751 41.573V41.663C111.071 42.113 113.441 43.073 114.861 44.533L114.841 44.523ZM101.831 27.753C101.361 27.963 101.041 28.343 100.861 28.883C100.681 29.423 100.591 30.243 100.591 31.323V41.553H103.621C106.091 41.553 107.821 40.883 108.801 39.543C109.781 38.203 110.271 36.413 110.271 34.183C110.271 31.953 109.771 30.233 108.781 29.113C107.791 27.993 106.171 27.443 103.941 27.443C103.001 27.443 102.301 27.553 101.841 27.763L101.831 27.753ZM112.441 49.613C112.441 47.233 111.801 45.423 110.521 44.183C109.241 42.943 107.191 42.323 104.391 42.323H100.591V53.773C100.591 54.863 100.681 55.663 100.861 56.173C101.041 56.683 101.361 57.043 101.831 57.233C102.301 57.433 103.011 57.523 103.981 57.523C109.621 57.523 112.441 54.883 112.441 49.603V49.613Z" fill="#ADB4A4"/>
<path d="M26.3581 75.3311L24.527 77.3293L26.6926 79.3109L26.4334 79.5952L24.2679 77.6136L22.2696 79.7959L21.9268 79.4781L26.2745 74.7207L29.1256 77.3293L28.8664 77.6136L26.3665 75.3227L26.3581 75.3311Z" fill="#ADB4A4"/>
<path d="M30.0706 85.5732L29.8365 85.8909L26.9854 83.8257L30.7645 78.6084L31.1408 78.8843L27.5957 83.7839L30.0706 85.5732Z" fill="#ADB4A4"/>
<path d="M38.3229 87.0448C38.0805 87.4796 37.8045 87.8391 37.4785 88.1234C37.1524 88.4077 36.8012 88.6084 36.4333 88.7338C36.0571 88.8592 35.6641 88.8926 35.2628 88.8508C34.8531 88.809 34.4518 88.6753 34.0504 88.4579C33.6491 88.2405 33.323 87.9729 33.0638 87.6552C32.8046 87.3375 32.629 86.9863 32.5287 86.6101C32.4284 86.2338 32.4117 85.8241 32.4702 85.3977C32.5287 84.9713 32.6876 84.5365 32.9217 84.1018C33.1558 83.667 33.4401 83.3075 33.7662 83.0232C34.0922 82.7389 34.4434 82.5382 34.8113 82.4128C35.1875 82.2874 35.5805 82.2456 35.9818 82.2874C36.3915 82.3292 36.7929 82.463 37.1942 82.6804C37.5955 82.8978 37.9216 83.1653 38.1808 83.483C38.44 83.8008 38.6156 84.1519 38.7159 84.5365C38.8162 84.9211 38.833 85.3225 38.7661 85.7489C38.6992 86.1753 38.5487 86.6101 38.3146 87.0448H38.3229ZM37.8965 86.8107C38.1139 86.4178 38.2477 86.0332 38.3146 85.6569C38.3731 85.2807 38.3647 84.9295 38.2895 84.6034C38.2059 84.2773 38.0637 83.9763 37.8463 83.7088C37.629 83.4412 37.353 83.2155 37.0102 83.0315C36.6758 82.8476 36.333 82.7389 35.9902 82.7055C35.6474 82.672 35.3129 82.7055 34.9952 82.8142C34.6775 82.9228 34.3765 83.1068 34.0922 83.3576C33.808 83.6085 33.5655 83.9345 33.3481 84.3275C33.1307 84.7205 32.9969 85.1134 32.93 85.4813C32.8715 85.8576 32.8799 86.2087 32.9635 86.5348C33.0471 86.8609 33.1976 87.1619 33.415 87.4295C33.6324 87.697 33.9083 87.9228 34.2427 88.1067C34.5855 88.2906 34.92 88.3993 35.2628 88.4411C35.6056 88.4829 35.94 88.4411 36.2577 88.3325C36.5755 88.2238 36.8765 88.0398 37.1524 87.789C37.4283 87.5381 37.6791 87.2121 37.8965 86.8107Z" fill="#ADB4A4"/>
<path d="M43.8157 92.6302L43.4395 92.4881C43.3893 92.4714 43.3559 92.4463 43.3224 92.4212C43.289 92.3961 43.2723 92.3543 43.2639 92.2958L42.2355 89.1269C42.2355 89.1269 42.2104 89.0517 42.1937 89.0183C42.177 88.9848 42.1602 88.9597 42.1351 88.9346C42.1101 88.9096 42.0766 88.8928 42.0348 88.8678C41.993 88.8427 41.9428 88.826 41.8843 88.8009L41.0984 88.5082L40.0867 91.2423L39.6436 91.0751L41.8843 85.03L43.4311 85.6069C44.1251 85.8661 44.5933 86.1922 44.8441 86.5852C45.0866 86.9865 45.12 87.438 44.9277 87.9648C44.8441 88.1989 44.7271 88.3912 44.5766 88.55C44.4261 88.7089 44.2505 88.8343 44.0498 88.9263C43.8492 89.0183 43.6234 89.0684 43.3726 89.0768C43.1218 89.0851 42.8626 89.0601 42.5866 88.9932C42.6368 89.0601 42.6786 89.1437 42.7037 89.2356L43.8157 92.6219V92.6302ZM42.2689 88.5835C42.5365 88.6838 42.7873 88.7423 43.0214 88.7507C43.2555 88.7674 43.4729 88.7423 43.6652 88.6755C43.8575 88.6086 44.0247 88.5082 44.1585 88.3661C44.2923 88.224 44.4094 88.0484 44.4846 87.8393C44.6435 87.4129 44.6184 87.0367 44.4177 86.7273C44.2171 86.418 43.8408 86.1588 43.3057 85.9581L42.202 85.5484L41.2238 88.1905L42.2689 88.5751V88.5835Z" fill="#ADB4A4"/>
<path d="M51.1907 94.436L50.8395 94.3608C50.8395 94.3608 50.7642 94.3357 50.7475 94.3022C50.7224 94.2772 50.7141 94.2437 50.7057 94.2019L50.3796 92.212L47.2944 91.518L46.1489 93.1735C46.1489 93.1735 46.0988 93.2237 46.0653 93.2404C46.0319 93.2571 45.9901 93.2571 45.9483 93.2487L45.6055 93.1735L49.5937 87.4629L50.0452 87.5632L51.199 94.4277L51.1907 94.436ZM50.3127 91.8357L49.7526 88.3742C49.7358 88.2572 49.7191 88.1234 49.7107 87.9729C49.6773 88.0398 49.6439 88.1067 49.6104 88.1652C49.577 88.2237 49.5435 88.2739 49.5017 88.3241L47.5034 91.2086L50.3127 91.8441V91.8357Z" fill="#ADB4A4"/>
<path d="M57.3605 94.7121L57.3187 95.1051L53.8154 94.7623L54.4509 88.3494L54.9191 88.3995L54.3255 94.4195L57.3605 94.7205V94.7121Z" fill="#ADB4A4"/>
<path d="M66.1568 89.2438C66.1317 89.2939 66.0983 89.3274 66.0481 89.3274C66.0063 89.3274 65.9562 89.3023 65.8893 89.2521C65.8224 89.202 65.7304 89.1434 65.6217 89.0849C65.513 89.0264 65.3709 88.9762 65.212 88.9261C65.0532 88.8759 64.8525 88.8675 64.6184 88.8842C64.3843 88.901 64.1836 88.9511 64.008 89.0347C63.8324 89.11 63.6903 89.2187 63.5816 89.3441C63.4729 89.4695 63.3893 89.6117 63.3391 89.7622C63.289 89.9127 63.2723 90.0799 63.2806 90.2471C63.2973 90.4645 63.3559 90.6401 63.4562 90.7738C63.5565 90.9076 63.6903 91.0163 63.8492 91.1083C64.008 91.2003 64.1836 91.2672 64.3843 91.3173C64.5849 91.3675 64.7856 91.426 64.9946 91.4762C65.2037 91.5263 65.4043 91.5849 65.605 91.6518C65.8056 91.7186 65.9812 91.8023 66.1401 91.911C66.299 92.0196 66.4327 92.1618 66.5414 92.329C66.6501 92.4962 66.7086 92.7136 66.7337 92.9812C66.7504 93.2487 66.7337 93.5079 66.6501 93.7504C66.5749 93.9929 66.4578 94.2102 66.299 94.4025C66.1401 94.5949 65.9311 94.7453 65.6886 94.8624C65.4461 94.9795 65.1535 95.0547 64.8274 95.0798C64.401 95.1132 64.0331 95.0631 63.7154 94.9377C63.3977 94.8122 63.1134 94.6283 62.8626 94.3858L62.9713 94.1768C63.0047 94.1266 63.0465 94.1016 63.0967 94.1016C63.1218 94.1016 63.1636 94.1183 63.2054 94.1517C63.2472 94.1852 63.3057 94.227 63.3726 94.2771C63.4395 94.3273 63.5147 94.3775 63.6067 94.436C63.6987 94.4945 63.799 94.5447 63.9161 94.5865C64.0331 94.6283 64.1669 94.6701 64.309 94.6952C64.4595 94.7203 64.6267 94.7286 64.8107 94.7119C65.0615 94.6952 65.2873 94.6367 65.4796 94.5447C65.6719 94.4527 65.8307 94.3357 65.9645 94.1935C66.0899 94.0514 66.1819 93.8842 66.2404 93.6919C66.299 93.4995 66.324 93.3072 66.3073 93.0982C66.2906 92.8725 66.2321 92.6885 66.1234 92.5464C66.023 92.4043 65.8893 92.2956 65.7304 92.2036C65.5715 92.12 65.396 92.0447 65.1953 91.9946C64.9946 91.9444 64.794 91.8942 64.5849 91.8441C64.3759 91.7939 64.1752 91.7437 63.9746 91.6768C63.7739 91.61 63.5983 91.5263 63.4395 91.4093C63.2806 91.3006 63.1468 91.1585 63.0381 90.9745C62.9294 90.7989 62.8709 90.5732 62.8458 90.2973C62.8291 90.0799 62.8542 89.8709 62.9211 89.6702C62.988 89.4612 63.0967 89.2772 63.2388 89.11C63.3809 88.9428 63.5733 88.809 63.799 88.7003C64.0247 88.5916 64.2839 88.5247 64.5849 88.4996C64.9194 88.4746 65.2204 88.4996 65.4963 88.5916C65.7722 88.6752 66.023 88.8174 66.2571 89.0264L66.1652 89.2438H66.1568Z" fill="#ADB4A4"/>
<path d="M72.7953 87.7054L70.5712 88.1402L71.7334 94.0765L71.2736 94.1685L70.1114 88.2322L67.879 88.6753L67.8037 88.2823L72.72 87.3208L72.7953 87.7054Z" fill="#ADB4A4"/>
<path d="M78.6984 91.8443C78.991 91.744 79.2335 91.6018 79.4342 91.4179C79.6265 91.234 79.777 91.0249 79.8773 90.7908C79.9776 90.5567 80.0278 90.2975 80.0278 90.0216C80.0278 89.7457 79.9776 89.4698 79.8857 89.1855L78.5897 85.4147L79.0328 85.2642L80.3288 89.035C80.4459 89.3694 80.496 89.7039 80.496 90.03C80.496 90.356 80.4208 90.6654 80.2954 90.9497C80.1699 91.234 79.986 91.4848 79.7435 91.7105C79.5011 91.9363 79.2001 92.1035 78.8405 92.2289C78.481 92.3543 78.1382 92.3961 77.8121 92.3711C77.486 92.346 77.1851 92.2624 76.9091 92.1119C76.6332 91.9614 76.3991 91.7607 76.1901 91.5099C75.9811 91.259 75.8222 90.958 75.7051 90.6236L74.4092 86.8528L74.8523 86.7023L76.1483 90.4647C76.2486 90.749 76.3824 90.9998 76.5496 91.2172C76.7168 91.4346 76.9175 91.6018 77.1349 91.7273C77.3523 91.8527 77.6031 91.9279 77.8707 91.953C78.1382 91.9781 78.4141 91.9363 78.7068 91.836L78.6984 91.8443Z" fill="#ADB4A4"/>
<path d="M87.6367 84.6118C87.8708 85.055 88.0129 85.4814 88.0631 85.9078C88.1133 86.3342 88.0882 86.7272 87.9795 87.0951C87.8708 87.4713 87.6869 87.8058 87.4193 88.1151C87.1518 88.4245 86.8173 88.6837 86.416 88.8927L84.3341 89.988L81.3408 84.2858L83.4227 83.1905C83.8241 82.9814 84.2254 82.8477 84.6351 82.8058C85.0364 82.764 85.4294 82.8058 85.7973 82.9229C86.1652 83.0483 86.508 83.249 86.8257 83.5333C87.1434 83.8175 87.4193 84.1771 87.6451 84.6118H87.6367ZM87.2103 84.8376C87.0013 84.4363 86.7588 84.1102 86.4829 83.8593C86.207 83.6085 85.9143 83.4246 85.5966 83.3159C85.2789 83.2072 84.9528 83.1737 84.61 83.2072C84.2672 83.2406 83.9244 83.3493 83.5816 83.5249L81.9094 84.4028L84.5515 89.4362L86.2237 88.5583C86.5665 88.3827 86.8508 88.1569 87.0681 87.8977C87.2939 87.6385 87.4444 87.3459 87.5364 87.0282C87.6283 86.7105 87.6451 86.3593 87.5865 85.9914C87.528 85.6235 87.4026 85.2389 87.1936 84.8376H87.2103Z" fill="#ADB4A4"/>
<path d="M92.0181 85.54L91.6251 85.7992L88.0215 80.4565L88.4061 80.1973L92.0097 85.54H92.0181Z" fill="#ADB4A4"/>
<path d="M97.0928 77.3961C97.4189 77.7724 97.653 78.1653 97.8035 78.575C97.954 78.9764 98.0209 79.3777 97.9958 79.7707C97.9791 80.1636 97.8704 80.5399 97.6865 80.9078C97.5025 81.2756 97.235 81.6017 96.8838 81.8944C96.541 82.187 96.1731 82.4044 95.7802 82.5298C95.3955 82.6552 95.0026 82.697 94.6096 82.6552C94.2166 82.6134 93.832 82.488 93.4558 82.2706C93.0795 82.0616 92.7284 81.7606 92.4023 81.3843C92.0846 81.0081 91.8421 80.6151 91.6916 80.2138C91.5411 79.8125 91.4742 79.4111 91.4993 79.0182C91.5244 78.6252 91.6163 78.2489 91.8003 77.8811C91.9842 77.5132 92.2518 77.1871 92.5946 76.8945C92.9374 76.6018 93.3053 76.3844 93.6982 76.259C94.0912 76.1336 94.4758 76.0918 94.8688 76.1336C95.2618 76.1754 95.6464 76.3092 96.0226 76.5182C96.3989 76.7272 96.75 77.0199 97.0678 77.3961H97.0928ZM96.725 77.7138C96.4323 77.371 96.123 77.1035 95.7969 76.9112C95.4708 76.7189 95.1363 76.6018 94.8019 76.56C94.4675 76.5182 94.133 76.5517 93.8069 76.6603C93.4809 76.769 93.1715 76.9446 92.8789 77.1955C92.5862 77.4463 92.3605 77.7222 92.21 78.0316C92.0511 78.3409 91.9675 78.6586 91.9592 79.0014C91.9508 79.3442 92.0093 79.6871 92.1431 80.0382C92.2769 80.3894 92.4943 80.7405 92.7869 81.0833C93.0795 81.4262 93.3889 81.6937 93.715 81.886C94.0411 82.0783 94.3755 82.187 94.7099 82.2288C95.0444 82.2706 95.3788 82.2288 95.7049 82.1285C96.031 82.0198 96.3403 81.8442 96.633 81.5934C96.9256 81.3425 97.1514 81.0666 97.3102 80.7573C97.4691 80.4479 97.5527 80.1302 97.5611 79.7957C97.5694 79.4613 97.5109 79.1101 97.3688 78.759C97.235 78.4078 97.0176 78.0566 96.725 77.7138Z" fill="#ADB4A4"/>
</g>
<defs>
<clipPath id="clip0_460_8944">
<rect width="116.97" height="100.08" fill="white" transform="translate(0 0.032959)"/>
</clipPath>
</defs>
</svg>
