<svg width="120" height="95" viewBox="0 0 120 95" fill="none" xmlns="http://www.w3.org/2000/svg">
<path d="M80.6213 31.6631C78.7813 32.3731 76.9213 33.0331 74.8913 33.6431C65.9913 36.3031 56.7213 38.0631 47.4713 39.1031C42.6013 39.6431 37.7413 40.0531 32.8313 40.1731C30.5413 40.2331 28.3613 40.1931 26.0713 40.1631C22.1013 40.0831 18.6713 39.9031 14.8013 39.6131C12.7013 39.4531 10.5513 39.1831 8.39131 38.8431C6.22131 38.4631 3.94131 37.9131 2.08131 36.4231C0.84131 35.4231 -0.0386898 33.8131 0.00131016 32.1531C0.0213102 30.4931 0.79131 28.9831 1.84131 27.8431C2.64131 26.9731 3.64131 26.2631 4.76131 25.8231C5.86131 25.4031 6.98131 25.1731 8.09131 25.0231C10.3113 24.7331 12.5213 24.7031 14.7013 24.8331C19.6813 25.1231 24.4513 25.6131 29.4513 26.1931C31.3113 26.4031 33.1713 26.6431 35.0313 26.9331C37.5813 27.3531 39.9813 27.8431 42.5013 28.3631C44.2413 28.7131 45.9813 29.0731 47.7213 29.4231C50.8613 30.1031 53.9913 30.8831 57.0813 31.7331C59.0713 32.2931 61.0813 32.8931 62.8313 33.5031C64.5813 34.1031 66.0713 34.7231 66.4713 35.0131C67.3113 35.6431 65.1013 35.3031 60.8013 34.1431C59.6113 33.8131 58.3613 33.4631 57.1313 33.1231C55.4113 32.6731 53.7513 32.2731 52.0213 31.8831C49.2613 31.2131 46.5013 30.5631 43.7613 29.9531C40.6413 29.2931 37.9113 28.8531 34.8713 28.3831C31.3613 27.8431 27.7413 27.3531 24.2113 26.9731C21.7713 26.7231 19.3213 26.5031 16.8613 26.3631C14.6513 26.2331 12.8013 26.1531 10.6913 26.2831C9.58131 26.3531 8.47131 26.4531 7.39131 26.6531C6.31131 26.8531 5.27131 27.1331 4.40131 27.6431C2.66131 28.6731 1.28131 30.6431 1.45131 32.5731C1.52131 33.3131 1.82131 34.0431 2.30131 34.6431C2.79131 35.2431 3.45131 35.7231 4.18131 36.1131C5.67131 36.8731 7.39131 37.2531 9.14131 37.5131C12.6713 38.0631 16.2413 38.4131 19.7913 38.6231C21.8013 38.7331 23.8313 38.8131 25.8013 38.8131C27.8713 38.8031 29.9013 38.7531 32.0013 38.6831C35.0113 38.5831 38.3013 38.4831 41.3613 38.2631C44.8813 38.0131 48.3913 37.6231 51.8913 37.1431C54.7613 36.7431 57.6213 36.2731 60.4613 35.7131C62.8513 35.2631 65.7613 34.5531 67.9813 34.0731C68.9313 33.8531 70.1113 33.5731 71.1013 33.2831C73.4113 32.6731 75.6913 31.9431 77.9513 31.1631C81.6013 29.8531 85.4513 28.2831 88.5813 26.5431C91.1913 25.1431 93.3713 23.5631 92.9713 24.2731C92.6713 24.7531 91.7513 25.8131 89.7213 27.1631C89.1913 27.5131 88.6413 27.8731 88.0613 28.1931C85.6413 29.5831 83.2113 30.6631 80.6313 31.6831L80.6213 31.6631Z" fill="#ADB4A4"/>
<path d="M64.5917 28.2431C63.4117 27.4831 62.2418 26.7131 60.9918 25.8631C55.5118 22.1431 49.8818 18.4931 44.3418 14.8031C41.4318 12.8631 38.4918 10.9931 35.5518 9.11307C34.1718 8.23307 32.8818 7.38307 31.4818 6.55307C29.0518 5.12307 26.9118 3.95307 24.4118 2.85307C23.0618 2.31307 21.6018 1.46307 20.4418 1.47307C19.9018 1.46307 19.3418 1.76307 19.1118 2.13307C18.8818 2.47307 18.9718 2.89307 19.3518 3.46307C20.4918 5.02307 21.8018 6.64307 23.1118 8.15307C25.1218 10.4731 27.3118 12.6631 29.5618 14.7231C32.1818 17.0731 34.8418 19.1931 37.9118 20.9731C39.0518 21.6531 40.2318 22.2331 41.4118 22.8231C43.0417 23.6231 44.6018 24.3531 46.3118 24.9531C47.4918 25.3531 48.7017 25.6931 49.9217 25.9631C52.1217 26.4531 54.3817 26.7831 56.6217 26.9031C58.0718 26.9931 59.5417 26.9731 60.8517 26.9331C62.1618 26.9031 63.2918 26.8231 63.6618 26.9331C64.0418 27.0431 63.8618 27.2531 63.1818 27.5131C62.5018 27.7731 61.3018 28.0731 59.6717 28.1931C58.7717 28.2831 57.8118 28.2531 56.8818 28.2331C55.5818 28.1931 54.3218 28.1431 53.0317 27.9631C50.9618 27.6931 48.9417 27.1731 46.9818 26.5331C44.7718 25.8031 42.8618 25.1031 40.8318 24.1431C38.4918 23.0131 36.2118 21.6131 34.1017 20.1231C32.6517 19.0831 31.2418 17.9831 29.8718 16.8331C28.6518 15.7931 27.6018 14.9231 26.4718 13.8431C24.0718 11.5731 21.8818 9.04307 19.8518 6.46307L18.6718 4.93307C18.3018 4.42307 17.8018 3.86307 17.6118 2.99307C17.5218 2.56307 17.5718 2.06307 17.7618 1.64307C17.9518 1.22307 18.2518 0.893068 18.5818 0.653068C19.2318 0.153068 20.1218 -0.0369324 20.8718 0.0530676C21.6318 0.123068 22.3018 0.383068 22.9218 0.643068L24.7018 1.45307C25.8718 2.01307 27.0418 2.58307 28.1818 3.18307C29.4718 3.86307 30.7518 4.58307 32.0018 5.28307C33.3118 6.00307 34.6017 6.73307 35.8918 7.52307C37.7618 8.65307 39.7118 10.0131 41.5418 11.2431C43.6518 12.6531 45.7718 14.0631 47.8918 15.4731L53.1217 18.9131C54.5918 19.8731 56.4118 21.0231 57.7418 21.9831C58.3118 22.3931 59.0418 22.8731 59.6618 23.2831L63.9718 26.1431C66.3218 27.6831 68.7918 29.3831 70.8918 30.9231C72.6318 32.2031 74.0918 33.5031 73.4818 33.4231C73.0518 33.3731 72.1418 32.9931 70.6618 32.1131C70.2818 31.8831 69.8818 31.6331 69.4818 31.3931C67.8018 30.3431 66.2418 29.3131 64.5818 28.2431H64.5917Z" fill="#ADB4A4"/>
<path d="M19.1916 62.3661C20.3036 63.5137 20.864 64.9014 20.864 66.5116C20.864 67.8638 20.5171 69.0648 19.8321 70.1056C19.1471 71.1464 18.1597 71.9649 16.8786 72.5431C15.5976 73.1213 14.0764 73.4149 12.3239 73.4149C11.6834 73.4149 11.1407 73.406 10.687 73.3793C9.1658 73.3349 7.67127 73.3082 6.20343 73.3082C4.25521 73.3082 2.78737 73.3437 1.79102 73.4149V72.7032C2.64503 72.6588 3.26775 72.5609 3.65918 72.4186C4.0506 72.2762 4.31748 72.0005 4.45982 71.6001C4.60215 71.1998 4.67332 70.5415 4.67332 69.643V51.9933C4.67332 51.0948 4.60215 50.4365 4.45982 50.0362C4.31748 49.6359 4.0506 49.3601 3.65918 49.2178C3.26775 49.0755 2.64503 48.9776 1.79102 48.9331V48.2214C2.78737 48.2926 4.23742 48.3282 6.13226 48.3282L9.97534 48.2926C10.429 48.2659 10.9361 48.257 11.5054 48.257C13.9252 48.257 15.7844 48.7641 17.0743 49.7871C18.3643 50.8102 19.0137 52.1624 19.0137 53.8437C19.0137 55.2226 18.5778 56.4502 17.7149 57.5444C16.8519 58.6387 15.482 59.466 13.6049 60.0353V60.1065C16.2114 60.4623 18.0796 61.2185 19.1916 62.3661ZM8.96119 49.1822C8.59646 49.3512 8.33847 49.6448 8.19614 50.0718C8.0538 50.4988 7.98263 51.1393 7.98263 51.9933V60.0353H10.3668C12.315 60.0353 13.6672 59.5105 14.4411 58.4518C15.2151 57.3932 15.5976 55.9876 15.5976 54.2351C15.5976 52.4826 15.2062 51.1304 14.4233 50.2497C13.6405 49.369 12.3684 48.9331 10.6158 48.9331C9.87748 48.9331 9.32593 49.0132 8.96119 49.1822ZM17.3056 66.3693C17.3056 64.4922 16.7986 63.0689 15.7933 62.0992C14.7881 61.1295 13.1779 60.6403 10.9717 60.6403H7.98263V69.643C7.98263 70.497 8.0538 71.1286 8.19614 71.529C8.33847 71.9293 8.59646 72.214 8.96119 72.3652C9.32593 72.5164 9.89527 72.5965 10.6514 72.5965C15.0905 72.5965 17.3056 70.5237 17.3056 66.3693Z" fill="#ADB4A4"/>
<path d="M38.0688 56.9927C39.5545 58.594 40.2928 61.0226 40.2928 64.2697C40.2928 67.5167 39.5545 69.9364 38.0688 71.5288C36.5832 73.1212 34.635 73.9129 32.2153 73.9129C29.7956 73.9129 27.8473 73.1212 26.3617 71.5288C24.8761 69.9364 24.1377 67.5167 24.1377 64.2697C24.1377 61.0226 24.8761 58.594 26.3617 56.9927C27.8473 55.3915 29.7956 54.5908 32.2153 54.5908C34.635 54.5908 36.5832 55.3915 38.0688 56.9927ZM28.8348 57.4909C28.0075 58.9499 27.5893 61.2094 27.5893 64.2697C27.5893 67.3299 28.0075 69.5806 28.8348 71.0306C29.6621 72.4807 30.7919 73.2013 32.2153 73.2013C33.6386 73.2013 34.7684 72.4807 35.5957 71.0306C36.4231 69.5806 36.8412 67.3299 36.8412 64.2697C36.8412 61.2094 36.4231 58.9499 35.5957 57.4909C34.7684 56.032 33.6386 55.3025 32.2153 55.3025C30.7919 55.3025 29.6621 56.032 28.8348 57.4909Z" fill="#ADB4A4"/>
<path d="M48.726 55.1249H53.9925V55.8366H48.726V69.6076C48.726 70.6751 48.9218 71.4491 49.3132 71.9206C49.7046 72.392 50.2651 72.6322 51.0034 72.6322C51.7418 72.6322 52.3645 72.3387 52.8894 71.7426C53.4142 71.1466 53.8501 70.1769 54.206 68.8247L54.9177 69.0027C54.3216 72.2764 52.7826 73.9133 50.2917 73.9133C49.4822 73.9133 48.8239 73.8154 48.299 73.6286C47.7742 73.4418 47.3116 73.1393 46.9113 72.739C46.3864 72.2141 46.0306 71.5736 45.826 70.8174C45.6213 70.0613 45.5235 69.0382 45.5235 67.7572V55.8366H42.1074V55.1249H45.5235V49.6806C46.849 49.6361 47.9165 49.467 48.726 49.1824V55.1249Z" fill="#ADB4A4"/>
<path d="M57.0355 72.5429C56.3149 71.7957 55.9502 70.7549 55.9502 69.4293C55.9502 68.3618 56.2438 67.4811 56.822 66.7961C57.4002 66.1111 58.0941 65.5596 58.8859 65.1593C59.6776 64.759 60.7274 64.3319 62.0351 63.8782C63.3606 63.4246 64.348 63.0153 64.9885 62.6328C65.629 62.2503 65.9493 61.7432 65.9493 61.1027V58.8965C65.9493 57.5176 65.6557 56.5746 65.0775 56.0676C64.4993 55.5605 63.6808 55.3025 62.64 55.3025C60.9764 55.3025 59.8022 55.7295 59.1172 56.5835C59.5887 56.6992 59.989 56.9483 60.3092 57.3308C60.6295 57.7133 60.7896 58.1848 60.7896 58.7541C60.7896 59.3235 60.6028 59.8128 60.2203 60.1597C59.8378 60.5067 59.3574 60.6757 58.7613 60.6757C58.0941 60.6757 57.596 60.4711 57.2668 60.053C56.9377 59.6349 56.7686 59.1367 56.7686 58.5406C56.7686 57.9446 56.9021 57.4998 57.1778 57.1173C57.4536 56.7348 57.8628 56.3611 58.4055 55.9786C58.9748 55.5783 59.6954 55.2402 60.5761 54.9822C61.4568 54.7243 62.4176 54.5908 63.4584 54.5908C65.3088 54.5908 66.7055 55.0267 67.6573 55.9074C68.2534 56.4501 68.6448 57.1084 68.8494 57.8823C69.054 58.6563 69.1519 59.6704 69.1519 60.9248V70.8171C69.1519 71.4132 69.2319 71.8402 69.401 72.0982C69.57 72.3561 69.8546 72.4896 70.255 72.4896C70.5396 72.4896 70.8065 72.4273 71.0556 72.2939C71.3047 72.1604 71.5716 71.9825 71.8562 71.7423L72.2477 72.3472C71.6338 72.8187 71.1001 73.1568 70.6642 73.3614C70.2283 73.566 69.6767 73.6638 69.0095 73.6638C67.8708 73.6638 67.0791 73.3792 66.6254 72.8098C66.1717 72.2405 65.9493 71.4665 65.9493 70.4969C65.2376 71.68 64.4192 72.5074 63.494 72.97C62.5688 73.4326 61.528 73.6638 60.3626 73.6638C58.8681 73.6638 57.7561 73.2902 57.0355 72.5429ZM65.9493 69.5361V62.5616C65.7358 62.8908 65.4422 63.1666 65.0597 63.3801C64.6772 63.5936 64.0989 63.8782 63.3161 64.2341C62.4176 64.6166 61.6881 64.9725 61.1277 65.3194C60.5672 65.6663 60.0868 66.1289 59.6865 66.725C59.2862 67.321 59.0816 68.0772 59.0816 69.0023C59.0816 70.0699 59.3396 70.8794 59.8644 71.4221C60.3893 71.9647 61.0743 72.2405 61.9283 72.2405C63.494 72.2405 64.8373 71.342 65.9493 69.5361Z" fill="#ADB4A4"/>
<path d="M89.0426 55.943C89.4963 56.4145 89.8165 57.0105 90.0033 57.7222C90.1902 58.4339 90.288 59.3947 90.288 60.6045V70.1054C90.288 71.0751 90.4926 71.7512 90.8929 72.1159C91.2933 72.4807 91.9961 72.6675 92.9924 72.6675V73.4148C90.8129 73.3169 89.3895 73.2724 88.7223 73.2724C88.0551 73.2724 86.7296 73.3169 84.7369 73.4148V72.6675C85.6176 72.6675 86.2225 72.4807 86.5695 72.1159C86.9164 71.7512 87.0855 71.0751 87.0855 70.1054V59.8217C87.0855 58.4962 86.8986 57.482 86.5161 56.7792C86.1336 56.0765 85.3685 55.7295 84.2032 55.7295C83.2335 55.7295 82.3617 56.0142 81.6055 56.5835C80.8494 57.1529 80.2622 57.9268 79.8441 58.9143C79.426 59.9017 79.2214 60.9959 79.2214 62.2058V70.1054C79.2214 71.0751 79.3904 71.7512 79.7374 72.1159C80.0843 72.4807 80.6892 72.6675 81.5699 72.6675V73.4148C79.5772 73.3169 78.2517 73.2724 77.5845 73.2724C76.9173 73.2724 75.494 73.3169 73.3145 73.4148V72.6675C74.3108 72.6675 75.0136 72.4807 75.4139 72.1159C75.8142 71.7512 76.0188 71.0751 76.0188 70.1054V58.9677C76.0188 57.8734 75.8142 57.0817 75.4139 56.5835C75.0136 56.0854 74.3108 55.8363 73.3145 55.8363V55.089C74.0706 55.1602 74.809 55.1957 75.5207 55.1957C77.0152 55.1957 78.2517 55.0267 79.2214 54.6976V58.8965C79.8174 57.3753 80.6359 56.2811 81.6945 55.605C82.7531 54.9289 83.9452 54.5908 85.2707 54.5908C86.9342 54.5908 88.1886 55.0445 89.0426 55.943Z" fill="#ADB4A4"/>
<path d="M100.466 70.1056C100.466 71.0752 100.67 71.7513 101.07 72.1161C101.471 72.4808 102.174 72.6676 103.17 72.6676V73.4149C100.99 73.317 99.5493 73.2725 98.8643 73.2725C98.1793 73.2725 96.7381 73.317 94.5586 73.4149V72.6676C95.5549 72.6676 96.2577 72.4808 96.6581 72.1161C97.0584 71.7513 97.263 71.0752 97.263 70.1056V58.9678C97.263 57.8736 97.0584 57.0818 96.6581 56.5836C96.2577 56.0855 95.5549 55.8364 94.5586 55.8364V55.0891C95.3148 55.1603 96.0531 55.1959 96.7648 55.1959C98.2593 55.1959 99.4959 55.0268 100.466 54.6977V70.1056ZM100.216 46.8692C100.67 47.3229 100.893 47.8567 100.893 48.4705C100.893 49.0843 100.67 49.6181 100.216 50.0718C99.7628 50.5255 99.229 50.7479 98.6152 50.7479C98.0013 50.7479 97.4676 50.5255 97.0139 50.0718C96.5602 49.6181 96.3378 49.0843 96.3378 48.4705C96.3378 47.8567 96.5602 47.3229 97.0139 46.8692C97.4676 46.4155 98.0013 46.1931 98.6152 46.1931C99.229 46.1931 99.7628 46.4155 100.216 46.8692Z" fill="#ADB4A4"/>
<path d="M118.009 55.7295C119.121 56.4679 119.681 57.3753 119.681 58.4695C119.681 59.0833 119.503 59.5726 119.147 59.9284C118.792 60.2843 118.338 60.4622 117.795 60.4622C117.253 60.4622 116.79 60.3021 116.407 59.9818C116.025 59.6615 115.838 59.2256 115.838 58.683C115.838 58.1848 115.98 57.7667 116.265 57.4197C116.55 57.0728 116.906 56.8415 117.333 56.7259C117.092 56.2989 116.674 55.943 116.069 55.6583C115.464 55.3737 114.815 55.2313 114.13 55.2313C113.249 55.2313 112.431 55.5071 111.675 56.0676C110.919 56.628 110.287 57.5532 109.789 58.8431C109.291 60.133 109.041 61.8411 109.041 63.9494C109.041 66.894 109.513 69.029 110.465 70.3723C111.417 71.7156 112.644 72.3828 114.166 72.3828C115.189 72.3828 116.149 72.0893 117.066 71.4932C117.982 70.8972 118.729 69.972 119.325 68.7177L120.001 68.9668C119.601 70.319 118.845 71.4843 117.742 72.454C116.639 73.4237 115.206 73.9129 113.454 73.9129C111.986 73.9129 110.652 73.5304 109.451 72.7742C108.25 72.0181 107.307 70.915 106.622 69.4827C105.937 68.0505 105.59 66.378 105.59 64.4832C105.59 62.5883 105.937 60.8536 106.64 59.3591C107.342 57.8645 108.321 56.6992 109.575 55.8541C110.83 55.0089 112.271 54.5908 113.881 54.5908C115.491 54.5908 116.843 54.9734 118.009 55.7295Z" fill="#ADB4A4"/>
<path d="M11.2816 82.813V94.343H10.4416V88.823H3.2316V94.343H2.3916V82.813H3.2316V88.193H10.4516V82.813H11.2916H11.2816Z" fill="#ADB4A4"/>
<path d="M26.8914 88.5731C26.8914 89.4631 26.7614 90.2731 26.4914 90.9931C26.2214 91.7231 25.8514 92.3331 25.3714 92.8531C24.8914 93.3731 24.3114 93.7631 23.6314 94.0431C22.9514 94.3231 22.2114 94.4631 21.3914 94.4631C20.5714 94.4631 19.8314 94.3231 19.1614 94.0431C18.4914 93.7631 17.9114 93.3631 17.4214 92.8531C16.9314 92.3431 16.5614 91.7231 16.3014 90.9931C16.0314 90.2631 15.9014 89.4631 15.9014 88.5731C15.9014 87.6831 16.0314 86.8831 16.3014 86.1531C16.5714 85.4231 16.9414 84.8131 17.4214 84.2931C17.9014 83.7731 18.4814 83.3831 19.1614 83.1031C19.8314 82.8231 20.5814 82.6831 21.3914 82.6831C22.2014 82.6831 22.9514 82.8231 23.6314 83.1031C24.3114 83.3831 24.8914 83.7831 25.3714 84.2931C25.8514 84.8031 26.2314 85.4331 26.4914 86.1531C26.7614 86.8831 26.8914 87.6831 26.8914 88.5731ZM26.0314 88.5731C26.0314 87.7731 25.9214 87.0431 25.7014 86.4031C25.4814 85.7631 25.1614 85.2231 24.7514 84.7731C24.3414 84.3231 23.8514 83.9831 23.2814 83.7531C22.7114 83.5231 22.0814 83.4031 21.3914 83.4031C20.7014 83.4031 20.0814 83.5231 19.5114 83.7531C18.9414 83.9831 18.4514 84.3331 18.0414 84.7731C17.6314 85.2131 17.3114 85.7631 17.0914 86.4031C16.8614 87.0431 16.7514 87.7631 16.7514 88.5731C16.7514 89.3831 16.8614 90.1031 17.0914 90.7431C17.3214 91.3831 17.6314 91.9231 18.0414 92.3731C18.4514 92.8231 18.9414 93.1631 19.5114 93.3931C20.0814 93.6231 20.7114 93.7431 21.3914 93.7431C22.0714 93.7431 22.7114 93.6231 23.2814 93.3931C23.8514 93.1631 24.3414 92.8231 24.7514 92.3731C25.1614 91.9231 25.4714 91.3831 25.7014 90.7431C25.9314 90.1031 26.0314 89.3831 26.0314 88.5731Z" fill="#ADB4A4"/>
<path d="M35.7216 93.743C36.2716 93.743 36.7716 93.643 37.2116 93.453C37.6516 93.263 38.0216 92.993 38.3216 92.653C38.6216 92.313 38.8616 91.903 39.0216 91.443C39.1816 90.983 39.2616 90.473 39.2616 89.943V82.813H40.0916V89.943C40.0916 90.583 39.9916 91.173 39.7916 91.723C39.5916 92.273 39.3016 92.753 38.9216 93.163C38.5416 93.573 38.0816 93.893 37.5416 94.133C37.0016 94.363 36.3916 94.483 35.7216 94.483C35.0516 94.483 34.4416 94.363 33.9016 94.133C33.3616 93.903 32.9016 93.573 32.5216 93.163C32.1416 92.753 31.8516 92.273 31.6516 91.723C31.4516 91.173 31.3516 90.573 31.3516 89.943V82.813H32.1916V89.933C32.1916 90.473 32.2716 90.973 32.4316 91.433C32.5916 91.893 32.8216 92.303 33.1216 92.643C33.4216 92.983 33.7916 93.253 34.2316 93.453C34.6716 93.653 35.1616 93.743 35.7216 93.743Z" fill="#ADB4A4"/>
<path d="M50.8913 84.2131C50.8413 84.3031 50.7713 84.3531 50.6813 84.3531C50.6113 84.3531 50.5213 84.3031 50.4113 84.2031C50.3013 84.1031 50.1513 83.9931 49.9613 83.8731C49.7713 83.7531 49.5313 83.6431 49.2513 83.5331C48.9613 83.4331 48.6113 83.3831 48.1913 83.3831C47.7713 83.3831 47.4013 83.4431 47.0913 83.5631C46.7713 83.6831 46.5113 83.8431 46.2913 84.0531C46.0813 84.2631 45.9113 84.5031 45.8013 84.7731C45.6913 85.0431 45.6313 85.3331 45.6313 85.6331C45.6313 86.0231 45.7113 86.3431 45.8813 86.6031C46.0513 86.8631 46.2613 87.0731 46.5413 87.2531C46.8213 87.4331 47.1213 87.5831 47.4613 87.7031C47.8013 87.8231 48.1613 87.9431 48.5213 88.0631C48.8813 88.1831 49.2413 88.3131 49.5813 88.4631C49.9213 88.6131 50.2313 88.7831 50.5013 89.0031C50.7713 89.2231 50.9913 89.4831 51.1613 89.8031C51.3313 90.1231 51.4113 90.5131 51.4113 90.9931C51.4113 91.4731 51.3313 91.9331 51.1613 92.3531C50.9913 92.7831 50.7513 93.1531 50.4413 93.4631C50.1313 93.7831 49.7413 94.0231 49.2813 94.2131C48.8213 94.3931 48.3013 94.4831 47.7213 94.4831C46.9613 94.4831 46.3013 94.3531 45.7613 94.0831C45.2213 93.8131 44.7313 93.4431 44.3213 92.9831L44.5513 92.6231C44.6213 92.5431 44.6913 92.5031 44.7813 92.5031C44.8313 92.5031 44.8913 92.5331 44.9713 92.6031C45.0513 92.6631 45.1413 92.7531 45.2513 92.8431C45.3613 92.9431 45.4913 93.0431 45.6413 93.1531C45.7913 93.2631 45.9713 93.3631 46.1713 93.4631C46.3713 93.5631 46.6013 93.6431 46.8613 93.7031C47.1213 93.7731 47.4213 93.8031 47.7513 93.8031C48.2113 93.8031 48.6113 93.7331 48.9713 93.5931C49.3313 93.4531 49.6313 93.2631 49.8813 93.0231C50.1313 92.7831 50.3213 92.5031 50.4513 92.1731C50.5813 91.8431 50.6513 91.4931 50.6513 91.1131C50.6513 90.7031 50.5713 90.3731 50.4013 90.1031C50.2313 89.8431 50.0213 89.6231 49.7413 89.4431C49.4613 89.2631 49.1613 89.1231 48.8213 89.0031C48.4813 88.8831 48.1213 88.7631 47.7613 88.6531C47.4013 88.5431 47.0413 88.4131 46.7013 88.2731C46.3513 88.1331 46.0513 87.9531 45.7813 87.7331C45.5113 87.5131 45.2913 87.2431 45.1213 86.9131C44.9513 86.5831 44.8713 86.1731 44.8713 85.6831C44.8713 85.2931 44.9413 84.9231 45.0913 84.5631C45.2413 84.2031 45.4513 83.8931 45.7313 83.6131C46.0113 83.3431 46.3613 83.1231 46.7813 82.9531C47.2013 82.7831 47.6713 82.7031 48.2013 82.7031C48.8013 82.7031 49.3313 82.8031 49.8113 82.9931C50.2813 83.1831 50.7213 83.4731 51.1113 83.8631L50.9113 84.2431L50.8913 84.2131Z" fill="#ADB4A4"/>
<path d="M62.9017 93.653L62.8817 94.343H55.9717V82.813H62.8817V83.503H56.8117V88.163H61.8617V88.843H56.8117V93.653H62.9017Z" fill="#ADB4A4"/>
</svg>
